G04 EAGLE Gerber RS-274X export*
G75*
%MOMM*%
%FSLAX34Y34*%
%LPD*%
%INBottom Copper*%
%IPPOS*%
%AMOC8*
5,1,8,0,0,1.08239X$1,22.5*%
G01*
%ADD10C,1.879600*%
%ADD11C,1.879600*%
%ADD12C,6.197600*%
%ADD13C,0.304800*%
%ADD14C,0.254000*%
%ADD15C,1.066800*%


D10*
X279400Y393700D03*
X279400Y368300D03*
X279400Y342900D03*
X279400Y317500D03*
X279400Y292100D03*
X279400Y266700D03*
X279400Y241300D03*
X279400Y215900D03*
X279400Y190500D03*
X279400Y165100D03*
X279400Y139700D03*
X279400Y114300D03*
X279400Y88900D03*
X279400Y63500D03*
X279400Y38100D03*
X431800Y38100D03*
X431800Y63500D03*
X431800Y88900D03*
X431800Y114300D03*
X431800Y139700D03*
X431800Y165100D03*
X431800Y190500D03*
X431800Y215900D03*
X431800Y241300D03*
X431800Y266700D03*
X431800Y292100D03*
X431800Y317500D03*
X431800Y342900D03*
X431800Y368300D03*
X431800Y393700D03*
D11*
X498602Y63500D02*
X517398Y63500D01*
X517398Y88900D02*
X498602Y88900D01*
X498602Y114300D02*
X517398Y114300D01*
X517398Y139700D02*
X498602Y139700D01*
X498602Y203200D02*
X517398Y203200D01*
X517398Y228600D02*
X498602Y228600D01*
X498602Y254000D02*
X517398Y254000D01*
X517398Y279400D02*
X498602Y279400D01*
D10*
X355600Y736600D03*
X381000Y736600D03*
X406400Y736600D03*
X520700Y736600D03*
X546100Y736600D03*
D12*
X76200Y50800D03*
X76200Y736600D03*
D10*
X584200Y38100D03*
X584200Y63500D03*
X584200Y88900D03*
X584200Y114300D03*
X584200Y139700D03*
X584200Y165100D03*
X584200Y190500D03*
X584200Y215900D03*
X584200Y241300D03*
X584200Y266700D03*
X584200Y292100D03*
X584200Y317500D03*
X584200Y342900D03*
X584200Y368300D03*
X584200Y393700D03*
X584200Y419100D03*
X584200Y444500D03*
X584200Y469900D03*
X584200Y495300D03*
X584200Y520700D03*
X584200Y546100D03*
X584200Y571500D03*
X495300Y533400D03*
X520700Y533400D03*
X495300Y444500D03*
X520700Y444500D03*
D13*
X400050Y717550D02*
X381000Y736600D01*
X438150Y717550D02*
X501650Y717550D01*
X438150Y717550D02*
X400050Y717550D01*
X501650Y717550D02*
X520700Y736600D01*
X438150Y717550D02*
X584200Y571500D01*
X330200Y368300D02*
X279400Y317500D01*
X330200Y368300D02*
X431800Y368300D01*
X501650Y463550D02*
X584200Y546100D01*
X501650Y463550D02*
X495300Y463550D01*
X450850Y419100D01*
X450850Y368300D01*
X431800Y368300D01*
D14*
X279400Y114300D02*
X374650Y19050D01*
X431800Y19050D01*
X501650Y88900D01*
X508000Y88900D01*
X355600Y12700D02*
X279400Y88900D01*
X355600Y12700D02*
X457200Y12700D01*
X508000Y63500D01*
X501650Y209550D02*
X495300Y209550D01*
X450850Y254000D01*
X450850Y317500D01*
X431800Y317500D01*
X539750Y476250D02*
X584200Y520700D01*
X539750Y476250D02*
X539750Y209550D01*
X501650Y209550D01*
X508000Y203200D01*
X355600Y736600D02*
X76200Y736600D01*
X584200Y520700D02*
X603250Y539750D01*
X603250Y755650D01*
X374650Y755650D01*
X355600Y736600D01*
X342900Y457200D02*
X279400Y393700D01*
X342900Y457200D02*
X469900Y457200D01*
D15*
X469900Y457200D03*
D14*
X279400Y368300D02*
X260350Y387350D01*
X260350Y533400D01*
X495300Y533400D01*
X374650Y247650D02*
X431800Y190500D01*
D15*
X374650Y247650D03*
D14*
X254000Y88900D02*
X279400Y63500D01*
X254000Y88900D02*
X254000Y552450D01*
X501650Y552450D01*
X520700Y533400D01*
M02*
