%
M48
M72
T01C0.0236
T02C0.0320
T03C0.0354
T04C0.0360
T05C0.0400
T06C0.0512
T07C0.1280
%
T01
X6229Y14213
X9729Y16713
X10979Y15963
X4229Y22713
T02
X4729Y21213
X4729Y20213
X4729Y19213
X4729Y18213
X4729Y17213
X4729Y16213
X4729Y15213
X4729Y14213
X5979Y12213
X6979Y12213
X7729Y14213
X7729Y15213
X7729Y16213
X7729Y17213
X7729Y18213
X7729Y19213
X7729Y20213
X7729Y21213
X13229Y21713
X13229Y22713
X13229Y20713
X13229Y19713
X13229Y18713
X13229Y17713
X13229Y16713
X16229Y16713
X16229Y17713
X16229Y18713
X16229Y19713
X16229Y20713
X16229Y21713
X16229Y22713
X17479Y21213
X17479Y20213
X18729Y21713
X18229Y22713
X18229Y23713
X18729Y17713
X18729Y16213
X17729Y16213
X17979Y9213
X17979Y8213
X17729Y5713
X18729Y5713
X19729Y5713
X20729Y5713
X18729Y1713
X17729Y1713
X13979Y8213
X13979Y9213
X11979Y9213
X11979Y8213
X10729Y6713
X9729Y6713
X9729Y5713
X10729Y5713
X7979Y8213
X7979Y9213
X6979Y8213
X5979Y8213
X3729Y9213
X3729Y10213
X2729Y6713
X2729Y2713
X9729Y1713
X10729Y1713
X8979Y11213
X8979Y12213
T03
X9979Y12213
X7729Y13213
X7729Y10213
X6979Y6713
X5979Y6713
X5479Y5713
X4979Y6713
X6479Y5713
X7479Y5713
X12979Y6713
X13979Y6713
X13479Y5713
X14479Y5713
X15479Y5713
X14979Y6713
X12979Y8213
X14229Y10213
X14229Y11213
X12979Y11213
X12979Y12213
X12229Y15213
X15229Y15213
X17229Y11213
X17229Y10213
X19729Y4713
X20729Y4713
X20729Y1713
X19729Y1713
T04
X12229Y23713
X11229Y23713
T05
X1479Y2713
X1479Y3713
X1479Y4713
X1729Y7213
X1729Y8213
X1729Y9213
X1729Y10213
X1729Y11213
X1729Y12213
X1729Y13213
X1729Y14213
X1729Y15713
X1729Y16713
X1729Y17713
X1729Y18713
X1729Y19713
X1729Y20713
X1729Y21713
X1729Y22713
X19089Y9493
X20869Y9493
X20729Y10713
X20729Y11713
X20729Y12713
X20729Y13713
X20729Y14713
X20729Y15713
X20729Y17713
X20729Y18713
X20729Y19713
X20729Y20713
X20729Y21713
X20729Y22713
X20869Y6933
X19089Y6933
T06
X8729Y23713
X6761Y23713
T07
X8229Y3213
X4229Y3213
X12229Y3213
X16229Y3213
M30
