G75*
G70*
%OFA0B0*%
%FSLAX24Y24*%
%IPPOS*%
%LPD*%
%AMOC8*
5,1,8,0,0,1.08239X$1,22.5*
%
%ADD10C,0.0480*%
%ADD11C,0.0740*%
%ADD12C,0.0551*%
%ADD13OC8,0.0480*%
%ADD14R,0.0800X0.0800*%
%ADD15C,0.0800*%
%ADD16C,0.0540*%
%ADD17OC8,0.0630*%
%ADD18C,0.0630*%
%ADD19C,0.0600*%
%ADD20C,0.0240*%
%ADD21C,0.0376*%
D10*
X004489Y014213D02*
X004969Y014213D01*
X004969Y015213D02*
X004489Y015213D01*
X004489Y016213D02*
X004969Y016213D01*
X004969Y017213D02*
X004489Y017213D01*
X004489Y018213D02*
X004969Y018213D01*
X004969Y019213D02*
X004489Y019213D01*
X004489Y020213D02*
X004969Y020213D01*
X004969Y021213D02*
X004489Y021213D01*
X007489Y021213D02*
X007969Y021213D01*
X007969Y020213D02*
X007489Y020213D01*
X007489Y019213D02*
X007969Y019213D01*
X007969Y018213D02*
X007489Y018213D01*
X007489Y017213D02*
X007969Y017213D01*
X007969Y016213D02*
X007489Y016213D01*
X007489Y015213D02*
X007969Y015213D01*
X007969Y014213D02*
X007489Y014213D01*
X012989Y016713D02*
X013469Y016713D01*
X013469Y017713D02*
X012989Y017713D01*
X012989Y018713D02*
X013469Y018713D01*
X013469Y019713D02*
X012989Y019713D01*
X012989Y020713D02*
X013469Y020713D01*
X013469Y021713D02*
X012989Y021713D01*
X012989Y022713D02*
X013469Y022713D01*
X015989Y022713D02*
X016469Y022713D01*
X016469Y021713D02*
X015989Y021713D01*
X015989Y020713D02*
X016469Y020713D01*
X016469Y019713D02*
X015989Y019713D01*
X015989Y018713D02*
X016469Y018713D01*
X016469Y017713D02*
X015989Y017713D01*
X015989Y016713D02*
X016469Y016713D01*
D11*
X015229Y015213D03*
X012979Y012213D03*
X012979Y011213D03*
X014229Y011213D03*
X014229Y010213D03*
X012979Y008213D03*
X009979Y012213D03*
X007729Y013213D03*
X007729Y010213D03*
X012229Y015213D03*
X017229Y011213D03*
X017229Y010213D03*
X019089Y009493D03*
X020869Y009493D03*
X020729Y010713D03*
X020729Y011713D03*
X020729Y012713D03*
X020729Y013713D03*
X020729Y014713D03*
X020729Y015713D03*
X020729Y017713D03*
X020729Y018713D03*
X020729Y019713D03*
X020729Y020713D03*
X020729Y021713D03*
X020729Y022713D03*
X020869Y006933D03*
X019089Y006933D03*
X019729Y004713D03*
X020729Y004713D03*
X020729Y001713D03*
X019729Y001713D03*
X001729Y007213D03*
X001729Y008213D03*
X001729Y009213D03*
X001729Y010213D03*
X001729Y011213D03*
X001729Y012213D03*
X001729Y013213D03*
X001729Y014213D03*
X001729Y015713D03*
X001729Y016713D03*
X001729Y017713D03*
X001729Y018713D03*
X001729Y019713D03*
X001729Y020713D03*
X001729Y021713D03*
X001729Y022713D03*
D12*
X004979Y006713D03*
X005479Y005713D03*
X005979Y006713D03*
X006979Y006713D03*
X006479Y005713D03*
X007479Y005713D03*
X012979Y006713D03*
X013979Y006713D03*
X013479Y005713D03*
X014479Y005713D03*
X015479Y005713D03*
X014979Y006713D03*
D13*
X013979Y008213D03*
X013979Y009213D03*
X011979Y009213D03*
X011979Y008213D03*
X010729Y006713D03*
X009729Y006713D03*
X009729Y005713D03*
X010729Y005713D03*
X007979Y008213D03*
X007979Y009213D03*
X006979Y008213D03*
X005979Y008213D03*
X003729Y009213D03*
X003729Y010213D03*
X005979Y012213D03*
X006979Y012213D03*
X008979Y012213D03*
X008979Y011213D03*
X002729Y006713D03*
X002729Y002713D03*
X009729Y001713D03*
X010729Y001713D03*
X017729Y001713D03*
X018729Y001713D03*
X018729Y005713D03*
X017729Y005713D03*
X019729Y005713D03*
X020729Y005713D03*
X017979Y008213D03*
X017979Y009213D03*
X017729Y016213D03*
X018729Y016213D03*
X018729Y017713D03*
X017479Y020213D03*
X017479Y021213D03*
X018729Y021713D03*
D14*
X008729Y023713D03*
D15*
X006761Y023713D03*
D16*
X011229Y023443D02*
X011229Y023983D01*
X012229Y023983D02*
X012229Y023443D01*
D17*
X018229Y023713D03*
D18*
X018229Y022713D03*
D19*
X001779Y002713D02*
X001179Y002713D01*
X001179Y003713D02*
X001779Y003713D01*
X001779Y004713D02*
X001179Y004713D01*
D20*
X001279Y004713D02*
X000779Y005213D01*
X000779Y012263D01*
X001729Y013213D01*
X002479Y012963D02*
X002479Y014713D01*
X003479Y015713D01*
X007229Y015713D01*
X007729Y015213D01*
X007729Y016213D02*
X008229Y016213D01*
X009229Y015213D01*
X009229Y014213D01*
X010729Y012713D01*
X010729Y007713D01*
X012729Y005713D01*
X013479Y005713D01*
X012979Y006713D02*
X012729Y006713D01*
X011229Y008213D01*
X011229Y013213D01*
X009729Y014713D01*
X009729Y016713D01*
X010979Y015963D02*
X012729Y017713D01*
X013229Y017713D01*
X013229Y018713D02*
X001729Y018713D01*
X001729Y019713D02*
X011729Y019713D01*
X012229Y020213D01*
X014229Y020213D01*
X014729Y019713D01*
X016229Y019713D01*
X016229Y017713D02*
X014729Y017713D01*
X014229Y018213D01*
X012229Y018213D01*
X011729Y017713D01*
X001729Y017713D01*
X000729Y015213D02*
X000729Y022713D01*
X001479Y023713D01*
X003229Y023713D01*
X004229Y022713D01*
X001729Y020713D02*
X013229Y020713D01*
X012229Y022213D02*
X012229Y023713D01*
X012229Y022213D02*
X010729Y021213D01*
X007729Y021213D01*
X007729Y018213D02*
X004729Y018213D01*
X004729Y017213D02*
X007729Y017213D01*
X006229Y014213D02*
X006229Y013713D01*
X004979Y012463D01*
X004979Y006713D01*
X004229Y005213D02*
X005729Y003713D01*
X005729Y001713D01*
X002479Y001713D01*
X001479Y002713D01*
X004229Y005213D02*
X004229Y013713D01*
X004729Y014213D01*
X004729Y015213D02*
X003729Y015213D01*
X002979Y014463D01*
X002979Y011463D01*
X001729Y010213D01*
X001729Y012213D02*
X002479Y012963D01*
X001729Y014213D02*
X000729Y015213D01*
X007979Y008213D02*
X006979Y007213D01*
X006979Y006713D01*
X009229Y002213D02*
X008729Y001713D01*
X005729Y001713D01*
X009229Y002213D02*
X010229Y002213D01*
X010729Y001713D01*
X016729Y001713D01*
X017729Y002713D01*
X021229Y002713D01*
X022229Y003713D01*
X022229Y011713D01*
X021229Y012713D01*
X020729Y012713D01*
X020229Y012213D02*
X012979Y012213D01*
X012979Y011213D02*
X012979Y010213D01*
X011979Y009213D01*
X020229Y012213D02*
X020729Y011713D01*
D21*
X010979Y015963D03*
X009729Y016713D03*
X006229Y014213D03*
X004229Y022713D03*
M02*
