G75*
G70*
%OFA0B0*%
%FSLAX24Y24*%
%IPPOS*%
%LPD*%
%AMOC8*
5,1,8,0,0,1.08239X$1,22.5*
%
%ADD10C,0.0480*%
%ADD11C,0.0740*%
%ADD12C,0.0551*%
%ADD13OC8,0.0480*%
%ADD14R,0.0800X0.0800*%
%ADD15C,0.0800*%
%ADD16C,0.0540*%
%ADD17OC8,0.0630*%
%ADD18C,0.0630*%
%ADD19C,0.0600*%
%ADD20C,0.0240*%
%ADD21C,0.0376*%
D10*
X004489Y014213D02*
X004969Y014213D01*
X004969Y015213D02*
X004489Y015213D01*
X004489Y016213D02*
X004969Y016213D01*
X004969Y017213D02*
X004489Y017213D01*
X004489Y018213D02*
X004969Y018213D01*
X004969Y019213D02*
X004489Y019213D01*
X004489Y020213D02*
X004969Y020213D01*
X004969Y021213D02*
X004489Y021213D01*
X007489Y021213D02*
X007969Y021213D01*
X007969Y020213D02*
X007489Y020213D01*
X007489Y019213D02*
X007969Y019213D01*
X007969Y018213D02*
X007489Y018213D01*
X007489Y017213D02*
X007969Y017213D01*
X007969Y016213D02*
X007489Y016213D01*
X007489Y015213D02*
X007969Y015213D01*
X007969Y014213D02*
X007489Y014213D01*
X012989Y016713D02*
X013469Y016713D01*
X013469Y017713D02*
X012989Y017713D01*
X012989Y018713D02*
X013469Y018713D01*
X013469Y019713D02*
X012989Y019713D01*
X012989Y020713D02*
X013469Y020713D01*
X013469Y021713D02*
X012989Y021713D01*
X012989Y022713D02*
X013469Y022713D01*
X015989Y022713D02*
X016469Y022713D01*
X016469Y021713D02*
X015989Y021713D01*
X015989Y020713D02*
X016469Y020713D01*
X016469Y019713D02*
X015989Y019713D01*
X015989Y018713D02*
X016469Y018713D01*
X016469Y017713D02*
X015989Y017713D01*
X015989Y016713D02*
X016469Y016713D01*
D11*
X015229Y015213D03*
X012979Y012213D03*
X012979Y011213D03*
X014229Y011213D03*
X014229Y010213D03*
X012979Y008213D03*
X009979Y012213D03*
X007729Y013213D03*
X007729Y010213D03*
X012229Y015213D03*
X017229Y011213D03*
X017229Y010213D03*
X019089Y009493D03*
X020869Y009493D03*
X020729Y010713D03*
X020729Y011713D03*
X020729Y012713D03*
X020729Y013713D03*
X020729Y014713D03*
X020729Y015713D03*
X020729Y017713D03*
X020729Y018713D03*
X020729Y019713D03*
X020729Y020713D03*
X020729Y021713D03*
X020729Y022713D03*
X020869Y006933D03*
X019089Y006933D03*
X019729Y004713D03*
X020729Y004713D03*
X020729Y001713D03*
X019729Y001713D03*
X001729Y007213D03*
X001729Y008213D03*
X001729Y009213D03*
X001729Y010213D03*
X001729Y011213D03*
X001729Y012213D03*
X001729Y013213D03*
X001729Y014213D03*
X001729Y015713D03*
X001729Y016713D03*
X001729Y017713D03*
X001729Y018713D03*
X001729Y019713D03*
X001729Y020713D03*
X001729Y021713D03*
X001729Y022713D03*
D12*
X004979Y006713D03*
X005479Y005713D03*
X005979Y006713D03*
X006979Y006713D03*
X006479Y005713D03*
X007479Y005713D03*
X012979Y006713D03*
X013979Y006713D03*
X013479Y005713D03*
X014479Y005713D03*
X015479Y005713D03*
X014979Y006713D03*
D13*
X013979Y008213D03*
X013979Y009213D03*
X011979Y009213D03*
X011979Y008213D03*
X010729Y006713D03*
X009729Y006713D03*
X009729Y005713D03*
X010729Y005713D03*
X007979Y008213D03*
X007979Y009213D03*
X006979Y008213D03*
X005979Y008213D03*
X003729Y009213D03*
X003729Y010213D03*
X005979Y012213D03*
X006979Y012213D03*
X008979Y012213D03*
X008979Y011213D03*
X002729Y006713D03*
X002729Y002713D03*
X009729Y001713D03*
X010729Y001713D03*
X017729Y001713D03*
X018729Y001713D03*
X018729Y005713D03*
X017729Y005713D03*
X019729Y005713D03*
X020729Y005713D03*
X017979Y008213D03*
X017979Y009213D03*
X017729Y016213D03*
X018729Y016213D03*
X018729Y017713D03*
X017479Y020213D03*
X017479Y021213D03*
X018729Y021713D03*
D14*
X008729Y023713D03*
D15*
X006761Y023713D03*
D16*
X011229Y023443D02*
X011229Y023983D01*
X012229Y023983D02*
X012229Y023443D01*
D17*
X018229Y023713D03*
D18*
X018229Y022713D03*
D19*
X001779Y004713D02*
X001179Y004713D01*
X001179Y003713D02*
X001779Y003713D01*
X001779Y002713D02*
X001179Y002713D01*
D20*
X001540Y001415D02*
X009377Y001415D01*
X009358Y001315D02*
X003100Y001315D01*
X003000Y001274D01*
X002924Y001197D01*
X002882Y001097D01*
X002882Y000989D01*
X002885Y000983D01*
X001864Y000983D01*
X000927Y002233D01*
X001072Y002173D01*
X001887Y002173D01*
X002085Y002255D01*
X002237Y002407D01*
X002280Y002511D01*
X002539Y002253D01*
X002729Y002253D01*
X002729Y002712D01*
X002729Y002712D01*
X002729Y002253D01*
X002920Y002253D01*
X003189Y002522D01*
X003189Y002712D01*
X002730Y002712D01*
X002730Y002713D01*
X003189Y002713D01*
X003189Y002903D01*
X002920Y003173D01*
X002729Y003173D01*
X002539Y003173D01*
X002280Y002914D01*
X002237Y003018D01*
X002085Y003170D01*
X001957Y003224D01*
X001979Y003231D01*
X002052Y003268D01*
X002118Y003316D01*
X002176Y003374D01*
X002224Y003440D01*
X002261Y003513D01*
X002286Y003591D01*
X002299Y003672D01*
X002299Y003712D01*
X001480Y003712D01*
X001480Y003713D01*
X002299Y003713D01*
X002299Y003754D01*
X002286Y003834D01*
X002261Y003912D01*
X002224Y003985D01*
X002176Y004051D01*
X002118Y004109D01*
X002052Y004157D01*
X001979Y004194D01*
X001957Y004202D01*
X002085Y004255D01*
X002237Y004407D01*
X002319Y004605D01*
X002319Y004820D01*
X002237Y005018D01*
X002085Y005170D01*
X001887Y005253D01*
X001072Y005253D01*
X000873Y005170D01*
X000721Y005018D01*
X000639Y004820D01*
X000639Y004605D01*
X000721Y004407D01*
X000873Y004255D01*
X001002Y004202D01*
X000980Y004194D01*
X000907Y004157D01*
X000841Y004109D01*
X000783Y004051D01*
X000735Y003985D01*
X000697Y003912D01*
X000672Y003834D01*
X000659Y003754D01*
X000659Y003713D01*
X001479Y003713D01*
X001479Y003712D01*
X000659Y003712D01*
X000659Y003672D01*
X000672Y003591D01*
X000697Y003513D01*
X000735Y003440D01*
X000783Y003374D01*
X000841Y003316D01*
X000907Y003268D01*
X000980Y003231D01*
X001002Y003224D01*
X000873Y003170D01*
X000721Y003018D01*
X000639Y002820D01*
X000639Y002616D01*
X000499Y002803D01*
X000499Y006434D01*
X000525Y006407D01*
X001525Y005407D01*
X001658Y005353D01*
X001801Y005353D01*
X005110Y005353D01*
X005187Y005276D01*
X005377Y005197D01*
X005582Y005197D01*
X005771Y005276D01*
X005916Y005421D01*
X005979Y005572D01*
X006042Y005421D01*
X006153Y005310D01*
X006174Y005259D01*
X006924Y004509D01*
X007025Y004407D01*
X007158Y004353D01*
X008801Y004353D01*
X008933Y004407D01*
X009034Y004509D01*
X009758Y005233D01*
X009928Y005233D01*
X010048Y005353D01*
X010410Y005353D01*
X010530Y005233D01*
X010700Y005233D01*
X011424Y004509D01*
X011424Y004509D01*
X011525Y004407D01*
X011658Y004353D01*
X013408Y004353D01*
X013551Y004353D01*
X013683Y004407D01*
X014473Y005197D01*
X014582Y005197D01*
X014771Y005276D01*
X014916Y005421D01*
X014979Y005572D01*
X015042Y005421D01*
X015187Y005276D01*
X015377Y005197D01*
X015582Y005197D01*
X015771Y005276D01*
X015848Y005353D01*
X016080Y005353D01*
X017369Y004063D01*
X017369Y002031D01*
X017249Y001911D01*
X017249Y001514D01*
X017530Y001233D01*
X017928Y001233D01*
X018209Y001514D01*
X018209Y001911D01*
X018089Y002031D01*
X018089Y004284D01*
X018034Y004416D01*
X017933Y004518D01*
X016433Y006018D01*
X016301Y006073D01*
X016158Y006073D01*
X015848Y006073D01*
X015771Y006150D01*
X015582Y006228D01*
X015377Y006228D01*
X015187Y006150D01*
X015042Y006005D01*
X014979Y005853D01*
X014916Y006005D01*
X014771Y006150D01*
X014582Y006228D01*
X014377Y006228D01*
X014187Y006150D01*
X014042Y006005D01*
X013979Y005853D01*
X013916Y006005D01*
X013771Y006150D01*
X013582Y006228D01*
X013377Y006228D01*
X013187Y006150D01*
X013042Y006005D01*
X012964Y005815D01*
X012964Y005610D01*
X013042Y005421D01*
X013187Y005276D01*
X013377Y005197D01*
X013455Y005197D01*
X013330Y005073D01*
X011878Y005073D01*
X011209Y005742D01*
X011209Y005911D01*
X010928Y006193D01*
X010530Y006193D01*
X010410Y006073D01*
X010048Y006073D01*
X009928Y006193D01*
X009530Y006193D01*
X009249Y005911D01*
X009249Y005742D01*
X008580Y005073D01*
X007378Y005073D01*
X006950Y005501D01*
X006979Y005572D01*
X007042Y005421D01*
X007187Y005276D01*
X007377Y005197D01*
X007582Y005197D01*
X007771Y005276D01*
X007916Y005421D01*
X007995Y005610D01*
X007995Y005719D01*
X008433Y006157D01*
X008534Y006259D01*
X008589Y006391D01*
X008589Y007141D01*
X008589Y007284D01*
X008534Y007416D01*
X008433Y007518D01*
X008301Y007573D01*
X007702Y007573D01*
X007459Y008058D01*
X007459Y008411D01*
X007178Y008693D01*
X006780Y008693D01*
X006499Y008411D01*
X006499Y008014D01*
X006780Y007733D01*
X006817Y007733D01*
X007069Y007228D01*
X006877Y007228D01*
X006687Y007150D01*
X006542Y007005D01*
X006464Y006817D01*
X006463Y006829D01*
X006439Y006903D01*
X006403Y006972D01*
X006357Y007035D01*
X006302Y007091D01*
X006239Y007136D01*
X006170Y007172D01*
X006095Y007196D01*
X006018Y007208D01*
X005979Y007208D01*
X005940Y007208D01*
X005863Y007196D01*
X005789Y007172D01*
X005720Y007136D01*
X005656Y007091D01*
X005601Y007035D01*
X005555Y006972D01*
X005520Y006903D01*
X005496Y006829D01*
X005494Y006817D01*
X005416Y007005D01*
X005271Y007150D01*
X005082Y007228D01*
X004877Y007228D01*
X004687Y007150D01*
X004542Y007005D01*
X004464Y006815D01*
X004464Y006610D01*
X004542Y006421D01*
X004687Y006276D01*
X004877Y006197D01*
X005082Y006197D01*
X005271Y006276D01*
X005416Y006421D01*
X005494Y006608D01*
X005496Y006597D01*
X005520Y006522D01*
X005555Y006453D01*
X005601Y006390D01*
X005656Y006335D01*
X005720Y006289D01*
X005789Y006253D01*
X005863Y006229D01*
X005940Y006217D01*
X005979Y006217D01*
X005979Y006712D01*
X005979Y006712D01*
X005979Y006217D01*
X006018Y006217D01*
X006095Y006229D01*
X006170Y006253D01*
X006239Y006289D01*
X006302Y006335D01*
X006357Y006390D01*
X006403Y006453D01*
X006439Y006522D01*
X006463Y006597D01*
X006464Y006608D01*
X006542Y006421D01*
X006687Y006276D01*
X006877Y006197D01*
X007082Y006197D01*
X007271Y006276D01*
X007416Y006421D01*
X007495Y006610D01*
X007495Y006815D01*
X007480Y006852D01*
X007492Y006853D01*
X007869Y006853D01*
X007869Y006612D01*
X007486Y006228D01*
X007377Y006228D01*
X007187Y006150D01*
X007042Y006005D01*
X006979Y005853D01*
X006916Y006005D01*
X006771Y006150D01*
X006582Y006228D01*
X006377Y006228D01*
X006187Y006150D01*
X006042Y006005D01*
X005979Y005853D01*
X005916Y006005D01*
X005771Y006150D01*
X005582Y006228D01*
X005377Y006228D01*
X005187Y006150D01*
X005110Y006073D01*
X001878Y006073D01*
X001089Y006862D01*
X001089Y014063D01*
X001119Y014094D01*
X001119Y014091D01*
X001212Y013867D01*
X001367Y013713D01*
X001212Y013558D01*
X001119Y013334D01*
X001119Y013091D01*
X001212Y012867D01*
X001367Y012713D01*
X001212Y012558D01*
X001119Y012334D01*
X001119Y012091D01*
X001212Y011867D01*
X001367Y011713D01*
X001212Y011558D01*
X001119Y011334D01*
X001119Y011091D01*
X001212Y010867D01*
X001367Y010713D01*
X001212Y010558D01*
X001119Y010334D01*
X001119Y010091D01*
X001212Y009867D01*
X001367Y009713D01*
X001212Y009558D01*
X001119Y009334D01*
X001119Y009091D01*
X001212Y008867D01*
X001367Y008713D01*
X001212Y008558D01*
X001119Y008334D01*
X001119Y008091D01*
X001212Y007867D01*
X001367Y007713D01*
X001212Y007558D01*
X001119Y007334D01*
X001119Y007091D01*
X001212Y006867D01*
X001384Y006695D01*
X001608Y006603D01*
X001851Y006603D01*
X002075Y006695D01*
X002246Y006867D01*
X002249Y006874D01*
X002249Y006514D01*
X002530Y006233D01*
X002928Y006233D01*
X003209Y006514D01*
X003209Y006911D01*
X003089Y007031D01*
X003089Y008064D01*
X003758Y008733D01*
X003928Y008733D01*
X004209Y009014D01*
X004209Y009411D01*
X003928Y009693D01*
X003530Y009693D01*
X003249Y009411D01*
X003249Y009242D01*
X002525Y008518D01*
X002424Y008416D01*
X002369Y008284D01*
X002369Y007031D01*
X002276Y006938D01*
X002339Y007091D01*
X002339Y007334D01*
X002246Y007558D01*
X002092Y007713D01*
X002246Y007867D01*
X002339Y008091D01*
X002339Y008334D01*
X002246Y008558D01*
X002092Y008713D01*
X002246Y008867D01*
X002339Y009091D01*
X002339Y009313D01*
X002878Y009853D01*
X003410Y009853D01*
X003530Y009733D01*
X003928Y009733D01*
X004209Y010014D01*
X004209Y010411D01*
X003928Y010693D01*
X003530Y010693D01*
X003410Y010573D01*
X002801Y010573D01*
X002658Y010573D01*
X002525Y010518D01*
X002339Y010332D01*
X002339Y010334D01*
X002246Y010558D01*
X002092Y010713D01*
X002246Y010867D01*
X002339Y011091D01*
X002339Y011313D01*
X003878Y012853D01*
X006658Y012853D01*
X006801Y012853D01*
X006902Y012895D01*
X006580Y012573D01*
X006298Y012573D01*
X006178Y012693D01*
X005780Y012693D01*
X005499Y012411D01*
X005499Y012014D01*
X005780Y011733D01*
X006178Y011733D01*
X006298Y011853D01*
X006661Y011853D01*
X006780Y011733D01*
X007178Y011733D01*
X007459Y012014D01*
X007459Y012411D01*
X007448Y012422D01*
X007628Y012603D01*
X007851Y012603D01*
X008075Y012695D01*
X008232Y012853D01*
X008619Y012853D01*
X008619Y012531D01*
X008499Y012411D01*
X008499Y012014D01*
X008780Y011733D01*
X009178Y011733D01*
X009298Y011853D01*
X009477Y011853D01*
X009634Y011695D01*
X009858Y011603D01*
X010101Y011603D01*
X010325Y011695D01*
X010482Y011853D01*
X010908Y011853D01*
X011051Y011853D01*
X011183Y011907D01*
X011284Y012009D01*
X011339Y012141D01*
X011339Y015717D01*
X011342Y015720D01*
X011407Y015877D01*
X011407Y016048D01*
X011342Y016205D01*
X011222Y016326D01*
X011064Y016391D01*
X010894Y016391D01*
X010737Y016326D01*
X010616Y016205D01*
X010551Y016048D01*
X010551Y015877D01*
X010616Y015720D01*
X010619Y015717D01*
X010619Y012573D01*
X010482Y012573D01*
X010325Y012730D01*
X010101Y012823D01*
X009858Y012823D01*
X009634Y012730D01*
X009477Y012573D01*
X009339Y012573D01*
X009339Y013284D01*
X009284Y013416D01*
X009183Y013518D01*
X009051Y013573D01*
X008908Y013573D01*
X008232Y013573D01*
X008075Y013730D01*
X008066Y013733D01*
X008241Y013806D01*
X008376Y013941D01*
X008449Y014117D01*
X008449Y014308D01*
X008376Y014484D01*
X008241Y014619D01*
X008065Y014693D01*
X007394Y014693D01*
X007217Y014619D01*
X007082Y014484D01*
X007009Y014308D01*
X007009Y014117D01*
X007043Y014035D01*
X006580Y013573D01*
X003658Y013573D01*
X003525Y013518D01*
X003424Y013416D01*
X002339Y012332D01*
X002339Y012334D01*
X002246Y012558D01*
X002092Y012713D01*
X002246Y012867D01*
X002339Y013091D01*
X002339Y013334D01*
X002246Y013558D01*
X002092Y013713D01*
X002246Y013867D01*
X002339Y014091D01*
X002339Y014334D01*
X002246Y014558D01*
X002202Y014603D01*
X002408Y014603D01*
X002551Y014603D01*
X002683Y014657D01*
X003878Y015853D01*
X004170Y015853D01*
X004217Y015806D01*
X004394Y015733D01*
X005065Y015733D01*
X005241Y015806D01*
X005369Y015934D01*
X005369Y015491D01*
X005241Y015619D01*
X005065Y015693D01*
X004394Y015693D01*
X004217Y015619D01*
X004082Y015484D01*
X004009Y015308D01*
X004009Y015117D01*
X004082Y014941D01*
X004217Y014806D01*
X004394Y014733D01*
X005065Y014733D01*
X005241Y014806D01*
X005369Y014934D01*
X005369Y014784D01*
X005369Y014641D01*
X005424Y014509D01*
X005801Y014132D01*
X005801Y014127D01*
X005866Y013970D01*
X005987Y013850D01*
X006144Y013784D01*
X006314Y013784D01*
X006472Y013850D01*
X006592Y013970D01*
X006657Y014127D01*
X006657Y014298D01*
X006592Y014455D01*
X006472Y014576D01*
X006314Y014641D01*
X006310Y014641D01*
X006089Y014862D01*
X006089Y019284D01*
X006034Y019416D01*
X005933Y019518D01*
X005801Y019573D01*
X005658Y019573D01*
X005288Y019573D01*
X005241Y019619D01*
X005065Y019693D01*
X004394Y019693D01*
X004217Y019619D01*
X004082Y019484D01*
X004009Y019308D01*
X004009Y019117D01*
X004082Y018941D01*
X004217Y018806D01*
X004394Y018733D01*
X005065Y018733D01*
X005241Y018806D01*
X005288Y018853D01*
X005369Y018853D01*
X005369Y018441D01*
X005363Y018454D01*
X005320Y018512D01*
X005269Y018563D01*
X005210Y018606D01*
X005146Y018639D01*
X005077Y018661D01*
X005005Y018673D01*
X004729Y018673D01*
X004453Y018673D01*
X004382Y018661D01*
X004313Y018639D01*
X004248Y018606D01*
X004190Y018563D01*
X004138Y018512D01*
X004096Y018454D01*
X004063Y018389D01*
X004041Y018320D01*
X004029Y018249D01*
X004029Y018213D01*
X004729Y018213D01*
X004729Y018673D01*
X004729Y018213D01*
X004729Y018213D01*
X004729Y018212D01*
X004729Y018212D01*
X004729Y017753D01*
X004453Y017753D01*
X004382Y017764D01*
X004313Y017786D01*
X004248Y017819D01*
X004190Y017862D01*
X004138Y017913D01*
X004096Y017971D01*
X004063Y018036D01*
X004041Y018105D01*
X004029Y018176D01*
X004029Y018212D01*
X004729Y018212D01*
X004729Y017753D01*
X005005Y017753D01*
X005077Y017764D01*
X005146Y017786D01*
X005210Y017819D01*
X005269Y017862D01*
X005320Y017913D01*
X005363Y017971D01*
X005369Y017985D01*
X005369Y017441D01*
X005363Y017454D01*
X005320Y017512D01*
X005269Y017563D01*
X005210Y017606D01*
X005146Y017639D01*
X005077Y017661D01*
X005005Y017673D01*
X004729Y017673D01*
X004453Y017673D01*
X004382Y017661D01*
X004313Y017639D01*
X004248Y017606D01*
X004190Y017563D01*
X004138Y017512D01*
X004096Y017454D01*
X004063Y017389D01*
X004041Y017320D01*
X004029Y017249D01*
X004029Y017213D01*
X004729Y017213D01*
X004729Y017673D01*
X004729Y017213D01*
X004729Y017213D01*
X004729Y017212D01*
X004729Y017212D01*
X004729Y016753D01*
X004453Y016753D01*
X004382Y016764D01*
X004313Y016786D01*
X004248Y016819D01*
X004190Y016862D01*
X004138Y016913D01*
X004096Y016971D01*
X004063Y017036D01*
X004041Y017105D01*
X004029Y017176D01*
X004029Y017212D01*
X004729Y017212D01*
X004729Y016753D01*
X005005Y016753D01*
X005077Y016764D01*
X005146Y016786D01*
X005210Y016819D01*
X005269Y016862D01*
X005320Y016913D01*
X005363Y016971D01*
X005369Y016984D01*
X005369Y016491D01*
X005241Y016619D01*
X005065Y016693D01*
X004394Y016693D01*
X004217Y016619D01*
X004170Y016573D01*
X003658Y016573D01*
X003525Y016518D01*
X003424Y016416D01*
X002330Y015323D01*
X002202Y015323D01*
X002246Y015367D01*
X002339Y015591D01*
X002339Y015813D01*
X003433Y016907D01*
X003534Y017009D01*
X003589Y017141D01*
X003589Y019563D01*
X003878Y019853D01*
X004170Y019853D01*
X004217Y019806D01*
X004394Y019733D01*
X005065Y019733D01*
X005241Y019806D01*
X005376Y019941D01*
X005449Y020117D01*
X005449Y020308D01*
X005376Y020484D01*
X005241Y020619D01*
X005065Y020693D01*
X004394Y020693D01*
X004217Y020619D01*
X004170Y020573D01*
X003658Y020573D01*
X003556Y020531D01*
X003878Y020853D01*
X004170Y020853D01*
X004217Y020806D01*
X004394Y020733D01*
X005065Y020733D01*
X005241Y020806D01*
X005376Y020941D01*
X005449Y021117D01*
X005449Y021308D01*
X005376Y021484D01*
X005241Y021619D01*
X005065Y021693D01*
X004394Y021693D01*
X004217Y021619D01*
X004170Y021573D01*
X003658Y021573D01*
X003525Y021518D01*
X003424Y021416D01*
X002424Y020416D01*
X002369Y020284D01*
X002369Y020141D01*
X002369Y017862D01*
X002339Y017832D01*
X002339Y017834D01*
X002246Y018058D01*
X002092Y018213D01*
X002246Y018367D01*
X002339Y018591D01*
X002339Y018834D01*
X002246Y019058D01*
X002092Y019213D01*
X002246Y019367D01*
X002339Y019591D01*
X002339Y019834D01*
X002246Y020058D01*
X002092Y020213D01*
X002246Y020367D01*
X002339Y020591D01*
X002339Y020834D01*
X002246Y021058D01*
X002092Y021213D01*
X002246Y021367D01*
X002339Y021591D01*
X002339Y021834D01*
X002246Y022058D01*
X002092Y022213D01*
X002246Y022367D01*
X002339Y022591D01*
X002339Y022834D01*
X002246Y023058D01*
X002075Y023230D01*
X001851Y023323D01*
X001608Y023323D01*
X001384Y023230D01*
X001212Y023058D01*
X001119Y022834D01*
X001119Y022591D01*
X001212Y022367D01*
X001367Y022213D01*
X001212Y022058D01*
X001119Y021834D01*
X001119Y021591D01*
X001212Y021367D01*
X001367Y021213D01*
X001212Y021058D01*
X001119Y020834D01*
X001119Y020591D01*
X001212Y020367D01*
X001367Y020213D01*
X001212Y020058D01*
X001119Y019834D01*
X001119Y019591D01*
X001212Y019367D01*
X001367Y019213D01*
X001212Y019058D01*
X001119Y018834D01*
X001119Y018591D01*
X001212Y018367D01*
X001367Y018213D01*
X001212Y018058D01*
X001119Y017834D01*
X001119Y017591D01*
X001212Y017367D01*
X001367Y017213D01*
X001212Y017058D01*
X001119Y016834D01*
X001119Y016591D01*
X001212Y016367D01*
X001367Y016213D01*
X001212Y016058D01*
X001119Y015834D01*
X001119Y015591D01*
X001212Y015367D01*
X001301Y015278D01*
X001275Y015268D01*
X001174Y015166D01*
X000499Y014492D01*
X000499Y022631D01*
X001374Y023943D01*
X005686Y023943D01*
X005695Y023939D01*
X005739Y023943D01*
X005783Y023943D01*
X005792Y023946D01*
X005802Y023947D01*
X005842Y023967D01*
X005882Y023984D01*
X005889Y023991D01*
X006793Y024443D01*
X011007Y024443D01*
X010940Y024415D01*
X010797Y024271D01*
X010719Y024084D01*
X010719Y024073D01*
X009369Y024073D01*
X009369Y024160D01*
X009333Y024249D01*
X009265Y024316D01*
X009177Y024353D01*
X008282Y024353D01*
X008193Y024316D01*
X008126Y024249D01*
X008089Y024160D01*
X008089Y023265D01*
X008126Y023177D01*
X008193Y023109D01*
X008282Y023073D01*
X009177Y023073D01*
X009265Y023109D01*
X009333Y023177D01*
X009369Y023265D01*
X009369Y023353D01*
X010719Y023353D01*
X010719Y023341D01*
X010797Y023154D01*
X010940Y023010D01*
X011128Y022933D01*
X011331Y022933D01*
X011518Y023010D01*
X011662Y023154D01*
X011729Y023317D01*
X011797Y023154D01*
X011940Y023010D01*
X012128Y022933D01*
X012331Y022933D01*
X012518Y023010D01*
X012662Y023154D01*
X012739Y023341D01*
X012739Y023353D01*
X017080Y023353D01*
X017674Y022758D01*
X017674Y022602D01*
X017759Y022398D01*
X017915Y022242D01*
X018119Y022158D01*
X018275Y022158D01*
X018369Y022063D01*
X018369Y022031D01*
X018249Y021911D01*
X018249Y021514D01*
X018530Y021233D01*
X018700Y021233D01*
X018869Y021063D01*
X018869Y018193D01*
X018530Y018193D01*
X018249Y017911D01*
X018249Y017514D01*
X018369Y017394D01*
X018369Y016531D01*
X018249Y016411D01*
X018249Y016014D01*
X018530Y015733D01*
X018928Y015733D01*
X019209Y016014D01*
X019209Y016411D01*
X019089Y016531D01*
X019089Y016844D01*
X020119Y015813D01*
X020119Y015591D01*
X020212Y015367D01*
X020384Y015195D01*
X020388Y015194D01*
X020345Y015163D01*
X020279Y015097D01*
X020225Y015022D01*
X020183Y014939D01*
X020154Y014851D01*
X020139Y014759D01*
X020139Y014713D01*
X020729Y014713D01*
X020729Y014712D01*
X020729Y014712D01*
X020729Y014123D01*
X020729Y013713D01*
X020729Y013713D01*
X020729Y013712D01*
X020139Y013712D01*
X020139Y013666D01*
X020154Y013574D01*
X020183Y013486D01*
X020225Y013403D01*
X020279Y013328D01*
X020345Y013263D01*
X020388Y013231D01*
X020384Y013230D01*
X020212Y013058D01*
X020119Y012834D01*
X020119Y012591D01*
X020212Y012367D01*
X020367Y012213D01*
X020212Y012058D01*
X020119Y011834D01*
X020119Y011591D01*
X020212Y011367D01*
X020367Y011213D01*
X020212Y011058D01*
X020119Y010834D01*
X020119Y010591D01*
X020212Y010367D01*
X020384Y010195D01*
X020509Y010143D01*
X020509Y009995D01*
X020352Y009838D01*
X020259Y009614D01*
X020259Y009371D01*
X020352Y009147D01*
X020509Y008990D01*
X020509Y007435D01*
X020352Y007278D01*
X020259Y007054D01*
X020259Y006811D01*
X020352Y006587D01*
X020524Y006415D01*
X020748Y006323D01*
X020991Y006323D01*
X021215Y006415D01*
X021369Y006570D01*
X021369Y002862D01*
X020830Y002323D01*
X020608Y002323D01*
X020384Y002230D01*
X020212Y002058D01*
X020210Y002054D01*
X020179Y002097D01*
X020114Y002163D01*
X020039Y002217D01*
X019956Y002259D01*
X019867Y002288D01*
X019776Y002303D01*
X019729Y002303D01*
X019683Y002303D01*
X019591Y002288D01*
X019503Y002259D01*
X019420Y002217D01*
X019345Y002163D01*
X019279Y002097D01*
X019225Y002022D01*
X019183Y001939D01*
X019175Y001917D01*
X018920Y002173D01*
X018729Y002173D01*
X018539Y002173D01*
X018269Y001903D01*
X018269Y001713D01*
X018729Y001713D01*
X018729Y002173D01*
X018729Y001713D01*
X018729Y001713D01*
X018729Y001712D01*
X018729Y001712D01*
X018729Y001253D01*
X018539Y001253D01*
X018269Y001522D01*
X018269Y001712D01*
X018729Y001712D01*
X018729Y001253D01*
X018920Y001253D01*
X019175Y001508D01*
X019183Y001486D01*
X019225Y001403D01*
X019279Y001328D01*
X019345Y001263D01*
X019420Y001208D01*
X019503Y001166D01*
X019591Y001137D01*
X019683Y001123D01*
X019729Y001123D01*
X019729Y001712D01*
X019729Y001712D01*
X019189Y001712D01*
X018730Y001712D01*
X018730Y001713D01*
X019189Y001713D01*
X019729Y001713D01*
X019729Y002303D01*
X019729Y001713D01*
X019729Y001713D01*
X019729Y001712D01*
X019729Y001123D01*
X019776Y001123D01*
X019867Y001137D01*
X019956Y001166D01*
X020039Y001208D01*
X020114Y001263D01*
X020179Y001328D01*
X020210Y001371D01*
X020212Y001367D01*
X020384Y001195D01*
X020608Y001103D01*
X020738Y001103D01*
X020617Y000983D01*
X017573Y000983D01*
X017576Y000989D01*
X017576Y001097D01*
X017535Y001197D01*
X017458Y001274D01*
X017358Y001315D01*
X011100Y001315D01*
X011000Y001274D01*
X010924Y001197D01*
X010882Y001097D01*
X010882Y000989D01*
X010885Y000983D01*
X009573Y000983D01*
X009576Y000989D01*
X009576Y001097D01*
X009535Y001197D01*
X009458Y001274D01*
X009358Y001315D01*
X009539Y001253D02*
X009269Y001522D01*
X009269Y001712D01*
X009729Y001712D01*
X009729Y001712D01*
X009729Y001253D01*
X009539Y001253D01*
X009544Y001176D02*
X010915Y001176D01*
X010928Y001233D02*
X011209Y001514D01*
X011209Y001911D01*
X010928Y002193D01*
X010530Y002193D01*
X010249Y001911D01*
X010249Y001514D01*
X010530Y001233D01*
X010928Y001233D01*
X011110Y001415D02*
X017348Y001415D01*
X017249Y001653D02*
X011209Y001653D01*
X011209Y001892D02*
X017249Y001892D01*
X017369Y002130D02*
X010990Y002130D01*
X010468Y002130D02*
X009962Y002130D01*
X009920Y002173D02*
X009729Y002173D01*
X009539Y002173D01*
X009269Y001903D01*
X009269Y001713D01*
X009729Y001713D01*
X009729Y002173D01*
X009729Y001713D01*
X009729Y001713D01*
X009729Y001712D01*
X009729Y001253D01*
X009920Y001253D01*
X010189Y001522D01*
X010189Y001712D01*
X009730Y001712D01*
X009730Y001713D01*
X010189Y001713D01*
X010189Y001903D01*
X009920Y002173D01*
X009729Y002130D02*
X009729Y002130D01*
X009497Y002130D02*
X001003Y002130D01*
X001182Y001892D02*
X009269Y001892D01*
X009269Y001653D02*
X001361Y001653D01*
X001719Y001176D02*
X002915Y001176D01*
X003036Y002369D02*
X003888Y002369D01*
X004048Y002303D02*
X003714Y002441D01*
X003458Y002697D01*
X003319Y003032D01*
X003319Y003394D01*
X003458Y003728D01*
X003714Y003984D01*
X004048Y004123D01*
X004410Y004123D01*
X004745Y003984D01*
X005001Y003728D01*
X005139Y003394D01*
X005139Y003032D01*
X005001Y002697D01*
X004745Y002441D01*
X004410Y002303D01*
X004048Y002303D01*
X004570Y002369D02*
X007888Y002369D01*
X008048Y002303D02*
X007714Y002441D01*
X007458Y002697D01*
X007319Y003032D01*
X007319Y003394D01*
X007458Y003728D01*
X007714Y003984D01*
X008048Y004123D01*
X008410Y004123D01*
X008745Y003984D01*
X009001Y003728D01*
X009139Y003394D01*
X009139Y003032D01*
X009001Y002697D01*
X008745Y002441D01*
X008410Y002303D01*
X008048Y002303D01*
X008570Y002369D02*
X011888Y002369D01*
X012048Y002303D02*
X011714Y002441D01*
X011458Y002697D01*
X011319Y003032D01*
X011319Y003394D01*
X011458Y003728D01*
X011714Y003984D01*
X012048Y004123D01*
X012410Y004123D01*
X012745Y003984D01*
X013001Y003728D01*
X013139Y003394D01*
X013139Y003032D01*
X013001Y002697D01*
X012745Y002441D01*
X012410Y002303D01*
X012048Y002303D01*
X012570Y002369D02*
X015888Y002369D01*
X016048Y002303D02*
X016410Y002303D01*
X016745Y002441D01*
X017001Y002697D01*
X017139Y003032D01*
X017139Y003394D01*
X017001Y003728D01*
X016745Y003984D01*
X016410Y004123D01*
X016048Y004123D01*
X015714Y003984D01*
X015458Y003728D01*
X015319Y003394D01*
X015319Y003032D01*
X015458Y002697D01*
X015714Y002441D01*
X016048Y002303D01*
X015548Y002607D02*
X012911Y002607D01*
X013062Y002846D02*
X015396Y002846D01*
X015319Y003085D02*
X013139Y003085D01*
X013139Y003323D02*
X015319Y003323D01*
X015389Y003562D02*
X013070Y003562D01*
X012929Y003800D02*
X015530Y003800D01*
X015846Y004039D02*
X012613Y004039D01*
X011846Y004039D02*
X008613Y004039D01*
X008929Y003800D02*
X011530Y003800D01*
X011389Y003562D02*
X009070Y003562D01*
X009139Y003323D02*
X011319Y003323D01*
X011319Y003085D02*
X009139Y003085D01*
X009062Y002846D02*
X011396Y002846D01*
X011548Y002607D02*
X008911Y002607D01*
X009729Y001892D02*
X009729Y001892D01*
X009729Y001653D02*
X009729Y001653D01*
X009729Y001415D02*
X009729Y001415D01*
X010082Y001415D02*
X010348Y001415D01*
X010249Y001653D02*
X010189Y001653D01*
X010189Y001892D02*
X010249Y001892D01*
X011417Y004516D02*
X009042Y004516D01*
X009034Y004509D02*
X009034Y004509D01*
X009280Y004754D02*
X011178Y004754D01*
X010940Y004993D02*
X009519Y004993D01*
X009757Y005231D02*
X010701Y005231D01*
X010729Y005713D02*
X011729Y004713D01*
X013479Y004713D01*
X014479Y005713D01*
X014274Y006186D02*
X013685Y006186D01*
X013720Y006289D02*
X013789Y006253D01*
X013863Y006229D01*
X013940Y006217D01*
X013979Y006217D01*
X013979Y006712D01*
X013979Y006712D01*
X013979Y006217D01*
X014018Y006217D01*
X014095Y006229D01*
X014170Y006253D01*
X014239Y006289D01*
X014302Y006335D01*
X014357Y006390D01*
X014403Y006453D01*
X014439Y006522D01*
X014463Y006597D01*
X014464Y006608D01*
X014542Y006421D01*
X014687Y006276D01*
X014877Y006197D01*
X015082Y006197D01*
X015271Y006276D01*
X015416Y006421D01*
X015495Y006610D01*
X015495Y006815D01*
X015416Y007005D01*
X015271Y007150D01*
X015082Y007228D01*
X014973Y007228D01*
X014544Y007657D01*
X014434Y007988D01*
X014459Y008014D01*
X014459Y008411D01*
X014178Y008693D01*
X013780Y008693D01*
X013526Y008438D01*
X013526Y008439D01*
X013484Y008522D01*
X013429Y008597D01*
X013364Y008663D01*
X013289Y008717D01*
X013206Y008759D01*
X013117Y008788D01*
X013026Y008803D01*
X012979Y008803D01*
X012933Y008803D01*
X012841Y008788D01*
X012753Y008759D01*
X012670Y008717D01*
X012595Y008663D01*
X012529Y008597D01*
X012475Y008522D01*
X012433Y008439D01*
X012432Y008438D01*
X012339Y008531D01*
X012339Y008894D01*
X012459Y009014D01*
X012459Y009411D01*
X012178Y009693D01*
X011780Y009693D01*
X011499Y009411D01*
X011499Y009014D01*
X011619Y008894D01*
X011619Y008531D01*
X011499Y008411D01*
X011499Y008014D01*
X011510Y008003D01*
X010700Y007193D01*
X010530Y007193D01*
X010249Y006911D01*
X010249Y006514D01*
X010530Y006233D01*
X010928Y006233D01*
X011209Y006514D01*
X011209Y006684D01*
X012284Y007759D01*
X012339Y007891D01*
X012339Y007894D01*
X012432Y007987D01*
X012433Y007986D01*
X012475Y007903D01*
X012529Y007828D01*
X012595Y007763D01*
X012670Y007708D01*
X012753Y007666D01*
X012841Y007637D01*
X012933Y007623D01*
X012979Y007623D01*
X012979Y008212D01*
X012979Y008212D01*
X012979Y007623D01*
X013026Y007623D01*
X013117Y007637D01*
X013206Y007666D01*
X013289Y007708D01*
X013364Y007763D01*
X013429Y007828D01*
X013484Y007903D01*
X013526Y007986D01*
X013526Y007987D01*
X013749Y007764D01*
X013869Y007404D01*
X013869Y007391D01*
X013892Y007337D01*
X013910Y007281D01*
X013919Y007271D01*
X013924Y007259D01*
X013966Y007217D01*
X013973Y007208D01*
X013940Y007208D01*
X013863Y007196D01*
X013789Y007172D01*
X013720Y007136D01*
X013656Y007091D01*
X013601Y007035D01*
X013555Y006972D01*
X013520Y006903D01*
X013496Y006829D01*
X013494Y006817D01*
X013416Y007005D01*
X013271Y007150D01*
X013082Y007228D01*
X012877Y007228D01*
X012687Y007150D01*
X012542Y007005D01*
X012464Y006815D01*
X012464Y006610D01*
X012542Y006421D01*
X012687Y006276D01*
X012877Y006197D01*
X013082Y006197D01*
X013271Y006276D01*
X013416Y006421D01*
X013494Y006608D01*
X013496Y006597D01*
X013520Y006522D01*
X013555Y006453D01*
X013601Y006390D01*
X013656Y006335D01*
X013720Y006289D01*
X013576Y006424D02*
X013418Y006424D01*
X013274Y006186D02*
X010935Y006186D01*
X011120Y006424D02*
X012541Y006424D01*
X012464Y006663D02*
X011209Y006663D01*
X011427Y006901D02*
X012499Y006901D01*
X012677Y007140D02*
X011666Y007140D01*
X011904Y007378D02*
X013875Y007378D01*
X013798Y007617D02*
X012143Y007617D01*
X012324Y007855D02*
X012509Y007855D01*
X012979Y007855D02*
X012979Y007855D01*
X012979Y007713D02*
X012979Y008213D01*
X012979Y008803D01*
X012979Y008213D01*
X012979Y008213D01*
X012979Y008094D02*
X012979Y008094D01*
X012979Y008332D02*
X012979Y008332D01*
X012979Y008571D02*
X012979Y008571D01*
X012510Y008571D02*
X012339Y008571D01*
X012339Y008810D02*
X013732Y008810D01*
X013789Y008753D02*
X013979Y008753D01*
X013979Y009212D01*
X013979Y009212D01*
X013519Y009212D01*
X013519Y009022D01*
X013789Y008753D01*
X013979Y008753D02*
X014170Y008753D01*
X014439Y009022D01*
X014439Y009212D01*
X013980Y009212D01*
X013980Y009213D01*
X014439Y009213D01*
X014439Y009403D01*
X014220Y009623D01*
X014229Y009623D01*
X014229Y010212D01*
X014229Y010212D01*
X013639Y010212D01*
X013639Y010166D01*
X013654Y010074D01*
X013683Y009986D01*
X013725Y009903D01*
X013779Y009828D01*
X013845Y009763D01*
X013920Y009708D01*
X013990Y009673D01*
X013979Y009673D01*
X013789Y009673D01*
X013519Y009403D01*
X013519Y009213D01*
X013979Y009213D01*
X013979Y009673D01*
X013979Y009213D01*
X013979Y009213D01*
X013979Y009212D01*
X013979Y008753D01*
X013979Y008810D02*
X013979Y008810D01*
X013979Y009048D02*
X013979Y009048D01*
X013979Y009287D02*
X013979Y009287D01*
X013979Y009525D02*
X013979Y009525D01*
X014229Y009623D02*
X014276Y009623D01*
X014367Y009637D01*
X014456Y009666D01*
X014539Y009708D01*
X014614Y009763D01*
X014679Y009828D01*
X014734Y009903D01*
X014776Y009986D01*
X014805Y010074D01*
X014819Y010166D01*
X014819Y010212D01*
X014230Y010212D01*
X014230Y010213D01*
X014819Y010213D01*
X014819Y010259D01*
X014805Y010351D01*
X014776Y010439D01*
X014734Y010522D01*
X014679Y010597D01*
X014614Y010663D01*
X014571Y010694D01*
X014575Y010695D01*
X014746Y010867D01*
X014839Y011091D01*
X014839Y011334D01*
X014746Y011558D01*
X014575Y011730D01*
X014351Y011823D01*
X014108Y011823D01*
X014065Y011805D01*
X013589Y012186D01*
X013589Y012334D01*
X013496Y012558D01*
X013339Y012715D01*
X013339Y014813D01*
X013378Y014853D01*
X014727Y014853D01*
X014884Y014695D01*
X015108Y014603D01*
X015351Y014603D01*
X015575Y014695D01*
X015746Y014867D01*
X015839Y015091D01*
X015839Y015334D01*
X015746Y015558D01*
X015575Y015730D01*
X015351Y015823D01*
X015108Y015823D01*
X014884Y015730D01*
X014727Y015573D01*
X013589Y015573D01*
X013589Y016243D01*
X013741Y016306D01*
X013876Y016441D01*
X013949Y016617D01*
X013949Y016808D01*
X013876Y016984D01*
X013741Y017119D01*
X013565Y017193D01*
X012894Y017193D01*
X012717Y017119D01*
X012589Y016991D01*
X012589Y017434D01*
X012717Y017306D01*
X012894Y017233D01*
X013565Y017233D01*
X013741Y017306D01*
X013876Y017441D01*
X013949Y017617D01*
X013949Y017808D01*
X013876Y017984D01*
X013741Y018119D01*
X013565Y018193D01*
X012894Y018193D01*
X012717Y018119D01*
X012589Y017991D01*
X012589Y018434D01*
X012717Y018306D01*
X012894Y018233D01*
X013565Y018233D01*
X013741Y018306D01*
X013876Y018441D01*
X013949Y018617D01*
X013949Y018808D01*
X013876Y018984D01*
X013741Y019119D01*
X013565Y019193D01*
X012894Y019193D01*
X012717Y019119D01*
X012589Y018991D01*
X012589Y019063D01*
X012798Y019272D01*
X012894Y019233D01*
X013565Y019233D01*
X013741Y019306D01*
X013876Y019441D01*
X013949Y019617D01*
X013949Y019808D01*
X013876Y019984D01*
X013741Y020119D01*
X013565Y020193D01*
X012894Y020193D01*
X012717Y020119D01*
X012670Y020073D01*
X012658Y020073D01*
X012525Y020018D01*
X012424Y019916D01*
X011924Y019416D01*
X011869Y019284D01*
X011869Y019141D01*
X011869Y015715D01*
X011712Y015558D01*
X011619Y015334D01*
X011619Y015091D01*
X011712Y014867D01*
X011869Y014710D01*
X011869Y011891D01*
X011924Y011759D01*
X012025Y011657D01*
X012369Y011314D01*
X012369Y011091D01*
X012462Y010867D01*
X012634Y010695D01*
X012858Y010603D01*
X013101Y010603D01*
X013325Y010695D01*
X013496Y010867D01*
X013589Y011091D01*
X013589Y011264D01*
X013619Y011240D01*
X013619Y011091D01*
X013712Y010867D01*
X013884Y010695D01*
X013888Y010694D01*
X013845Y010663D01*
X013779Y010597D01*
X013725Y010522D01*
X013683Y010439D01*
X013654Y010351D01*
X013639Y010259D01*
X013639Y010213D01*
X014229Y010213D01*
X014229Y010212D01*
X014229Y009623D01*
X014317Y009525D02*
X015869Y009525D01*
X015869Y009287D02*
X014439Y009287D01*
X014439Y009048D02*
X015869Y009048D01*
X015869Y008810D02*
X014227Y008810D01*
X014300Y008571D02*
X015869Y008571D01*
X015869Y008332D02*
X014459Y008332D01*
X014459Y008094D02*
X015869Y008094D01*
X015869Y007855D02*
X014478Y007855D01*
X014584Y007617D02*
X015869Y007617D01*
X015869Y007378D02*
X014823Y007378D01*
X015281Y007140D02*
X015870Y007140D01*
X015869Y007141D02*
X015924Y007009D01*
X016025Y006907D01*
X017249Y005683D01*
X017249Y005514D01*
X017530Y005233D01*
X017928Y005233D01*
X018048Y005353D01*
X018410Y005353D01*
X018530Y005233D01*
X018700Y005233D01*
X019119Y004814D01*
X019119Y004591D01*
X019212Y004367D01*
X019384Y004195D01*
X019608Y004103D01*
X019851Y004103D01*
X020075Y004195D01*
X020229Y004350D01*
X020384Y004195D01*
X020608Y004103D01*
X020851Y004103D01*
X021075Y004195D01*
X021246Y004367D01*
X021339Y004591D01*
X021339Y004834D01*
X021246Y005058D01*
X021089Y005215D01*
X021089Y005394D01*
X021209Y005514D01*
X021209Y005911D01*
X020928Y006193D01*
X020530Y006193D01*
X020249Y005911D01*
X020249Y005514D01*
X020369Y005394D01*
X020369Y005215D01*
X020229Y005075D01*
X020075Y005230D01*
X019949Y005282D01*
X020189Y005522D01*
X020189Y005712D01*
X019730Y005712D01*
X019730Y005713D01*
X020189Y005713D01*
X020189Y005903D01*
X019920Y006173D01*
X019729Y006173D01*
X019539Y006173D01*
X019269Y005903D01*
X019269Y005713D01*
X019729Y005713D01*
X019729Y006173D01*
X019729Y005713D01*
X019729Y005713D01*
X019729Y005712D01*
X019269Y005712D01*
X019269Y005682D01*
X019209Y005742D01*
X019209Y005911D01*
X018928Y006193D01*
X018530Y006193D01*
X018410Y006073D01*
X018048Y006073D01*
X017928Y006193D01*
X017758Y006193D01*
X016589Y007362D01*
X016589Y016243D01*
X016741Y016306D01*
X016869Y016434D01*
X016869Y011715D01*
X016712Y011558D01*
X016619Y011334D01*
X016619Y011091D01*
X016712Y010867D01*
X016867Y010713D01*
X016712Y010558D01*
X016619Y010334D01*
X016619Y010091D01*
X016712Y009867D01*
X016884Y009695D01*
X017108Y009603D01*
X017237Y009603D01*
X017499Y009253D01*
X017499Y009014D01*
X017619Y008894D01*
X017619Y008531D01*
X017499Y008411D01*
X017499Y008014D01*
X017780Y007733D01*
X018178Y007733D01*
X018459Y008014D01*
X018459Y008411D01*
X018339Y008531D01*
X018339Y008894D01*
X018459Y009014D01*
X018459Y009411D01*
X018178Y009693D01*
X018069Y009693D01*
X017815Y010032D01*
X017839Y010091D01*
X017839Y010334D01*
X017746Y010558D01*
X017592Y010713D01*
X017746Y010867D01*
X017839Y011091D01*
X017839Y011334D01*
X017746Y011558D01*
X017589Y011715D01*
X017589Y015753D01*
X017729Y015753D01*
X017729Y016212D01*
X017729Y016212D01*
X017729Y015753D01*
X017920Y015753D01*
X018189Y016022D01*
X018189Y016212D01*
X017730Y016212D01*
X017730Y016213D01*
X018189Y016213D01*
X018189Y016403D01*
X017920Y016673D01*
X017729Y016673D01*
X017589Y016673D01*
X017589Y018563D01*
X017784Y018759D01*
X017839Y018891D01*
X017839Y019034D01*
X017839Y019894D01*
X017959Y020014D01*
X017959Y020411D01*
X017678Y020693D01*
X017280Y020693D01*
X016999Y020411D01*
X016999Y020014D01*
X017119Y019894D01*
X017119Y019112D01*
X017080Y019073D01*
X016788Y019073D01*
X016741Y019119D01*
X016565Y019193D01*
X015894Y019193D01*
X015717Y019119D01*
X015582Y018984D01*
X015509Y018808D01*
X015509Y018617D01*
X015582Y018441D01*
X015717Y018306D01*
X015894Y018233D01*
X016565Y018233D01*
X016741Y018306D01*
X016788Y018353D01*
X016869Y018353D01*
X016869Y017991D01*
X016741Y018119D01*
X016565Y018193D01*
X015894Y018193D01*
X015717Y018119D01*
X015582Y017984D01*
X015509Y017808D01*
X015509Y017617D01*
X015582Y017441D01*
X015717Y017306D01*
X015894Y017233D01*
X016565Y017233D01*
X016741Y017306D01*
X016869Y017434D01*
X016869Y016991D01*
X016741Y017119D01*
X016565Y017193D01*
X015894Y017193D01*
X015717Y017119D01*
X015582Y016984D01*
X015509Y016808D01*
X015509Y016617D01*
X015582Y016441D01*
X015717Y016306D01*
X015869Y016243D01*
X015869Y007141D01*
X016032Y006901D02*
X015459Y006901D01*
X015495Y006663D02*
X016270Y006663D01*
X016509Y006424D02*
X015418Y006424D01*
X015274Y006186D02*
X014685Y006186D01*
X014541Y006424D02*
X014382Y006424D01*
X013979Y006424D02*
X013979Y006424D01*
X013979Y006663D02*
X013979Y006663D01*
X013979Y006713D02*
X012979Y007713D01*
X013449Y007855D02*
X013658Y007855D01*
X013979Y008213D02*
X014229Y007463D01*
X014979Y006713D01*
X014940Y005947D02*
X015018Y005947D01*
X015022Y005470D02*
X014937Y005470D01*
X014665Y005231D02*
X015294Y005231D01*
X015665Y005231D02*
X016201Y005231D01*
X016440Y004993D02*
X014269Y004993D01*
X014030Y004754D02*
X016678Y004754D01*
X016917Y004516D02*
X013792Y004516D01*
X013294Y005231D02*
X011720Y005231D01*
X011481Y005470D02*
X013022Y005470D01*
X012964Y005709D02*
X011242Y005709D01*
X011174Y005947D02*
X013018Y005947D01*
X013940Y005947D02*
X014018Y005947D01*
X013519Y006901D02*
X013459Y006901D01*
X013281Y007140D02*
X013726Y007140D01*
X013659Y008571D02*
X013448Y008571D01*
X013519Y009048D02*
X012459Y009048D01*
X012459Y009287D02*
X013519Y009287D01*
X013641Y009525D02*
X012345Y009525D01*
X011979Y009213D02*
X011979Y008213D01*
X011979Y007963D01*
X010729Y006713D01*
X010339Y006424D02*
X010091Y006424D01*
X010189Y006522D02*
X009920Y006253D01*
X009729Y006253D01*
X009729Y006712D01*
X009729Y006712D01*
X009269Y006712D01*
X009269Y006522D01*
X009539Y006253D01*
X009729Y006253D01*
X009729Y006712D01*
X009729Y006713D01*
X009729Y007173D01*
X009539Y007173D01*
X009269Y006903D01*
X009269Y006713D01*
X009729Y006713D01*
X009729Y006713D01*
X009729Y007173D01*
X009920Y007173D01*
X010189Y006903D01*
X010189Y006713D01*
X009730Y006713D01*
X009730Y006712D01*
X010189Y006712D01*
X010189Y006522D01*
X010189Y006663D02*
X010249Y006663D01*
X010249Y006901D02*
X010189Y006901D01*
X009953Y007140D02*
X010478Y007140D01*
X010886Y007378D02*
X008550Y007378D01*
X008589Y007140D02*
X009506Y007140D01*
X009729Y007140D02*
X009729Y007140D01*
X009729Y006901D02*
X009729Y006901D01*
X009729Y006663D02*
X009729Y006663D01*
X009729Y006424D02*
X009729Y006424D01*
X009524Y006186D02*
X008461Y006186D01*
X008589Y006424D02*
X009367Y006424D01*
X009269Y006663D02*
X008589Y006663D01*
X008589Y006901D02*
X009269Y006901D01*
X009935Y006186D02*
X010524Y006186D01*
X010729Y005713D02*
X009729Y005713D01*
X008729Y004713D01*
X007229Y004713D01*
X006479Y005463D01*
X006479Y005713D01*
X006274Y006186D02*
X005685Y006186D01*
X005576Y006424D02*
X005418Y006424D01*
X005274Y006186D02*
X001765Y006186D01*
X001527Y006424D02*
X002339Y006424D01*
X002249Y006663D02*
X001996Y006663D01*
X001463Y006663D02*
X001288Y006663D01*
X001198Y006901D02*
X001089Y006901D01*
X001089Y007140D02*
X001119Y007140D01*
X001138Y007378D02*
X001089Y007378D01*
X001089Y007617D02*
X001271Y007617D01*
X001224Y007855D02*
X001089Y007855D01*
X001089Y008094D02*
X001119Y008094D01*
X001119Y008332D02*
X001089Y008332D01*
X001089Y008571D02*
X001225Y008571D01*
X001270Y008810D02*
X001089Y008810D01*
X001089Y009048D02*
X001137Y009048D01*
X001119Y009287D02*
X001089Y009287D01*
X001089Y009525D02*
X001199Y009525D01*
X001089Y009764D02*
X001315Y009764D01*
X001156Y010002D02*
X001089Y010002D01*
X001089Y010241D02*
X001119Y010241D01*
X001089Y010479D02*
X001180Y010479D01*
X001089Y010718D02*
X001361Y010718D01*
X001175Y010956D02*
X001089Y010956D01*
X001089Y011195D02*
X001119Y011195D01*
X001089Y011434D02*
X001161Y011434D01*
X001089Y011672D02*
X001326Y011672D01*
X001194Y011911D02*
X001089Y011911D01*
X001089Y012149D02*
X001119Y012149D01*
X001089Y012388D02*
X001142Y012388D01*
X001089Y012626D02*
X001280Y012626D01*
X001214Y012865D02*
X001089Y012865D01*
X001089Y013103D02*
X001119Y013103D01*
X001123Y013342D02*
X001089Y013342D01*
X001089Y013580D02*
X001234Y013580D01*
X001260Y013819D02*
X001089Y013819D01*
X001089Y014058D02*
X001133Y014058D01*
X000729Y014213D02*
X001479Y014963D01*
X002479Y014963D01*
X003729Y016213D01*
X004729Y016213D01*
X004367Y016681D02*
X003207Y016681D01*
X002969Y016443D02*
X003451Y016443D01*
X003212Y016204D02*
X002730Y016204D01*
X002492Y015966D02*
X002973Y015966D01*
X002735Y015727D02*
X002339Y015727D01*
X002297Y015489D02*
X002496Y015489D01*
X003037Y015012D02*
X004053Y015012D01*
X004009Y015250D02*
X003276Y015250D01*
X003515Y015489D02*
X004087Y015489D01*
X003753Y015727D02*
X005369Y015727D01*
X006089Y015727D02*
X010613Y015727D01*
X010619Y015489D02*
X008372Y015489D01*
X008376Y015484D02*
X008241Y015619D01*
X008065Y015693D01*
X007394Y015693D01*
X007217Y015619D01*
X007082Y015484D01*
X007009Y015308D01*
X007009Y015117D01*
X007082Y014941D01*
X007217Y014806D01*
X007394Y014733D01*
X008065Y014733D01*
X008241Y014806D01*
X008376Y014941D01*
X008449Y015117D01*
X008449Y015308D01*
X008376Y015484D01*
X008449Y015250D02*
X010619Y015250D01*
X010619Y015012D02*
X008406Y015012D01*
X008163Y014773D02*
X010619Y014773D01*
X010619Y014535D02*
X008326Y014535D01*
X008449Y014296D02*
X010619Y014296D01*
X010619Y014058D02*
X008425Y014058D01*
X008254Y013819D02*
X010619Y013819D01*
X010619Y013580D02*
X008224Y013580D01*
X007729Y013213D02*
X008979Y013213D01*
X008979Y012213D01*
X009979Y012213D01*
X010979Y012213D01*
X010979Y015963D01*
X010616Y016204D02*
X008449Y016204D01*
X008449Y016117D02*
X008449Y016308D01*
X008376Y016484D01*
X008241Y016619D01*
X008065Y016693D01*
X007394Y016693D01*
X007217Y016619D01*
X007082Y016484D01*
X007009Y016308D01*
X007009Y016117D01*
X007082Y015941D01*
X007217Y015806D01*
X007394Y015733D01*
X008065Y015733D01*
X008241Y015806D01*
X008376Y015941D01*
X008449Y016117D01*
X008387Y015966D02*
X010551Y015966D01*
X010065Y016443D02*
X011869Y016443D01*
X011869Y016681D02*
X010157Y016681D01*
X010157Y016627D02*
X010157Y016798D01*
X010092Y016955D01*
X010089Y016958D01*
X010089Y018641D01*
X010089Y018784D01*
X010034Y018916D01*
X009433Y019518D01*
X009301Y019573D01*
X009158Y019573D01*
X008288Y019573D01*
X008241Y019619D01*
X008065Y019693D01*
X007394Y019693D01*
X007217Y019619D01*
X007082Y019484D01*
X007009Y019308D01*
X007009Y019117D01*
X007082Y018941D01*
X007217Y018806D01*
X007394Y018733D01*
X008065Y018733D01*
X008241Y018806D01*
X008288Y018853D01*
X009080Y018853D01*
X009369Y018563D01*
X009369Y016958D01*
X009366Y016955D01*
X009301Y016798D01*
X009301Y016627D01*
X009366Y016470D01*
X009487Y016350D01*
X009644Y016284D01*
X009814Y016284D01*
X009972Y016350D01*
X010092Y016470D01*
X010157Y016627D01*
X010107Y016920D02*
X011869Y016920D01*
X011869Y017159D02*
X010089Y017159D01*
X010089Y017397D02*
X011869Y017397D01*
X011869Y017636D02*
X010089Y017636D01*
X010089Y017874D02*
X011869Y017874D01*
X011869Y018113D02*
X010089Y018113D01*
X010089Y018351D02*
X011869Y018351D01*
X011869Y018590D02*
X010089Y018590D01*
X010071Y018828D02*
X011869Y018828D01*
X011869Y019067D02*
X009884Y019067D01*
X009645Y019305D02*
X011878Y019305D01*
X012052Y019544D02*
X009370Y019544D01*
X009229Y019213D02*
X009729Y018713D01*
X009729Y016713D01*
X009301Y016681D02*
X008091Y016681D01*
X008077Y016764D02*
X008146Y016786D01*
X008210Y016819D01*
X008269Y016862D01*
X008320Y016913D01*
X008363Y016971D01*
X008396Y017036D01*
X008418Y017105D01*
X008429Y017176D01*
X008429Y017212D01*
X007730Y017212D01*
X007730Y017213D01*
X008429Y017213D01*
X008429Y017249D01*
X008418Y017320D01*
X008396Y017389D01*
X008363Y017454D01*
X008320Y017512D01*
X008269Y017563D01*
X008210Y017606D01*
X008146Y017639D01*
X008077Y017661D01*
X008005Y017673D01*
X007729Y017673D01*
X007453Y017673D01*
X007382Y017661D01*
X007313Y017639D01*
X007248Y017606D01*
X007190Y017563D01*
X007138Y017512D01*
X007096Y017454D01*
X007063Y017389D01*
X007041Y017320D01*
X007029Y017249D01*
X007029Y017213D01*
X007729Y017213D01*
X007729Y017673D01*
X007729Y017213D01*
X007729Y017213D01*
X007729Y017212D01*
X007729Y017212D01*
X007729Y016753D01*
X007453Y016753D01*
X007382Y016764D01*
X007313Y016786D01*
X007248Y016819D01*
X007190Y016862D01*
X007138Y016913D01*
X007096Y016971D01*
X007063Y017036D01*
X007041Y017105D01*
X007029Y017176D01*
X007029Y017212D01*
X007729Y017212D01*
X007729Y016753D01*
X008005Y016753D01*
X008077Y016764D01*
X008325Y016920D02*
X009352Y016920D01*
X009369Y017159D02*
X008426Y017159D01*
X008392Y017397D02*
X009369Y017397D01*
X009369Y017636D02*
X008152Y017636D01*
X008077Y017764D02*
X008146Y017786D01*
X008210Y017819D01*
X008269Y017862D01*
X008320Y017913D01*
X008363Y017971D01*
X008396Y018036D01*
X008418Y018105D01*
X008429Y018176D01*
X008429Y018212D01*
X007730Y018212D01*
X007730Y018213D01*
X008429Y018213D01*
X008429Y018249D01*
X008418Y018320D01*
X008396Y018389D01*
X008363Y018454D01*
X008320Y018512D01*
X008269Y018563D01*
X008210Y018606D01*
X008146Y018639D01*
X008077Y018661D01*
X008005Y018673D01*
X007729Y018673D01*
X007453Y018673D01*
X007382Y018661D01*
X007313Y018639D01*
X007248Y018606D01*
X007190Y018563D01*
X007138Y018512D01*
X007096Y018454D01*
X007063Y018389D01*
X007041Y018320D01*
X007029Y018249D01*
X007029Y018213D01*
X007729Y018213D01*
X007729Y018673D01*
X007729Y018213D01*
X007729Y018213D01*
X007729Y018212D01*
X007729Y018212D01*
X007729Y017753D01*
X007453Y017753D01*
X007382Y017764D01*
X007313Y017786D01*
X007248Y017819D01*
X007190Y017862D01*
X007138Y017913D01*
X007096Y017971D01*
X007063Y018036D01*
X007041Y018105D01*
X007029Y018176D01*
X007029Y018212D01*
X007729Y018212D01*
X007729Y017753D01*
X008005Y017753D01*
X008077Y017764D01*
X008281Y017874D02*
X009369Y017874D01*
X009369Y018113D02*
X008419Y018113D01*
X008408Y018351D02*
X009369Y018351D01*
X009343Y018590D02*
X008233Y018590D01*
X008264Y018828D02*
X009104Y018828D01*
X009229Y019213D02*
X007729Y019213D01*
X007394Y019733D02*
X007217Y019806D01*
X007170Y019853D01*
X007158Y019853D01*
X007025Y019907D01*
X006924Y020009D01*
X004580Y022353D01*
X004475Y022353D01*
X004472Y022350D01*
X004314Y022284D01*
X004144Y022284D01*
X003987Y022350D01*
X003866Y022470D01*
X003801Y022627D01*
X003801Y022798D01*
X003866Y022955D01*
X003987Y023076D01*
X004144Y023141D01*
X004314Y023141D01*
X004472Y023076D01*
X004475Y023073D01*
X004658Y023073D01*
X004801Y023073D01*
X004933Y023018D01*
X007298Y020653D01*
X007394Y020693D01*
X008065Y020693D01*
X008241Y020619D01*
X008376Y020484D01*
X008449Y020308D01*
X008449Y020117D01*
X008376Y019941D01*
X008241Y019806D01*
X008065Y019733D01*
X007394Y019733D01*
X007273Y019783D02*
X005185Y019783D01*
X005409Y020021D02*
X006912Y020021D01*
X006673Y020260D02*
X005449Y020260D01*
X005362Y020498D02*
X006435Y020498D01*
X006196Y020737D02*
X005075Y020737D01*
X005391Y020975D02*
X005957Y020975D01*
X005719Y021214D02*
X005449Y021214D01*
X005480Y021452D02*
X005389Y021452D01*
X005242Y021691D02*
X005069Y021691D01*
X005003Y021929D02*
X002300Y021929D01*
X002339Y021691D02*
X004390Y021691D01*
X004729Y021213D02*
X003729Y021213D01*
X002729Y020213D01*
X002729Y017713D01*
X001729Y016713D01*
X001313Y017159D02*
X000499Y017159D01*
X000499Y017397D02*
X001200Y017397D01*
X001119Y017636D02*
X000499Y017636D01*
X000499Y017874D02*
X001136Y017874D01*
X001267Y018113D02*
X000499Y018113D01*
X000499Y018351D02*
X001228Y018351D01*
X001120Y018590D02*
X000499Y018590D01*
X000499Y018828D02*
X001119Y018828D01*
X001221Y019067D02*
X000499Y019067D01*
X000499Y019305D02*
X001274Y019305D01*
X001139Y019544D02*
X000499Y019544D01*
X000499Y019783D02*
X001119Y019783D01*
X001197Y020021D02*
X000499Y020021D01*
X000499Y020260D02*
X001320Y020260D01*
X001158Y020498D02*
X000499Y020498D01*
X000499Y020737D02*
X001119Y020737D01*
X001178Y020975D02*
X000499Y020975D01*
X000499Y021214D02*
X001365Y021214D01*
X001177Y021452D02*
X000499Y021452D01*
X000499Y021691D02*
X001119Y021691D01*
X001159Y021929D02*
X000499Y021929D01*
X000499Y022168D02*
X001322Y022168D01*
X001196Y022407D02*
X000499Y022407D01*
X000509Y022645D02*
X001119Y022645D01*
X001140Y022884D02*
X000668Y022884D01*
X000827Y023122D02*
X001276Y023122D01*
X000986Y023361D02*
X006250Y023361D01*
X006231Y023388D02*
X006288Y023309D01*
X006357Y023240D01*
X006436Y023182D01*
X006523Y023138D01*
X006616Y023108D01*
X006712Y023093D01*
X006753Y023093D01*
X006753Y023704D01*
X006769Y023704D01*
X006769Y023093D01*
X006810Y023093D01*
X006906Y023108D01*
X006999Y023138D01*
X007086Y023182D01*
X007165Y023240D01*
X007234Y023309D01*
X007291Y023388D01*
X007335Y023475D01*
X007365Y023567D01*
X007381Y023664D01*
X007381Y023705D01*
X006769Y023705D01*
X006769Y023721D01*
X006753Y023721D01*
X006753Y024333D01*
X006712Y024333D01*
X006616Y024317D01*
X006523Y024287D01*
X006436Y024243D01*
X006357Y024185D01*
X006288Y024116D01*
X006231Y024038D01*
X006186Y023951D01*
X006156Y023858D01*
X006141Y023761D01*
X006141Y023721D01*
X006753Y023721D01*
X006753Y023705D01*
X006141Y023705D01*
X006141Y023664D01*
X006156Y023567D01*
X006186Y023475D01*
X006231Y023388D01*
X006151Y023599D02*
X001145Y023599D01*
X001304Y023838D02*
X006153Y023838D01*
X006060Y024076D02*
X006259Y024076D01*
X006538Y024315D02*
X006608Y024315D01*
X006753Y024315D02*
X006769Y024315D01*
X006769Y024333D02*
X006810Y024333D01*
X006906Y024317D01*
X006999Y024287D01*
X007086Y024243D01*
X007165Y024185D01*
X007234Y024116D01*
X007291Y024038D01*
X007335Y023951D01*
X007365Y023858D01*
X007381Y023761D01*
X007381Y023721D01*
X006769Y023721D01*
X006769Y024333D01*
X006913Y024315D02*
X008192Y024315D01*
X008089Y024076D02*
X007263Y024076D01*
X007369Y023838D02*
X008089Y023838D01*
X008089Y023599D02*
X007371Y023599D01*
X007271Y023361D02*
X008089Y023361D01*
X008180Y023122D02*
X006950Y023122D01*
X006769Y023122D02*
X006753Y023122D01*
X006572Y023122D02*
X004359Y023122D01*
X004099Y023122D02*
X002182Y023122D01*
X002319Y022884D02*
X003837Y022884D01*
X003801Y022645D02*
X002339Y022645D01*
X002263Y022407D02*
X003930Y022407D01*
X004229Y022713D02*
X004729Y022713D01*
X007229Y020213D01*
X007729Y020213D01*
X007394Y020733D02*
X007217Y020806D01*
X007082Y020941D01*
X007009Y021117D01*
X007009Y021308D01*
X007082Y021484D01*
X007217Y021619D01*
X007394Y021693D01*
X008065Y021693D01*
X008241Y021619D01*
X008376Y021484D01*
X008449Y021308D01*
X008449Y021117D01*
X008376Y020941D01*
X008241Y020806D01*
X008065Y020733D01*
X007394Y020733D01*
X007384Y020737D02*
X007214Y020737D01*
X007068Y020975D02*
X006976Y020975D01*
X007009Y021214D02*
X006737Y021214D01*
X006499Y021452D02*
X007069Y021452D01*
X007390Y021691D02*
X006260Y021691D01*
X006021Y021929D02*
X012560Y021929D01*
X012582Y021984D02*
X012509Y021808D01*
X012509Y021617D01*
X012582Y021441D01*
X012717Y021306D01*
X012894Y021233D01*
X013565Y021233D01*
X013741Y021306D01*
X013876Y021441D01*
X013949Y021617D01*
X013949Y021808D01*
X013876Y021984D01*
X013741Y022119D01*
X013565Y022193D01*
X012894Y022193D01*
X012717Y022119D01*
X012582Y021984D01*
X012509Y021691D02*
X008069Y021691D01*
X008389Y021452D02*
X012577Y021452D01*
X012717Y021119D02*
X012582Y020984D01*
X012509Y020808D01*
X012509Y020617D01*
X012582Y020441D01*
X012717Y020306D01*
X012894Y020233D01*
X013565Y020233D01*
X013741Y020306D01*
X013876Y020441D01*
X013949Y020617D01*
X013949Y020808D01*
X013876Y020984D01*
X013741Y021119D01*
X013565Y021193D01*
X012894Y021193D01*
X012717Y021119D01*
X012579Y020975D02*
X008391Y020975D01*
X008449Y021214D02*
X017019Y021214D01*
X017019Y021213D02*
X017479Y021213D01*
X017479Y021673D01*
X017289Y021673D01*
X017019Y021403D01*
X017019Y021213D01*
X017019Y021212D02*
X017019Y021022D01*
X017289Y020753D01*
X017479Y020753D01*
X017479Y021212D01*
X017479Y021212D01*
X017019Y021212D01*
X017066Y020975D02*
X016880Y020975D01*
X016876Y020984D02*
X016741Y021119D01*
X016565Y021193D01*
X015894Y021193D01*
X015717Y021119D01*
X015582Y020984D01*
X015509Y020808D01*
X015509Y020617D01*
X015582Y020441D01*
X015717Y020306D01*
X015894Y020233D01*
X016565Y020233D01*
X016741Y020306D01*
X016876Y020441D01*
X016949Y020617D01*
X016949Y020808D01*
X016876Y020984D01*
X016949Y020737D02*
X018869Y020737D01*
X018869Y020975D02*
X017892Y020975D01*
X017939Y021022D02*
X017670Y020753D01*
X017479Y020753D01*
X017479Y021212D01*
X017479Y021213D01*
X017479Y021213D01*
X017479Y021673D01*
X017670Y021673D01*
X017939Y021403D01*
X017939Y021213D01*
X017480Y021213D01*
X017480Y021212D01*
X017939Y021212D01*
X017939Y021022D01*
X017939Y021214D02*
X018719Y021214D01*
X018311Y021452D02*
X017890Y021452D01*
X017479Y021452D02*
X017479Y021452D01*
X017479Y021214D02*
X017479Y021214D01*
X017479Y020975D02*
X017479Y020975D01*
X017086Y020498D02*
X016900Y020498D01*
X016999Y020260D02*
X016630Y020260D01*
X016565Y020193D02*
X015894Y020193D01*
X015717Y020119D01*
X015582Y019984D01*
X015509Y019808D01*
X015509Y019617D01*
X015582Y019441D01*
X015717Y019306D01*
X015894Y019233D01*
X016565Y019233D01*
X016741Y019306D01*
X016876Y019441D01*
X016949Y019617D01*
X016949Y019808D01*
X016876Y019984D01*
X016741Y020119D01*
X016565Y020193D01*
X016840Y020021D02*
X016999Y020021D01*
X016949Y019783D02*
X017119Y019783D01*
X017119Y019544D02*
X016919Y019544D01*
X016741Y019305D02*
X017119Y019305D01*
X017479Y018963D02*
X017229Y018713D01*
X016229Y018713D01*
X015672Y018351D02*
X013787Y018351D01*
X013748Y018113D02*
X015711Y018113D01*
X015537Y017874D02*
X013922Y017874D01*
X013949Y017636D02*
X015509Y017636D01*
X015626Y017397D02*
X013833Y017397D01*
X013647Y017159D02*
X015812Y017159D01*
X015556Y016920D02*
X013903Y016920D01*
X013949Y016681D02*
X015509Y016681D01*
X015581Y016443D02*
X013877Y016443D01*
X013589Y016204D02*
X015869Y016204D01*
X015869Y015966D02*
X013589Y015966D01*
X013589Y015727D02*
X014881Y015727D01*
X015229Y015213D02*
X013229Y015213D01*
X012979Y014963D01*
X012979Y012213D01*
X014229Y011213D01*
X013619Y011195D02*
X013589Y011195D01*
X013533Y010956D02*
X013675Y010956D01*
X013861Y010718D02*
X013347Y010718D01*
X013703Y010479D02*
X008256Y010479D01*
X008276Y010439D02*
X008234Y010522D01*
X008179Y010597D01*
X008114Y010663D01*
X008039Y010717D01*
X007956Y010759D01*
X007867Y010788D01*
X007776Y010803D01*
X007729Y010803D01*
X007683Y010803D01*
X007591Y010788D01*
X007503Y010759D01*
X007420Y010717D01*
X007345Y010663D01*
X007279Y010597D01*
X007225Y010522D01*
X007183Y010439D01*
X007154Y010351D01*
X007139Y010259D01*
X007139Y010213D01*
X007729Y010213D01*
X007729Y010803D01*
X007729Y010213D01*
X007729Y010213D01*
X007729Y010212D01*
X007729Y010212D01*
X007729Y009623D01*
X007683Y009623D01*
X007591Y009637D01*
X007503Y009666D01*
X007420Y009708D01*
X007345Y009763D01*
X007279Y009828D01*
X007225Y009903D01*
X007183Y009986D01*
X007154Y010074D01*
X007139Y010166D01*
X007139Y010212D01*
X007729Y010212D01*
X007729Y009623D01*
X007739Y009623D01*
X007519Y009403D01*
X007519Y009213D01*
X007979Y009213D01*
X007979Y009673D01*
X007969Y009673D01*
X008039Y009708D01*
X008114Y009763D01*
X008179Y009828D01*
X008234Y009903D01*
X008276Y009986D01*
X008305Y010074D01*
X008319Y010166D01*
X008319Y010212D01*
X007730Y010212D01*
X007730Y010213D01*
X008319Y010213D01*
X008319Y010259D01*
X008305Y010351D01*
X008276Y010439D01*
X008319Y010241D02*
X013639Y010241D01*
X013677Y010002D02*
X008281Y010002D01*
X008115Y009764D02*
X013844Y009764D01*
X014229Y009764D02*
X014229Y009764D01*
X014229Y010002D02*
X014229Y010002D01*
X014615Y009764D02*
X015869Y009764D01*
X015869Y010002D02*
X014781Y010002D01*
X014819Y010241D02*
X015869Y010241D01*
X015869Y010479D02*
X014756Y010479D01*
X014597Y010718D02*
X015869Y010718D01*
X015869Y010956D02*
X014783Y010956D01*
X014839Y011195D02*
X015869Y011195D01*
X015869Y011434D02*
X014798Y011434D01*
X014632Y011672D02*
X015869Y011672D01*
X015869Y011911D02*
X013933Y011911D01*
X013635Y012149D02*
X015869Y012149D01*
X015869Y012388D02*
X013567Y012388D01*
X013428Y012626D02*
X015869Y012626D01*
X015869Y012865D02*
X013339Y012865D01*
X013339Y013103D02*
X015869Y013103D01*
X015869Y013342D02*
X013339Y013342D01*
X013339Y013580D02*
X015869Y013580D01*
X015869Y013819D02*
X013339Y013819D01*
X013339Y014058D02*
X015869Y014058D01*
X015869Y014296D02*
X013339Y014296D01*
X013339Y014535D02*
X015869Y014535D01*
X015869Y014773D02*
X015652Y014773D01*
X015806Y015012D02*
X015869Y015012D01*
X015869Y015250D02*
X015839Y015250D01*
X015869Y015489D02*
X015775Y015489D01*
X015869Y015727D02*
X015577Y015727D01*
X016229Y016713D02*
X016229Y007213D01*
X017729Y005713D01*
X018729Y005713D01*
X019729Y004713D01*
X020729Y004713D01*
X020729Y005713D01*
X020249Y005709D02*
X020189Y005709D01*
X020145Y005947D02*
X020285Y005947D01*
X020524Y006186D02*
X018935Y006186D01*
X018951Y006357D02*
X019043Y006343D01*
X019089Y006343D01*
X019089Y006932D01*
X019089Y006932D01*
X018499Y006932D01*
X018499Y006886D01*
X018514Y006794D01*
X018543Y006706D01*
X018585Y006623D01*
X018639Y006548D01*
X018705Y006483D01*
X018780Y006428D01*
X018863Y006386D01*
X018951Y006357D01*
X019089Y006343D02*
X019136Y006343D01*
X019227Y006357D01*
X019316Y006386D01*
X019399Y006428D01*
X019474Y006483D01*
X019539Y006548D01*
X019594Y006623D01*
X019636Y006706D01*
X019665Y006794D01*
X019679Y006886D01*
X019679Y006932D01*
X019090Y006932D01*
X019090Y006933D01*
X019679Y006933D01*
X019679Y006979D01*
X019665Y007071D01*
X019636Y007159D01*
X019594Y007242D01*
X019539Y007317D01*
X019474Y007383D01*
X019399Y007437D01*
X019316Y007479D01*
X019227Y007508D01*
X019136Y007523D01*
X019089Y007523D01*
X019043Y007523D01*
X018951Y007508D01*
X018863Y007479D01*
X018780Y007437D01*
X018705Y007383D01*
X018639Y007317D01*
X018585Y007242D01*
X018543Y007159D01*
X018514Y007071D01*
X018499Y006979D01*
X018499Y006933D01*
X019089Y006933D01*
X019089Y007523D01*
X019089Y006933D01*
X019089Y006933D01*
X019089Y006932D01*
X019089Y006343D01*
X019089Y006424D02*
X019089Y006424D01*
X019089Y006663D02*
X019089Y006663D01*
X019089Y006901D02*
X019089Y006901D01*
X019089Y007140D02*
X019089Y007140D01*
X019089Y007378D02*
X019089Y007378D01*
X019478Y007378D02*
X020452Y007378D01*
X020509Y007617D02*
X016589Y007617D01*
X016589Y007855D02*
X017658Y007855D01*
X017499Y008094D02*
X016589Y008094D01*
X016589Y008332D02*
X017499Y008332D01*
X017619Y008571D02*
X016589Y008571D01*
X016589Y008810D02*
X017619Y008810D01*
X017499Y009048D02*
X016589Y009048D01*
X016589Y009287D02*
X017474Y009287D01*
X017295Y009525D02*
X016589Y009525D01*
X016589Y009764D02*
X016815Y009764D01*
X016656Y010002D02*
X016589Y010002D01*
X016589Y010241D02*
X016619Y010241D01*
X016589Y010479D02*
X016680Y010479D01*
X016589Y010718D02*
X016861Y010718D01*
X016675Y010956D02*
X016589Y010956D01*
X016589Y011195D02*
X016619Y011195D01*
X016589Y011434D02*
X016661Y011434D01*
X016589Y011672D02*
X016826Y011672D01*
X016869Y011911D02*
X016589Y011911D01*
X016589Y012149D02*
X016869Y012149D01*
X016869Y012388D02*
X016589Y012388D01*
X016589Y012626D02*
X016869Y012626D01*
X016869Y012865D02*
X016589Y012865D01*
X016589Y013103D02*
X016869Y013103D01*
X016869Y013342D02*
X016589Y013342D01*
X016589Y013580D02*
X016869Y013580D01*
X016869Y013819D02*
X016589Y013819D01*
X016589Y014058D02*
X016869Y014058D01*
X016869Y014296D02*
X016589Y014296D01*
X016589Y014535D02*
X016869Y014535D01*
X016869Y014773D02*
X016589Y014773D01*
X016589Y015012D02*
X016869Y015012D01*
X016869Y015250D02*
X016589Y015250D01*
X016589Y015489D02*
X016869Y015489D01*
X016869Y015727D02*
X016589Y015727D01*
X016589Y015966D02*
X016869Y015966D01*
X016869Y016204D02*
X016589Y016204D01*
X016647Y017159D02*
X016869Y017159D01*
X016869Y017397D02*
X016833Y017397D01*
X016869Y018113D02*
X016748Y018113D01*
X016787Y018351D02*
X016869Y018351D01*
X017229Y018713D02*
X017229Y011213D01*
X017229Y010213D01*
X017979Y009213D01*
X017979Y008213D01*
X018301Y007855D02*
X020509Y007855D01*
X020509Y008094D02*
X018459Y008094D01*
X018459Y008332D02*
X020509Y008332D01*
X020509Y008571D02*
X018339Y008571D01*
X018339Y008810D02*
X020509Y008810D01*
X020451Y009048D02*
X019479Y009048D01*
X019474Y009043D02*
X019539Y009108D01*
X019594Y009183D01*
X019636Y009266D01*
X019665Y009354D01*
X019679Y009446D01*
X019679Y009492D01*
X019090Y009492D01*
X019090Y009493D01*
X019679Y009493D01*
X019679Y009539D01*
X019665Y009631D01*
X019636Y009719D01*
X019594Y009802D01*
X019539Y009877D01*
X019474Y009943D01*
X019399Y009997D01*
X019316Y010039D01*
X019227Y010068D01*
X019136Y010083D01*
X019089Y010083D01*
X019043Y010083D01*
X018951Y010068D01*
X018863Y010039D01*
X018780Y009997D01*
X018705Y009943D01*
X018639Y009877D01*
X018585Y009802D01*
X018543Y009719D01*
X018514Y009631D01*
X018499Y009539D01*
X018499Y009493D01*
X019089Y009493D01*
X019089Y010083D01*
X019089Y009493D01*
X019089Y009493D01*
X019089Y009492D01*
X019089Y009492D01*
X019089Y008903D01*
X019043Y008903D01*
X018951Y008917D01*
X018863Y008946D01*
X018780Y008988D01*
X018705Y009043D01*
X018639Y009108D01*
X018585Y009183D01*
X018543Y009266D01*
X018514Y009354D01*
X018499Y009446D01*
X018499Y009492D01*
X019089Y009492D01*
X019089Y008903D01*
X019136Y008903D01*
X019227Y008917D01*
X019316Y008946D01*
X019399Y008988D01*
X019474Y009043D01*
X019643Y009287D02*
X020294Y009287D01*
X020259Y009525D02*
X019679Y009525D01*
X019613Y009764D02*
X020321Y009764D01*
X020509Y010002D02*
X019388Y010002D01*
X019089Y010002D02*
X019089Y010002D01*
X019089Y009764D02*
X019089Y009764D01*
X019089Y009525D02*
X019089Y009525D01*
X019089Y009287D02*
X019089Y009287D01*
X019089Y009048D02*
X019089Y009048D01*
X018699Y009048D02*
X018459Y009048D01*
X018459Y009287D02*
X018536Y009287D01*
X018499Y009525D02*
X018345Y009525D01*
X018565Y009764D02*
X018016Y009764D01*
X017837Y010002D02*
X018790Y010002D01*
X017839Y010241D02*
X020338Y010241D01*
X020166Y010479D02*
X017779Y010479D01*
X017597Y010718D02*
X020119Y010718D01*
X020170Y010956D02*
X017783Y010956D01*
X017839Y011195D02*
X020349Y011195D01*
X020185Y011434D02*
X017798Y011434D01*
X017632Y011672D02*
X020119Y011672D01*
X020151Y011911D02*
X017589Y011911D01*
X017589Y012149D02*
X020303Y012149D01*
X020204Y012388D02*
X017589Y012388D01*
X017589Y012626D02*
X020119Y012626D01*
X020132Y012865D02*
X017589Y012865D01*
X017589Y013103D02*
X020257Y013103D01*
X020269Y013342D02*
X017589Y013342D01*
X017589Y013580D02*
X020153Y013580D01*
X020139Y013713D02*
X020729Y013713D01*
X020729Y014123D01*
X020729Y014712D01*
X020139Y014712D01*
X020139Y014666D01*
X020154Y014574D01*
X020183Y014486D01*
X020225Y014403D01*
X020279Y014328D01*
X020345Y014263D01*
X020414Y014213D01*
X020345Y014163D01*
X020279Y014097D01*
X020225Y014022D01*
X020183Y013939D01*
X020154Y013851D01*
X020139Y013759D01*
X020139Y013713D01*
X020149Y013819D02*
X017589Y013819D01*
X017589Y014058D02*
X020251Y014058D01*
X020311Y014296D02*
X017589Y014296D01*
X017589Y014535D02*
X020167Y014535D01*
X020142Y014773D02*
X017589Y014773D01*
X017589Y015012D02*
X020220Y015012D01*
X020329Y015250D02*
X017589Y015250D01*
X017589Y015489D02*
X020162Y015489D01*
X020119Y015727D02*
X017589Y015727D01*
X017729Y015966D02*
X017729Y015966D01*
X017729Y016204D02*
X017729Y016204D01*
X017729Y016213D02*
X017729Y016673D01*
X017729Y016213D01*
X017729Y016213D01*
X017729Y016443D02*
X017729Y016443D01*
X017589Y016681D02*
X018369Y016681D01*
X018369Y016920D02*
X017589Y016920D01*
X017589Y017159D02*
X018369Y017159D01*
X018366Y017397D02*
X017589Y017397D01*
X017589Y017636D02*
X018249Y017636D01*
X018249Y017874D02*
X017589Y017874D01*
X017589Y018113D02*
X018451Y018113D01*
X018869Y018351D02*
X017589Y018351D01*
X017616Y018590D02*
X018869Y018590D01*
X018869Y018828D02*
X017813Y018828D01*
X017839Y019067D02*
X018869Y019067D01*
X018869Y019305D02*
X017839Y019305D01*
X017839Y019544D02*
X018869Y019544D01*
X018869Y019783D02*
X017839Y019783D01*
X017959Y020021D02*
X018869Y020021D01*
X018869Y020260D02*
X017959Y020260D01*
X017872Y020498D02*
X018869Y020498D01*
X019589Y020498D02*
X020158Y020498D01*
X020119Y020591D02*
X020212Y020367D01*
X020367Y020213D01*
X020212Y020058D01*
X020119Y019834D01*
X020119Y019591D01*
X020212Y019367D01*
X020367Y019213D01*
X020212Y019058D01*
X020119Y018834D01*
X020119Y018591D01*
X020212Y018367D01*
X020367Y018213D01*
X020212Y018058D01*
X020119Y017834D01*
X020119Y017591D01*
X020212Y017367D01*
X020384Y017195D01*
X020608Y017103D01*
X020851Y017103D01*
X021075Y017195D01*
X021246Y017367D01*
X021339Y017591D01*
X021339Y017834D01*
X021246Y018058D01*
X021092Y018213D01*
X021246Y018367D01*
X021339Y018591D01*
X021339Y018834D01*
X021246Y019058D01*
X021092Y019213D01*
X021246Y019367D01*
X021339Y019591D01*
X021339Y019834D01*
X021246Y020058D01*
X021092Y020213D01*
X021246Y020367D01*
X021339Y020591D01*
X021339Y020834D01*
X021246Y021058D01*
X021092Y021213D01*
X021246Y021367D01*
X021339Y021591D01*
X021339Y021834D01*
X021246Y022058D01*
X021092Y022213D01*
X021246Y022367D01*
X021339Y022591D01*
X021339Y022834D01*
X021246Y023058D01*
X021075Y023230D01*
X020851Y023323D01*
X020608Y023323D01*
X020384Y023230D01*
X020212Y023058D01*
X020119Y022834D01*
X020119Y022591D01*
X020212Y022367D01*
X020367Y022213D01*
X020212Y022058D01*
X020119Y021834D01*
X020119Y021591D01*
X020212Y021367D01*
X020367Y021213D01*
X020212Y021058D01*
X020119Y020834D01*
X020119Y020591D01*
X020119Y020737D02*
X019589Y020737D01*
X019589Y020975D02*
X020178Y020975D01*
X020365Y021214D02*
X019589Y021214D01*
X019589Y021284D02*
X019534Y021416D01*
X019433Y021518D01*
X019209Y021742D01*
X019209Y021911D01*
X019089Y022031D01*
X019089Y022284D01*
X019034Y022416D01*
X018933Y022518D01*
X018784Y022667D01*
X018784Y022823D01*
X018700Y023027D01*
X018544Y023183D01*
X018482Y023209D01*
X018764Y023491D01*
X018764Y023712D01*
X018230Y023712D01*
X018230Y023713D01*
X018764Y023713D01*
X018764Y023934D01*
X018451Y024248D01*
X018229Y024248D01*
X018008Y024248D01*
X017694Y023934D01*
X017694Y023757D01*
X017433Y024018D01*
X017301Y024073D01*
X017158Y024073D01*
X012739Y024073D01*
X012739Y024084D01*
X012662Y024271D01*
X012518Y024415D01*
X012451Y024443D01*
X019617Y024443D01*
X020576Y023484D01*
X020676Y023443D01*
X020783Y023443D01*
X022459Y023443D01*
X022459Y002875D01*
X022256Y002621D01*
X021339Y001704D01*
X021339Y001814D01*
X022034Y002509D01*
X022089Y002641D01*
X022089Y002784D01*
X022089Y011284D01*
X022034Y011416D01*
X021933Y011518D01*
X021433Y012018D01*
X021301Y012073D01*
X021232Y012073D01*
X021092Y012213D01*
X021246Y012367D01*
X021339Y012591D01*
X021339Y012834D01*
X021246Y013058D01*
X021075Y013230D01*
X021071Y013231D01*
X021114Y013263D01*
X021179Y013328D01*
X021234Y013403D01*
X021276Y013486D01*
X021305Y013574D01*
X021319Y013666D01*
X021319Y013712D01*
X020730Y013712D01*
X020730Y013713D01*
X021319Y013713D01*
X021319Y013759D01*
X021305Y013851D01*
X021276Y013939D01*
X021234Y014022D01*
X021179Y014097D01*
X021114Y014163D01*
X021045Y014213D01*
X021114Y014263D01*
X021179Y014328D01*
X021234Y014403D01*
X021276Y014486D01*
X021305Y014574D01*
X021319Y014666D01*
X021319Y014712D01*
X020730Y014712D01*
X020730Y014713D01*
X021319Y014713D01*
X021319Y014759D01*
X021305Y014851D01*
X021276Y014939D01*
X021234Y015022D01*
X021179Y015097D01*
X021114Y015163D01*
X021071Y015194D01*
X021075Y015195D01*
X021246Y015367D01*
X021339Y015591D01*
X021339Y015834D01*
X021246Y016058D01*
X021075Y016230D01*
X020851Y016323D01*
X020628Y016323D01*
X019589Y017362D01*
X019589Y021284D01*
X019499Y021452D02*
X020177Y021452D01*
X020119Y021691D02*
X019260Y021691D01*
X019191Y021929D02*
X020159Y021929D01*
X020322Y022168D02*
X019089Y022168D01*
X019039Y022407D02*
X020196Y022407D01*
X020119Y022645D02*
X018806Y022645D01*
X018759Y022884D02*
X020140Y022884D01*
X020276Y023122D02*
X018605Y023122D01*
X018634Y023361D02*
X022459Y023361D01*
X022459Y023122D02*
X021182Y023122D01*
X021319Y022884D02*
X022459Y022884D01*
X022459Y022645D02*
X021339Y022645D01*
X021263Y022407D02*
X022459Y022407D01*
X022459Y022168D02*
X021136Y022168D01*
X021300Y021929D02*
X022459Y021929D01*
X022459Y021691D02*
X021339Y021691D01*
X021282Y021452D02*
X022459Y021452D01*
X022459Y021214D02*
X021093Y021214D01*
X021281Y020975D02*
X022459Y020975D01*
X022459Y020737D02*
X021339Y020737D01*
X021301Y020498D02*
X022459Y020498D01*
X022459Y020260D02*
X021139Y020260D01*
X021262Y020021D02*
X022459Y020021D01*
X022459Y019783D02*
X021339Y019783D01*
X021320Y019544D02*
X022459Y019544D01*
X022459Y019305D02*
X021185Y019305D01*
X021238Y019067D02*
X022459Y019067D01*
X022459Y018828D02*
X021339Y018828D01*
X021339Y018590D02*
X022459Y018590D01*
X022459Y018351D02*
X021231Y018351D01*
X021192Y018113D02*
X022459Y018113D01*
X022459Y017874D02*
X021323Y017874D01*
X021339Y017636D02*
X022459Y017636D01*
X022459Y017397D02*
X021259Y017397D01*
X020986Y017159D02*
X022459Y017159D01*
X022459Y016920D02*
X020031Y016920D01*
X020269Y016681D02*
X022459Y016681D01*
X022459Y016443D02*
X020508Y016443D01*
X021100Y016204D02*
X022459Y016204D01*
X022459Y015966D02*
X021285Y015966D01*
X021339Y015727D02*
X022459Y015727D01*
X022459Y015489D02*
X021297Y015489D01*
X021130Y015250D02*
X022459Y015250D01*
X022459Y015012D02*
X021239Y015012D01*
X021317Y014773D02*
X022459Y014773D01*
X022459Y014535D02*
X021292Y014535D01*
X021147Y014296D02*
X022459Y014296D01*
X022459Y014058D02*
X021208Y014058D01*
X021310Y013819D02*
X022459Y013819D01*
X022459Y013580D02*
X021306Y013580D01*
X021189Y013342D02*
X022459Y013342D01*
X022459Y013103D02*
X021201Y013103D01*
X021326Y012865D02*
X022459Y012865D01*
X022459Y012626D02*
X021339Y012626D01*
X021255Y012388D02*
X022459Y012388D01*
X022459Y012149D02*
X021155Y012149D01*
X021540Y011911D02*
X022459Y011911D01*
X022459Y011672D02*
X021779Y011672D01*
X022017Y011434D02*
X022459Y011434D01*
X022459Y011195D02*
X022089Y011195D01*
X022089Y010956D02*
X022459Y010956D01*
X022459Y010718D02*
X022089Y010718D01*
X022089Y010479D02*
X022459Y010479D01*
X022459Y010241D02*
X022089Y010241D01*
X022089Y010002D02*
X022459Y010002D01*
X022459Y009764D02*
X022089Y009764D01*
X022089Y009525D02*
X022459Y009525D01*
X022459Y009287D02*
X022089Y009287D01*
X022089Y009048D02*
X022459Y009048D01*
X022459Y008810D02*
X022089Y008810D01*
X022089Y008571D02*
X022459Y008571D01*
X022459Y008332D02*
X022089Y008332D01*
X022089Y008094D02*
X022459Y008094D01*
X022459Y007855D02*
X022089Y007855D01*
X022089Y007617D02*
X022459Y007617D01*
X022459Y007378D02*
X022089Y007378D01*
X022089Y007140D02*
X022459Y007140D01*
X022459Y006901D02*
X022089Y006901D01*
X022089Y006663D02*
X022459Y006663D01*
X022459Y006424D02*
X022089Y006424D01*
X022089Y006186D02*
X022459Y006186D01*
X022459Y005947D02*
X022089Y005947D01*
X022089Y005709D02*
X022459Y005709D01*
X022459Y005470D02*
X022089Y005470D01*
X022089Y005231D02*
X022459Y005231D01*
X022459Y004993D02*
X022089Y004993D01*
X022089Y004754D02*
X022459Y004754D01*
X022459Y004516D02*
X022089Y004516D01*
X022089Y004277D02*
X022459Y004277D01*
X022459Y004039D02*
X022089Y004039D01*
X022089Y003800D02*
X022459Y003800D01*
X022459Y003562D02*
X022089Y003562D01*
X022089Y003323D02*
X022459Y003323D01*
X022459Y003085D02*
X022089Y003085D01*
X022089Y002846D02*
X022436Y002846D01*
X022242Y002607D02*
X022075Y002607D01*
X022004Y002369D02*
X021895Y002369D01*
X021765Y002130D02*
X021656Y002130D01*
X021527Y001892D02*
X021418Y001892D01*
X020729Y001713D02*
X021729Y002713D01*
X021729Y011213D01*
X021229Y011713D01*
X020729Y011713D01*
X020729Y010713D02*
X020869Y010573D01*
X020869Y009493D01*
X020869Y006933D01*
X020295Y007140D02*
X019642Y007140D01*
X019679Y006901D02*
X020259Y006901D01*
X020321Y006663D02*
X019614Y006663D01*
X019391Y006424D02*
X020515Y006424D01*
X020935Y006186D02*
X021369Y006186D01*
X021369Y006424D02*
X021223Y006424D01*
X021174Y005947D02*
X021369Y005947D01*
X021369Y005709D02*
X021209Y005709D01*
X021165Y005470D02*
X021369Y005470D01*
X021369Y005231D02*
X021089Y005231D01*
X021273Y004993D02*
X021369Y004993D01*
X021369Y004754D02*
X021339Y004754D01*
X021369Y004516D02*
X021308Y004516D01*
X021369Y004277D02*
X021157Y004277D01*
X021369Y004039D02*
X018089Y004039D01*
X018089Y004277D02*
X019302Y004277D01*
X019151Y004516D02*
X017935Y004516D01*
X017697Y004754D02*
X019119Y004754D01*
X018940Y004993D02*
X017458Y004993D01*
X017220Y005231D02*
X018701Y005231D01*
X019242Y005709D02*
X019269Y005709D01*
X019313Y005947D02*
X019174Y005947D01*
X019729Y005947D02*
X019729Y005947D01*
X020137Y005470D02*
X020293Y005470D01*
X020369Y005231D02*
X020071Y005231D01*
X020157Y004277D02*
X020302Y004277D01*
X021369Y003800D02*
X018089Y003800D01*
X018089Y003562D02*
X021369Y003562D01*
X021369Y003323D02*
X018089Y003323D01*
X018089Y003085D02*
X021369Y003085D01*
X021354Y002846D02*
X018089Y002846D01*
X018089Y002607D02*
X021115Y002607D01*
X020877Y002369D02*
X018089Y002369D01*
X018089Y002130D02*
X018497Y002130D01*
X018729Y002130D02*
X018729Y002130D01*
X018962Y002130D02*
X019313Y002130D01*
X019729Y002130D02*
X019729Y002130D01*
X019729Y001892D02*
X019729Y001892D01*
X019729Y001653D02*
X019729Y001653D01*
X019729Y001415D02*
X019729Y001415D01*
X019729Y001176D02*
X019729Y001176D01*
X019482Y001176D02*
X017544Y001176D01*
X017729Y001713D02*
X017729Y004213D01*
X016229Y005713D01*
X015479Y005713D01*
X015685Y006186D02*
X016747Y006186D01*
X016986Y005947D02*
X016504Y005947D01*
X016742Y005709D02*
X017224Y005709D01*
X017293Y005470D02*
X016981Y005470D01*
X017527Y006424D02*
X018788Y006424D01*
X018565Y006663D02*
X017288Y006663D01*
X017050Y006901D02*
X018499Y006901D01*
X018536Y007140D02*
X016811Y007140D01*
X016589Y007378D02*
X018701Y007378D01*
X018524Y006186D02*
X017935Y006186D01*
X017156Y004277D02*
X002108Y004277D01*
X002185Y004039D02*
X003846Y004039D01*
X003530Y003800D02*
X002292Y003800D01*
X002277Y003562D02*
X003389Y003562D01*
X003319Y003323D02*
X002125Y003323D01*
X002171Y003085D02*
X002451Y003085D01*
X002729Y003085D02*
X002729Y003085D01*
X002729Y003173D02*
X002729Y002713D01*
X002729Y002713D01*
X002729Y003173D01*
X002729Y002846D02*
X002729Y002846D01*
X002729Y002607D02*
X002729Y002607D01*
X002729Y002369D02*
X002729Y002369D01*
X002422Y002369D02*
X002199Y002369D01*
X003189Y002607D02*
X003548Y002607D01*
X003396Y002846D02*
X003189Y002846D01*
X003319Y003085D02*
X003008Y003085D01*
X002282Y004516D02*
X006917Y004516D01*
X006678Y004754D02*
X002319Y004754D01*
X002248Y004993D02*
X006440Y004993D01*
X006201Y005231D02*
X005665Y005231D01*
X005937Y005470D02*
X006022Y005470D01*
X006018Y005947D02*
X005940Y005947D01*
X005979Y006424D02*
X005979Y006424D01*
X005979Y006663D02*
X005979Y006663D01*
X005979Y006713D02*
X005979Y007208D01*
X005979Y006713D01*
X005979Y006713D01*
X005979Y006901D02*
X005979Y006901D01*
X005979Y007140D02*
X005979Y007140D01*
X006232Y007140D02*
X006677Y007140D01*
X006499Y006901D02*
X006439Y006901D01*
X006382Y006424D02*
X006541Y006424D01*
X006685Y006186D02*
X007274Y006186D01*
X007418Y006424D02*
X007682Y006424D01*
X007495Y006663D02*
X007869Y006663D01*
X008229Y006463D02*
X008229Y007213D01*
X007479Y007213D01*
X006979Y008213D01*
X006658Y007855D02*
X006273Y007855D01*
X006170Y007753D02*
X006439Y008022D01*
X006439Y008212D01*
X005980Y008212D01*
X005980Y008213D01*
X006439Y008213D01*
X006439Y008403D01*
X006170Y008673D01*
X005979Y008673D01*
X005789Y008673D01*
X005519Y008403D01*
X005519Y008213D01*
X005979Y008213D01*
X005979Y008673D01*
X005979Y008213D01*
X005979Y008213D01*
X005979Y008212D01*
X005979Y008212D01*
X005979Y007753D01*
X005789Y007753D01*
X005519Y008022D01*
X005519Y008212D01*
X005979Y008212D01*
X005979Y007753D01*
X006170Y007753D01*
X005979Y007855D02*
X005979Y007855D01*
X005979Y008094D02*
X005979Y008094D01*
X005979Y008332D02*
X005979Y008332D01*
X005979Y008571D02*
X005979Y008571D01*
X006271Y008571D02*
X006659Y008571D01*
X006499Y008332D02*
X006439Y008332D01*
X006439Y008094D02*
X006499Y008094D01*
X006875Y007617D02*
X003089Y007617D01*
X003089Y007855D02*
X005686Y007855D01*
X005519Y008094D02*
X003120Y008094D01*
X003358Y008332D02*
X005519Y008332D01*
X005687Y008571D02*
X003597Y008571D01*
X004005Y008810D02*
X007732Y008810D01*
X007789Y008753D02*
X007979Y008753D01*
X007979Y009212D01*
X007979Y009212D01*
X007519Y009212D01*
X007519Y009022D01*
X007789Y008753D01*
X007780Y008693D02*
X007499Y008411D01*
X007499Y008014D01*
X007780Y007733D01*
X008178Y007733D01*
X008459Y008014D01*
X008459Y008411D01*
X008178Y008693D01*
X007780Y008693D01*
X007659Y008571D02*
X007300Y008571D01*
X007459Y008332D02*
X007499Y008332D01*
X007499Y008094D02*
X007459Y008094D01*
X007560Y007855D02*
X007658Y007855D01*
X007680Y007617D02*
X011124Y007617D01*
X011363Y007855D02*
X008301Y007855D01*
X008459Y008094D02*
X011499Y008094D01*
X011499Y008332D02*
X008459Y008332D01*
X008300Y008571D02*
X011619Y008571D01*
X011619Y008810D02*
X008227Y008810D01*
X008170Y008753D02*
X007979Y008753D01*
X007979Y009212D01*
X007979Y009213D01*
X007979Y009213D01*
X007979Y009673D01*
X008170Y009673D01*
X008439Y009403D01*
X008439Y009213D01*
X007980Y009213D01*
X007980Y009212D01*
X008439Y009212D01*
X008439Y009022D01*
X008170Y008753D01*
X007979Y008810D02*
X007979Y008810D01*
X007979Y009048D02*
X007979Y009048D01*
X007979Y009287D02*
X007979Y009287D01*
X007979Y009525D02*
X007979Y009525D01*
X007641Y009525D02*
X004095Y009525D01*
X004209Y009287D02*
X007519Y009287D01*
X007519Y009048D02*
X004209Y009048D01*
X003729Y009213D02*
X002729Y008213D01*
X002729Y006713D01*
X003209Y006663D02*
X004464Y006663D01*
X004499Y006901D02*
X003209Y006901D01*
X003089Y007140D02*
X004677Y007140D01*
X005281Y007140D02*
X005726Y007140D01*
X005519Y006901D02*
X005459Y006901D01*
X004541Y006424D02*
X003120Y006424D01*
X002369Y007140D02*
X002339Y007140D01*
X002321Y007378D02*
X002369Y007378D01*
X002369Y007617D02*
X002188Y007617D01*
X002235Y007855D02*
X002369Y007855D01*
X002369Y008094D02*
X002339Y008094D01*
X002339Y008332D02*
X002389Y008332D01*
X002525Y008518D02*
X002525Y008518D01*
X002579Y008571D02*
X002233Y008571D01*
X002189Y008810D02*
X002817Y008810D01*
X003056Y009048D02*
X002321Y009048D01*
X002339Y009287D02*
X003249Y009287D01*
X003363Y009525D02*
X002551Y009525D01*
X002790Y009764D02*
X003499Y009764D01*
X003959Y009764D02*
X007344Y009764D01*
X007177Y010002D02*
X004198Y010002D01*
X004209Y010241D02*
X007139Y010241D01*
X007203Y010479D02*
X004141Y010479D01*
X003729Y010213D02*
X002729Y010213D01*
X001729Y009213D01*
X002279Y010479D02*
X002487Y010479D01*
X002097Y010718D02*
X007422Y010718D01*
X007729Y010718D02*
X007729Y010718D01*
X007729Y010479D02*
X007729Y010479D01*
X007729Y010241D02*
X007729Y010241D01*
X007729Y010002D02*
X007729Y010002D01*
X007729Y009764D02*
X007729Y009764D01*
X008317Y009525D02*
X011613Y009525D01*
X011499Y009287D02*
X008439Y009287D01*
X008439Y009048D02*
X011499Y009048D01*
X012611Y010718D02*
X008037Y010718D01*
X008519Y011022D02*
X008519Y011212D01*
X008979Y011212D01*
X008979Y011212D01*
X008979Y010753D01*
X008789Y010753D01*
X008519Y011022D01*
X008585Y010956D02*
X002283Y010956D01*
X002339Y011195D02*
X008519Y011195D01*
X008519Y011213D02*
X008979Y011213D01*
X008979Y011673D01*
X008789Y011673D01*
X008519Y011403D01*
X008519Y011213D01*
X008550Y011434D02*
X002459Y011434D01*
X002698Y011672D02*
X008788Y011672D01*
X008979Y011672D02*
X008979Y011672D01*
X008979Y011673D02*
X008979Y011213D01*
X008979Y011213D01*
X008979Y011212D01*
X008979Y010753D01*
X009170Y010753D01*
X009439Y011022D01*
X009439Y011212D01*
X008980Y011212D01*
X008980Y011213D01*
X009439Y011213D01*
X009439Y011403D01*
X009170Y011673D01*
X008979Y011673D01*
X009170Y011672D02*
X009690Y011672D01*
X009409Y011434D02*
X012249Y011434D01*
X012369Y011195D02*
X009439Y011195D01*
X009374Y010956D02*
X012425Y010956D01*
X012979Y011213D02*
X012229Y011963D01*
X012229Y015213D01*
X012229Y019213D01*
X012729Y019713D01*
X013229Y019713D01*
X013741Y019305D02*
X015718Y019305D01*
X015665Y019067D02*
X013794Y019067D01*
X013941Y018828D02*
X015518Y018828D01*
X015521Y018590D02*
X013938Y018590D01*
X013919Y019544D02*
X015540Y019544D01*
X015509Y019783D02*
X013949Y019783D01*
X013840Y020021D02*
X015619Y020021D01*
X015828Y020260D02*
X013630Y020260D01*
X013900Y020498D02*
X015559Y020498D01*
X015509Y020737D02*
X013949Y020737D01*
X013880Y020975D02*
X015579Y020975D01*
X015717Y021306D02*
X015894Y021233D01*
X016565Y021233D01*
X016741Y021306D01*
X016876Y021441D01*
X016949Y021617D01*
X016949Y021808D01*
X016876Y021984D01*
X016741Y022119D01*
X016565Y022193D01*
X015894Y022193D01*
X015717Y022119D01*
X015582Y021984D01*
X015509Y021808D01*
X015509Y021617D01*
X015582Y021441D01*
X015717Y021306D01*
X015577Y021452D02*
X013881Y021452D01*
X013949Y021691D02*
X015509Y021691D01*
X015560Y021929D02*
X013899Y021929D01*
X013624Y022168D02*
X015834Y022168D01*
X015882Y022264D02*
X015813Y022286D01*
X015748Y022319D01*
X015690Y022362D01*
X015638Y022413D01*
X015596Y022471D01*
X015563Y022536D01*
X015541Y022605D01*
X015529Y022676D01*
X015529Y022712D01*
X016229Y022712D01*
X016229Y022712D01*
X016229Y022253D01*
X015953Y022253D01*
X015882Y022264D01*
X015645Y022407D02*
X013842Y022407D01*
X013876Y022441D02*
X013949Y022617D01*
X013949Y022808D01*
X013876Y022984D01*
X013741Y023119D01*
X013565Y023193D01*
X012894Y023193D01*
X012717Y023119D01*
X012582Y022984D01*
X012509Y022808D01*
X012509Y022617D01*
X012582Y022441D01*
X012717Y022306D01*
X012894Y022233D01*
X013565Y022233D01*
X013741Y022306D01*
X013876Y022441D01*
X013949Y022645D02*
X015534Y022645D01*
X015529Y022713D02*
X016229Y022713D01*
X016229Y023173D01*
X015953Y023173D01*
X015882Y023161D01*
X015813Y023139D01*
X015748Y023106D01*
X015690Y023063D01*
X015638Y023012D01*
X015596Y022954D01*
X015563Y022889D01*
X015541Y022820D01*
X015529Y022749D01*
X015529Y022713D01*
X015561Y022884D02*
X013918Y022884D01*
X013735Y023122D02*
X015780Y023122D01*
X016229Y023122D02*
X016229Y023122D01*
X016229Y023173D02*
X016229Y022713D01*
X016229Y022713D01*
X016229Y022712D01*
X016229Y022253D01*
X016505Y022253D01*
X016577Y022264D01*
X016646Y022286D01*
X016710Y022319D01*
X016769Y022362D01*
X016820Y022413D01*
X016863Y022471D01*
X016896Y022536D01*
X016918Y022605D01*
X016929Y022676D01*
X016929Y022712D01*
X016230Y022712D01*
X016230Y022713D01*
X016929Y022713D01*
X016929Y022749D01*
X016918Y022820D01*
X016896Y022889D01*
X016863Y022954D01*
X016820Y023012D01*
X016769Y023063D01*
X016710Y023106D01*
X016646Y023139D01*
X016577Y023161D01*
X016505Y023173D01*
X016229Y023173D01*
X016229Y022884D02*
X016229Y022884D01*
X016229Y022645D02*
X016229Y022645D01*
X016229Y022407D02*
X016229Y022407D01*
X016624Y022168D02*
X018094Y022168D01*
X018267Y021929D02*
X016899Y021929D01*
X016949Y021691D02*
X018249Y021691D01*
X018729Y021713D02*
X018729Y022213D01*
X018229Y022713D01*
X017229Y023713D01*
X012229Y023713D01*
X012739Y024076D02*
X017836Y024076D01*
X017694Y023838D02*
X017613Y023838D01*
X018229Y023838D02*
X018229Y023838D01*
X018229Y023713D02*
X018229Y024248D01*
X018229Y023713D01*
X018229Y023713D01*
X018229Y024076D02*
X018229Y024076D01*
X018622Y024076D02*
X019984Y024076D01*
X020222Y023838D02*
X018764Y023838D01*
X018764Y023599D02*
X020461Y023599D01*
X019745Y024315D02*
X012618Y024315D01*
X012630Y023122D02*
X012724Y023122D01*
X012541Y022884D02*
X005067Y022884D01*
X005306Y022645D02*
X012509Y022645D01*
X012616Y022407D02*
X005544Y022407D01*
X005783Y022168D02*
X012834Y022168D01*
X011828Y023122D02*
X011630Y023122D01*
X011229Y023713D02*
X008729Y023713D01*
X009369Y024076D02*
X010719Y024076D01*
X010840Y024315D02*
X009266Y024315D01*
X009278Y023122D02*
X010828Y023122D01*
X012509Y020737D02*
X008075Y020737D01*
X008362Y020498D02*
X012559Y020498D01*
X012828Y020260D02*
X008449Y020260D01*
X008409Y020021D02*
X012533Y020021D01*
X012290Y019783D02*
X008185Y019783D01*
X007142Y019544D02*
X005870Y019544D01*
X006080Y019305D02*
X007009Y019305D01*
X007030Y019067D02*
X006089Y019067D01*
X006089Y018828D02*
X007195Y018828D01*
X007226Y018590D02*
X006089Y018590D01*
X006089Y018351D02*
X007051Y018351D01*
X007039Y018113D02*
X006089Y018113D01*
X006089Y017874D02*
X007177Y017874D01*
X007306Y017636D02*
X006089Y017636D01*
X006089Y017397D02*
X007067Y017397D01*
X007032Y017159D02*
X006089Y017159D01*
X006089Y016920D02*
X007133Y016920D01*
X007367Y016681D02*
X006089Y016681D01*
X006089Y016443D02*
X007065Y016443D01*
X007009Y016204D02*
X006089Y016204D01*
X006089Y015966D02*
X007072Y015966D01*
X007087Y015489D02*
X006089Y015489D01*
X006089Y015250D02*
X007009Y015250D01*
X007053Y015012D02*
X006089Y015012D01*
X006178Y014773D02*
X007296Y014773D01*
X007132Y014535D02*
X006513Y014535D01*
X006657Y014296D02*
X007009Y014296D01*
X007034Y014058D02*
X006628Y014058D01*
X006827Y013819D02*
X006398Y013819D01*
X006588Y013580D02*
X002224Y013580D01*
X002198Y013819D02*
X004204Y013819D01*
X004217Y013806D02*
X004394Y013733D01*
X005065Y013733D01*
X005241Y013806D01*
X005376Y013941D01*
X005449Y014117D01*
X005449Y014308D01*
X005376Y014484D01*
X005241Y014619D01*
X005065Y014693D01*
X004394Y014693D01*
X004217Y014619D01*
X004082Y014484D01*
X004009Y014308D01*
X004009Y014117D01*
X004082Y013941D01*
X004217Y013806D01*
X004034Y014058D02*
X002325Y014058D01*
X002339Y014296D02*
X004009Y014296D01*
X004132Y014535D02*
X002256Y014535D01*
X002799Y014773D02*
X004296Y014773D01*
X005163Y014773D02*
X005369Y014773D01*
X005326Y014535D02*
X005413Y014535D01*
X005449Y014296D02*
X005637Y014296D01*
X005830Y014058D02*
X005425Y014058D01*
X005254Y013819D02*
X006061Y013819D01*
X006229Y014213D02*
X005729Y014713D01*
X005729Y019213D01*
X004729Y019213D01*
X004195Y018828D02*
X003589Y018828D01*
X003589Y018590D02*
X004226Y018590D01*
X004051Y018351D02*
X003589Y018351D01*
X003589Y018113D02*
X004039Y018113D01*
X004177Y017874D02*
X003589Y017874D01*
X003589Y017636D02*
X004306Y017636D01*
X004067Y017397D02*
X003589Y017397D01*
X003589Y017159D02*
X004032Y017159D01*
X004133Y016920D02*
X003446Y016920D01*
X003229Y017213D02*
X003229Y019713D01*
X003729Y020213D01*
X004729Y020213D01*
X004273Y019783D02*
X003808Y019783D01*
X003589Y019544D02*
X004142Y019544D01*
X004009Y019305D02*
X003589Y019305D01*
X003589Y019067D02*
X004030Y019067D01*
X004729Y018590D02*
X004729Y018590D01*
X004729Y018351D02*
X004729Y018351D01*
X004729Y018113D02*
X004729Y018113D01*
X004729Y017874D02*
X004729Y017874D01*
X004729Y017636D02*
X004729Y017636D01*
X004729Y017397D02*
X004729Y017397D01*
X004729Y017159D02*
X004729Y017159D01*
X004729Y016920D02*
X004729Y016920D01*
X005091Y016681D02*
X005369Y016681D01*
X005369Y016920D02*
X005325Y016920D01*
X005369Y017636D02*
X005152Y017636D01*
X005281Y017874D02*
X005369Y017874D01*
X005369Y018590D02*
X005233Y018590D01*
X005264Y018828D02*
X005369Y018828D01*
X004384Y020737D02*
X003762Y020737D01*
X003221Y021214D02*
X002093Y021214D01*
X002281Y020975D02*
X002983Y020975D01*
X002744Y020737D02*
X002339Y020737D01*
X002301Y020498D02*
X002506Y020498D01*
X002369Y020260D02*
X002139Y020260D01*
X002262Y020021D02*
X002369Y020021D01*
X002369Y019783D02*
X002339Y019783D01*
X002320Y019544D02*
X002369Y019544D01*
X002369Y019305D02*
X002185Y019305D01*
X002238Y019067D02*
X002369Y019067D01*
X002369Y018828D02*
X002339Y018828D01*
X002339Y018590D02*
X002369Y018590D01*
X002369Y018351D02*
X002231Y018351D01*
X002192Y018113D02*
X002369Y018113D01*
X002369Y017874D02*
X002323Y017874D01*
X003229Y017213D02*
X001729Y015713D01*
X001174Y015966D02*
X000499Y015966D01*
X000499Y016204D02*
X001358Y016204D01*
X001181Y016443D02*
X000499Y016443D01*
X000499Y016681D02*
X001119Y016681D01*
X001155Y016920D02*
X000499Y016920D01*
X000499Y015727D02*
X001119Y015727D01*
X001162Y015489D02*
X000499Y015489D01*
X000499Y015250D02*
X001258Y015250D01*
X001019Y015012D02*
X000499Y015012D01*
X000499Y014773D02*
X000781Y014773D01*
X000542Y014535D02*
X000499Y014535D01*
X000729Y014213D02*
X000729Y006713D01*
X001729Y005713D01*
X005479Y005713D01*
X005294Y005231D02*
X001938Y005231D01*
X001463Y005470D02*
X000499Y005470D01*
X000499Y005709D02*
X001224Y005709D01*
X000986Y005947D02*
X000499Y005947D01*
X000499Y006186D02*
X000747Y006186D01*
X000509Y006424D02*
X000499Y006424D01*
X000499Y005231D02*
X001021Y005231D01*
X000711Y004993D02*
X000499Y004993D01*
X000499Y004754D02*
X000639Y004754D01*
X000676Y004516D02*
X000499Y004516D01*
X000499Y004277D02*
X000851Y004277D01*
X000773Y004039D02*
X000499Y004039D01*
X000499Y003800D02*
X000667Y003800D01*
X000682Y003562D02*
X000499Y003562D01*
X000499Y003323D02*
X000833Y003323D01*
X000788Y003085D02*
X000499Y003085D01*
X000499Y002846D02*
X000650Y002846D01*
X004613Y004039D02*
X007846Y004039D01*
X007530Y003800D02*
X004929Y003800D01*
X005070Y003562D02*
X007389Y003562D01*
X007319Y003323D02*
X005139Y003323D01*
X005139Y003085D02*
X007319Y003085D01*
X007396Y002846D02*
X005062Y002846D01*
X004911Y002607D02*
X007548Y002607D01*
X007665Y005231D02*
X008739Y005231D01*
X008978Y005470D02*
X007937Y005470D01*
X007995Y005709D02*
X009216Y005709D01*
X009285Y005947D02*
X008223Y005947D01*
X008229Y006463D02*
X007479Y005713D01*
X007294Y005231D02*
X007220Y005231D01*
X007022Y005470D02*
X006981Y005470D01*
X006940Y005947D02*
X007018Y005947D01*
X006994Y007378D02*
X003089Y007378D01*
X001729Y011213D02*
X003729Y013213D01*
X006729Y013213D01*
X007729Y014213D01*
X007729Y013213D02*
X006729Y012213D01*
X006979Y012213D01*
X005979Y012213D01*
X005602Y011911D02*
X002936Y011911D01*
X003175Y012149D02*
X005499Y012149D01*
X005499Y012388D02*
X003414Y012388D01*
X003652Y012626D02*
X005714Y012626D01*
X006244Y012626D02*
X006634Y012626D01*
X006830Y012865D02*
X006872Y012865D01*
X007459Y012388D02*
X008499Y012388D01*
X008499Y012149D02*
X007459Y012149D01*
X007356Y011911D02*
X008602Y011911D01*
X008979Y011434D02*
X008979Y011434D01*
X008979Y011195D02*
X008979Y011195D01*
X008979Y010956D02*
X008979Y010956D01*
X010268Y011672D02*
X012011Y011672D01*
X011869Y011911D02*
X011186Y011911D01*
X011339Y012149D02*
X011869Y012149D01*
X011869Y012388D02*
X011339Y012388D01*
X011339Y012626D02*
X011869Y012626D01*
X011869Y012865D02*
X011339Y012865D01*
X011339Y013103D02*
X011869Y013103D01*
X011869Y013342D02*
X011339Y013342D01*
X011339Y013580D02*
X011869Y013580D01*
X011869Y013819D02*
X011339Y013819D01*
X011339Y014058D02*
X011869Y014058D01*
X011869Y014296D02*
X011339Y014296D01*
X011339Y014535D02*
X011869Y014535D01*
X011806Y014773D02*
X011339Y014773D01*
X011339Y015012D02*
X011652Y015012D01*
X011619Y015250D02*
X011339Y015250D01*
X011339Y015489D02*
X011683Y015489D01*
X011869Y015727D02*
X011345Y015727D01*
X011407Y015966D02*
X011869Y015966D01*
X011869Y016204D02*
X011343Y016204D01*
X012589Y017159D02*
X012812Y017159D01*
X012626Y017397D02*
X012589Y017397D01*
X012589Y018113D02*
X012711Y018113D01*
X012672Y018351D02*
X012589Y018351D01*
X012593Y019067D02*
X012665Y019067D01*
X013229Y016713D02*
X013229Y015213D01*
X013339Y014773D02*
X014806Y014773D01*
X018133Y015966D02*
X018297Y015966D01*
X018249Y016204D02*
X018189Y016204D01*
X018149Y016443D02*
X018281Y016443D01*
X018729Y016213D02*
X018729Y017713D01*
X019229Y017213D02*
X020729Y015713D01*
X019967Y015966D02*
X019161Y015966D01*
X019209Y016204D02*
X019728Y016204D01*
X019490Y016443D02*
X019178Y016443D01*
X019251Y016681D02*
X019089Y016681D01*
X019229Y017213D02*
X019229Y021213D01*
X018729Y021713D01*
X017755Y022407D02*
X016814Y022407D01*
X016924Y022645D02*
X017674Y022645D01*
X017549Y022884D02*
X016897Y022884D01*
X016679Y023122D02*
X017311Y023122D01*
X017069Y021452D02*
X016881Y021452D01*
X017479Y020213D02*
X017479Y018963D01*
X019589Y019067D02*
X020221Y019067D01*
X020274Y019305D02*
X019589Y019305D01*
X019589Y019544D02*
X020139Y019544D01*
X020119Y019783D02*
X019589Y019783D01*
X019589Y020021D02*
X020197Y020021D01*
X020320Y020260D02*
X019589Y020260D01*
X019589Y018828D02*
X020119Y018828D01*
X020120Y018590D02*
X019589Y018590D01*
X019589Y018351D02*
X020228Y018351D01*
X020267Y018113D02*
X019589Y018113D01*
X019589Y017874D02*
X020136Y017874D01*
X020119Y017636D02*
X019589Y017636D01*
X019589Y017397D02*
X020200Y017397D01*
X020473Y017159D02*
X019792Y017159D01*
X020729Y014535D02*
X020729Y014535D01*
X020729Y014296D02*
X020729Y014296D01*
X020729Y014058D02*
X020729Y014058D01*
X020729Y013819D02*
X020729Y013819D01*
X017369Y004039D02*
X016613Y004039D01*
X016929Y003800D02*
X017369Y003800D01*
X017369Y003562D02*
X017070Y003562D01*
X017139Y003323D02*
X017369Y003323D01*
X017369Y003085D02*
X017139Y003085D01*
X017062Y002846D02*
X017369Y002846D01*
X017369Y002607D02*
X016911Y002607D01*
X016570Y002369D02*
X017369Y002369D01*
X018209Y001892D02*
X018269Y001892D01*
X018269Y001653D02*
X018209Y001653D01*
X018110Y001415D02*
X018377Y001415D01*
X018729Y001415D02*
X018729Y001415D01*
X018729Y001653D02*
X018729Y001653D01*
X018729Y001892D02*
X018729Y001892D01*
X019082Y001415D02*
X019219Y001415D01*
X019976Y001176D02*
X020430Y001176D01*
X020284Y002130D02*
X020146Y002130D01*
X010619Y012626D02*
X010428Y012626D01*
X010619Y012865D02*
X009339Y012865D01*
X009339Y013103D02*
X010619Y013103D01*
X010619Y013342D02*
X009315Y013342D01*
X009339Y012626D02*
X009530Y012626D01*
X008619Y012626D02*
X007908Y012626D01*
X008393Y016443D02*
X009393Y016443D01*
X007729Y016920D02*
X007729Y016920D01*
X007729Y017159D02*
X007729Y017159D01*
X007729Y017397D02*
X007729Y017397D01*
X007729Y017636D02*
X007729Y017636D01*
X007729Y017874D02*
X007729Y017874D01*
X007729Y018113D02*
X007729Y018113D01*
X007729Y018351D02*
X007729Y018351D01*
X007729Y018590D02*
X007729Y018590D01*
X004765Y022168D02*
X002136Y022168D01*
X002282Y021452D02*
X003460Y021452D01*
X006753Y023361D02*
X006769Y023361D01*
X006753Y023599D02*
X006769Y023599D01*
X006753Y023838D02*
X006769Y023838D01*
X006753Y024076D02*
X006769Y024076D01*
X003350Y013342D02*
X002336Y013342D01*
X002339Y013103D02*
X003111Y013103D01*
X002872Y012865D02*
X002244Y012865D01*
X002178Y012626D02*
X002634Y012626D01*
X002395Y012388D02*
X002317Y012388D01*
D21*
X006229Y014213D03*
X009729Y016713D03*
X010979Y015963D03*
X004229Y022713D03*
M02*
