G04 EAGLE Gerber RS-274X export*
G75*
%MOMM*%
%FSLAX34Y34*%
%LPD*%
%INTop Copper*%
%IPPOS*%
%AMOC8*
5,1,8,0,0,1.08239X$1,22.5*%
G01*
%ADD10C,1.879600*%
%ADD11C,2.000000*%
%ADD12C,0.254000*%


D10*
X101600Y177800D03*
X127000Y177800D03*
X152400Y177800D03*
X177800Y177800D03*
X203200Y177800D03*
X228600Y177800D03*
X254000Y177800D03*
X279400Y177800D03*
X304800Y177800D03*
X330200Y177800D03*
X355600Y177800D03*
X381000Y177800D03*
X381000Y25400D03*
X355600Y25400D03*
X330200Y25400D03*
X304800Y25400D03*
X279400Y25400D03*
X254000Y25400D03*
X228600Y25400D03*
X203200Y25400D03*
X177800Y25400D03*
X152400Y25400D03*
X127000Y25400D03*
X101600Y25400D03*
X30480Y129540D03*
X30480Y104140D03*
X30480Y78740D03*
X571500Y167640D03*
X571500Y142240D03*
X571500Y116840D03*
X571500Y91440D03*
D11*
X447040Y38100D03*
X447040Y190500D03*
X490220Y190500D03*
X490220Y38100D03*
X530860Y190500D03*
X530860Y38100D03*
D10*
X254000Y421640D03*
X403860Y309880D03*
X378460Y309880D03*
X353060Y309880D03*
X327660Y309880D03*
X302260Y309880D03*
X276860Y309880D03*
X50800Y241300D03*
X50800Y190500D03*
X203200Y421640D03*
X431800Y416560D03*
X487680Y419100D03*
X114300Y297180D03*
X88900Y297180D03*
X63500Y297180D03*
X38100Y297180D03*
X645160Y287020D03*
X619760Y287020D03*
X594360Y287020D03*
X568960Y287020D03*
X53340Y370840D03*
X78740Y370840D03*
X104140Y370840D03*
X66040Y396240D03*
X91440Y396240D03*
X116840Y396240D03*
X586740Y370840D03*
X612140Y370840D03*
X637540Y370840D03*
X596900Y396240D03*
X622300Y396240D03*
X647700Y396240D03*
X81280Y680720D03*
X106680Y680720D03*
X132080Y680720D03*
X68580Y655320D03*
X93980Y655320D03*
X119380Y655320D03*
X68580Y556260D03*
X119380Y556260D03*
X269240Y660400D03*
X294640Y660400D03*
X320040Y660400D03*
X269240Y548640D03*
X281940Y685800D03*
X307340Y685800D03*
X332740Y685800D03*
X320040Y548640D03*
X515620Y650240D03*
X541020Y650240D03*
X566420Y650240D03*
X515620Y558800D03*
X528320Y675640D03*
X553720Y675640D03*
X579120Y675640D03*
X566420Y558800D03*
D12*
X25400Y107950D02*
X12700Y120650D01*
X12700Y133350D01*
X25400Y146050D01*
X304800Y146050D01*
X304800Y25400D01*
X30480Y104140D02*
X25400Y107950D01*
X101600Y177800D02*
X158750Y234950D01*
X374650Y234950D01*
X374650Y304800D01*
X378460Y309880D01*
X127000Y31750D02*
X31750Y127000D01*
X127000Y31750D02*
X127000Y25400D01*
X31750Y127000D02*
X30480Y129540D01*
X495300Y38100D02*
X571500Y114300D01*
X571500Y116840D01*
X495300Y38100D02*
X490220Y38100D01*
X533400Y50800D02*
X571500Y88900D01*
X533400Y50800D02*
X533400Y38100D01*
X571500Y88900D02*
X571500Y91440D01*
X533400Y38100D02*
X530860Y38100D01*
X349250Y241300D02*
X50800Y241300D01*
X349250Y241300D02*
X349250Y304800D01*
X353060Y309880D01*
X247650Y196850D02*
X228600Y177800D01*
X247650Y196850D02*
X431800Y196850D01*
X431800Y184150D01*
X444500Y171450D01*
X514350Y171450D01*
X514350Y196850D01*
X527050Y209550D01*
X546100Y209550D01*
X546100Y133350D01*
X450850Y38100D01*
X447040Y38100D01*
X184150Y209550D02*
X152400Y177800D01*
X184150Y209550D02*
X488950Y209550D01*
X488950Y190500D01*
X490220Y190500D01*
X146050Y158750D02*
X127000Y177800D01*
X146050Y158750D02*
X527050Y158750D01*
X527050Y190500D01*
X530860Y190500D01*
X76200Y336550D02*
X38100Y298450D01*
X76200Y336550D02*
X76200Y368300D01*
X38100Y298450D02*
X38100Y297180D01*
X76200Y368300D02*
X78740Y370840D01*
X63500Y292100D02*
X50800Y279400D01*
X19050Y279400D01*
X19050Y368300D01*
X63500Y412750D01*
X88900Y412750D01*
X88900Y400050D01*
X63500Y297180D02*
X63500Y292100D01*
X91440Y396240D02*
X88900Y400050D01*
X101600Y311150D02*
X88900Y298450D01*
X101600Y311150D02*
X101600Y368300D01*
X88900Y298450D02*
X88900Y297180D01*
X101600Y368300D02*
X104140Y370840D01*
X120650Y304800D02*
X114300Y298450D01*
X120650Y304800D02*
X120650Y393700D01*
X114300Y298450D02*
X114300Y297180D01*
X120650Y393700D02*
X116840Y396240D01*
X571500Y311150D02*
X590550Y292100D01*
X571500Y311150D02*
X571500Y393700D01*
X590550Y412750D01*
X622300Y412750D01*
X622300Y396240D01*
X590550Y292100D02*
X594360Y287020D01*
X622300Y292100D02*
X635000Y304800D01*
X635000Y368300D01*
X622300Y292100D02*
X619760Y287020D01*
X635000Y368300D02*
X637540Y370840D01*
X654050Y298450D02*
X647700Y292100D01*
X654050Y298450D02*
X654050Y387350D01*
X647700Y393700D01*
X647700Y292100D02*
X645160Y287020D01*
X647700Y393700D02*
X647700Y396240D01*
X69850Y558800D02*
X69850Y654050D01*
X69850Y558800D02*
X68580Y556260D01*
X69850Y654050D02*
X68580Y655320D01*
X266700Y660400D02*
X266700Y552450D01*
X269240Y548640D01*
X269240Y660400D02*
X266700Y660400D01*
X514350Y647700D02*
X514350Y558800D01*
X515620Y558800D01*
X514350Y647700D02*
X515620Y650240D01*
M02*
