G04 EAGLE Gerber RS-274X export*
G75*
%MOMM*%
%FSLAX34Y34*%
%LPD*%
%IN*%
%IPPOS*%
%AMOC8*
5,1,8,0,0,1.08239X$1,22.5*%
G01*
%ADD10C,0.254000*%


D10*
X0Y0D02*
X683260Y2540D01*
X688340Y744220D01*
X5080Y741680D01*
X0Y0D01*
X52100Y471940D02*
X52029Y470943D01*
X51886Y469953D01*
X51674Y468976D01*
X51392Y468016D01*
X51043Y467079D01*
X50627Y466169D01*
X50148Y465292D01*
X49607Y464450D01*
X49008Y463650D01*
X48353Y462894D01*
X47646Y462187D01*
X46890Y461532D01*
X46090Y460933D01*
X45248Y460392D01*
X44371Y459913D01*
X43461Y459497D01*
X42524Y459148D01*
X41565Y458866D01*
X40587Y458654D01*
X39598Y458511D01*
X38600Y458440D01*
X37600Y458440D01*
X36603Y458511D01*
X35613Y458654D01*
X34636Y458866D01*
X33676Y459148D01*
X32739Y459497D01*
X31829Y459913D01*
X30952Y460392D01*
X30110Y460933D01*
X29310Y461532D01*
X28554Y462187D01*
X27847Y462894D01*
X27192Y463650D01*
X26593Y464450D01*
X26052Y465292D01*
X25573Y466169D01*
X25157Y467079D01*
X24808Y468016D01*
X24526Y468976D01*
X24314Y469953D01*
X24171Y470943D01*
X24100Y471940D01*
X24100Y472940D01*
X24171Y473938D01*
X24314Y474927D01*
X24526Y475905D01*
X24808Y476864D01*
X25157Y477801D01*
X25573Y478711D01*
X26052Y479588D01*
X26593Y480430D01*
X27192Y481230D01*
X27847Y481986D01*
X28554Y482693D01*
X29310Y483348D01*
X30110Y483947D01*
X30952Y484488D01*
X31829Y484967D01*
X32739Y485383D01*
X33676Y485732D01*
X34636Y486014D01*
X35613Y486226D01*
X36603Y486369D01*
X37600Y486440D01*
X38600Y486440D01*
X39598Y486369D01*
X40587Y486226D01*
X41565Y486014D01*
X42524Y485732D01*
X43461Y485383D01*
X44371Y484967D01*
X45248Y484488D01*
X46090Y483947D01*
X46890Y483348D01*
X47646Y482693D01*
X48353Y481986D01*
X49008Y481230D01*
X49607Y480430D01*
X50148Y479588D01*
X50627Y478711D01*
X51043Y477801D01*
X51392Y476864D01*
X51674Y475905D01*
X51886Y474927D01*
X52029Y473938D01*
X52100Y472940D01*
X52100Y471940D01*
X100360Y474480D02*
X100289Y473483D01*
X100146Y472493D01*
X99934Y471516D01*
X99652Y470556D01*
X99303Y469619D01*
X98887Y468709D01*
X98408Y467832D01*
X97867Y466990D01*
X97268Y466190D01*
X96613Y465434D01*
X95906Y464727D01*
X95150Y464072D01*
X94350Y463473D01*
X93508Y462932D01*
X92631Y462453D01*
X91721Y462037D01*
X90784Y461688D01*
X89825Y461406D01*
X88847Y461194D01*
X87858Y461051D01*
X86860Y460980D01*
X85860Y460980D01*
X84863Y461051D01*
X83873Y461194D01*
X82896Y461406D01*
X81936Y461688D01*
X80999Y462037D01*
X80089Y462453D01*
X79212Y462932D01*
X78370Y463473D01*
X77570Y464072D01*
X76814Y464727D01*
X76107Y465434D01*
X75452Y466190D01*
X74853Y466990D01*
X74312Y467832D01*
X73833Y468709D01*
X73417Y469619D01*
X73068Y470556D01*
X72786Y471516D01*
X72574Y472493D01*
X72431Y473483D01*
X72360Y474480D01*
X72360Y475480D01*
X72431Y476478D01*
X72574Y477467D01*
X72786Y478445D01*
X73068Y479404D01*
X73417Y480341D01*
X73833Y481251D01*
X74312Y482128D01*
X74853Y482970D01*
X75452Y483770D01*
X76107Y484526D01*
X76814Y485233D01*
X77570Y485888D01*
X78370Y486487D01*
X79212Y487028D01*
X80089Y487507D01*
X80999Y487923D01*
X81936Y488272D01*
X82896Y488554D01*
X83873Y488766D01*
X84863Y488909D01*
X85860Y488980D01*
X86860Y488980D01*
X87858Y488909D01*
X88847Y488766D01*
X89825Y488554D01*
X90784Y488272D01*
X91721Y487923D01*
X92631Y487507D01*
X93508Y487028D01*
X94350Y486487D01*
X95150Y485888D01*
X95906Y485233D01*
X96613Y484526D01*
X97268Y483770D01*
X97867Y482970D01*
X98408Y482128D01*
X98887Y481251D01*
X99303Y480341D01*
X99652Y479404D01*
X99934Y478445D01*
X100146Y477467D01*
X100289Y476478D01*
X100360Y475480D01*
X100360Y474480D01*
X146080Y474480D02*
X146009Y473483D01*
X145866Y472493D01*
X145654Y471516D01*
X145372Y470556D01*
X145023Y469619D01*
X144607Y468709D01*
X144128Y467832D01*
X143587Y466990D01*
X142988Y466190D01*
X142333Y465434D01*
X141626Y464727D01*
X140870Y464072D01*
X140070Y463473D01*
X139228Y462932D01*
X138351Y462453D01*
X137441Y462037D01*
X136504Y461688D01*
X135545Y461406D01*
X134567Y461194D01*
X133578Y461051D01*
X132580Y460980D01*
X131580Y460980D01*
X130583Y461051D01*
X129593Y461194D01*
X128616Y461406D01*
X127656Y461688D01*
X126719Y462037D01*
X125809Y462453D01*
X124932Y462932D01*
X124090Y463473D01*
X123290Y464072D01*
X122534Y464727D01*
X121827Y465434D01*
X121172Y466190D01*
X120573Y466990D01*
X120032Y467832D01*
X119553Y468709D01*
X119137Y469619D01*
X118788Y470556D01*
X118506Y471516D01*
X118294Y472493D01*
X118151Y473483D01*
X118080Y474480D01*
X118080Y475480D01*
X118151Y476478D01*
X118294Y477467D01*
X118506Y478445D01*
X118788Y479404D01*
X119137Y480341D01*
X119553Y481251D01*
X120032Y482128D01*
X120573Y482970D01*
X121172Y483770D01*
X121827Y484526D01*
X122534Y485233D01*
X123290Y485888D01*
X124090Y486487D01*
X124932Y487028D01*
X125809Y487507D01*
X126719Y487923D01*
X127656Y488272D01*
X128616Y488554D01*
X129593Y488766D01*
X130583Y488909D01*
X131580Y488980D01*
X132580Y488980D01*
X133578Y488909D01*
X134567Y488766D01*
X135545Y488554D01*
X136504Y488272D01*
X137441Y487923D01*
X138351Y487507D01*
X139228Y487028D01*
X140070Y486487D01*
X140870Y485888D01*
X141626Y485233D01*
X142333Y484526D01*
X142988Y483770D01*
X143587Y482970D01*
X144128Y482128D01*
X144607Y481251D01*
X145023Y480341D01*
X145372Y479404D01*
X145654Y478445D01*
X145866Y477467D01*
X146009Y476478D01*
X146080Y475480D01*
X146080Y474480D01*
X194340Y471940D02*
X194269Y470943D01*
X194126Y469953D01*
X193914Y468976D01*
X193632Y468016D01*
X193283Y467079D01*
X192867Y466169D01*
X192388Y465292D01*
X191847Y464450D01*
X191248Y463650D01*
X190593Y462894D01*
X189886Y462187D01*
X189130Y461532D01*
X188330Y460933D01*
X187488Y460392D01*
X186611Y459913D01*
X185701Y459497D01*
X184764Y459148D01*
X183805Y458866D01*
X182827Y458654D01*
X181838Y458511D01*
X180840Y458440D01*
X179840Y458440D01*
X178843Y458511D01*
X177853Y458654D01*
X176876Y458866D01*
X175916Y459148D01*
X174979Y459497D01*
X174069Y459913D01*
X173192Y460392D01*
X172350Y460933D01*
X171550Y461532D01*
X170794Y462187D01*
X170087Y462894D01*
X169432Y463650D01*
X168833Y464450D01*
X168292Y465292D01*
X167813Y466169D01*
X167397Y467079D01*
X167048Y468016D01*
X166766Y468976D01*
X166554Y469953D01*
X166411Y470943D01*
X166340Y471940D01*
X166340Y472940D01*
X166411Y473938D01*
X166554Y474927D01*
X166766Y475905D01*
X167048Y476864D01*
X167397Y477801D01*
X167813Y478711D01*
X168292Y479588D01*
X168833Y480430D01*
X169432Y481230D01*
X170087Y481986D01*
X170794Y482693D01*
X171550Y483348D01*
X172350Y483947D01*
X173192Y484488D01*
X174069Y484967D01*
X174979Y485383D01*
X175916Y485732D01*
X176876Y486014D01*
X177853Y486226D01*
X178843Y486369D01*
X179840Y486440D01*
X180840Y486440D01*
X181838Y486369D01*
X182827Y486226D01*
X183805Y486014D01*
X184764Y485732D01*
X185701Y485383D01*
X186611Y484967D01*
X187488Y484488D01*
X188330Y483947D01*
X189130Y483348D01*
X189886Y482693D01*
X190593Y481986D01*
X191248Y481230D01*
X191847Y480430D01*
X192388Y479588D01*
X192867Y478711D01*
X193283Y477801D01*
X193632Y476864D01*
X193914Y475905D01*
X194126Y474927D01*
X194269Y473938D01*
X194340Y472940D01*
X194340Y471940D01*
X240060Y471940D02*
X239989Y470943D01*
X239846Y469953D01*
X239634Y468976D01*
X239352Y468016D01*
X239003Y467079D01*
X238587Y466169D01*
X238108Y465292D01*
X237567Y464450D01*
X236968Y463650D01*
X236313Y462894D01*
X235606Y462187D01*
X234850Y461532D01*
X234050Y460933D01*
X233208Y460392D01*
X232331Y459913D01*
X231421Y459497D01*
X230484Y459148D01*
X229525Y458866D01*
X228547Y458654D01*
X227558Y458511D01*
X226560Y458440D01*
X225560Y458440D01*
X224563Y458511D01*
X223573Y458654D01*
X222596Y458866D01*
X221636Y459148D01*
X220699Y459497D01*
X219789Y459913D01*
X218912Y460392D01*
X218070Y460933D01*
X217270Y461532D01*
X216514Y462187D01*
X215807Y462894D01*
X215152Y463650D01*
X214553Y464450D01*
X214012Y465292D01*
X213533Y466169D01*
X213117Y467079D01*
X212768Y468016D01*
X212486Y468976D01*
X212274Y469953D01*
X212131Y470943D01*
X212060Y471940D01*
X212060Y472940D01*
X212131Y473938D01*
X212274Y474927D01*
X212486Y475905D01*
X212768Y476864D01*
X213117Y477801D01*
X213533Y478711D01*
X214012Y479588D01*
X214553Y480430D01*
X215152Y481230D01*
X215807Y481986D01*
X216514Y482693D01*
X217270Y483348D01*
X218070Y483947D01*
X218912Y484488D01*
X219789Y484967D01*
X220699Y485383D01*
X221636Y485732D01*
X222596Y486014D01*
X223573Y486226D01*
X224563Y486369D01*
X225560Y486440D01*
X226560Y486440D01*
X227558Y486369D01*
X228547Y486226D01*
X229525Y486014D01*
X230484Y485732D01*
X231421Y485383D01*
X232331Y484967D01*
X233208Y484488D01*
X234050Y483947D01*
X234850Y483348D01*
X235606Y482693D01*
X236313Y481986D01*
X236968Y481230D01*
X237567Y480430D01*
X238108Y479588D01*
X238587Y478711D01*
X239003Y477801D01*
X239352Y476864D01*
X239634Y475905D01*
X239846Y474927D01*
X239989Y473938D01*
X240060Y472940D01*
X240060Y471940D01*
X288320Y471940D02*
X288249Y470943D01*
X288106Y469953D01*
X287894Y468976D01*
X287612Y468016D01*
X287263Y467079D01*
X286847Y466169D01*
X286368Y465292D01*
X285827Y464450D01*
X285228Y463650D01*
X284573Y462894D01*
X283866Y462187D01*
X283110Y461532D01*
X282310Y460933D01*
X281468Y460392D01*
X280591Y459913D01*
X279681Y459497D01*
X278744Y459148D01*
X277785Y458866D01*
X276807Y458654D01*
X275818Y458511D01*
X274820Y458440D01*
X273820Y458440D01*
X272823Y458511D01*
X271833Y458654D01*
X270856Y458866D01*
X269896Y459148D01*
X268959Y459497D01*
X268049Y459913D01*
X267172Y460392D01*
X266330Y460933D01*
X265530Y461532D01*
X264774Y462187D01*
X264067Y462894D01*
X263412Y463650D01*
X262813Y464450D01*
X262272Y465292D01*
X261793Y466169D01*
X261377Y467079D01*
X261028Y468016D01*
X260746Y468976D01*
X260534Y469953D01*
X260391Y470943D01*
X260320Y471940D01*
X260320Y472940D01*
X260391Y473938D01*
X260534Y474927D01*
X260746Y475905D01*
X261028Y476864D01*
X261377Y477801D01*
X261793Y478711D01*
X262272Y479588D01*
X262813Y480430D01*
X263412Y481230D01*
X264067Y481986D01*
X264774Y482693D01*
X265530Y483348D01*
X266330Y483947D01*
X267172Y484488D01*
X268049Y484967D01*
X268959Y485383D01*
X269896Y485732D01*
X270856Y486014D01*
X271833Y486226D01*
X272823Y486369D01*
X273820Y486440D01*
X274820Y486440D01*
X275818Y486369D01*
X276807Y486226D01*
X277785Y486014D01*
X278744Y485732D01*
X279681Y485383D01*
X280591Y484967D01*
X281468Y484488D01*
X282310Y483947D01*
X283110Y483348D01*
X283866Y482693D01*
X284573Y481986D01*
X285228Y481230D01*
X285827Y480430D01*
X286368Y479588D01*
X286847Y478711D01*
X287263Y477801D01*
X287612Y476864D01*
X287894Y475905D01*
X288106Y474927D01*
X288249Y473938D01*
X288320Y472940D01*
X288320Y471940D01*
X334040Y471940D02*
X333969Y470943D01*
X333826Y469953D01*
X333614Y468976D01*
X333332Y468016D01*
X332983Y467079D01*
X332567Y466169D01*
X332088Y465292D01*
X331547Y464450D01*
X330948Y463650D01*
X330293Y462894D01*
X329586Y462187D01*
X328830Y461532D01*
X328030Y460933D01*
X327188Y460392D01*
X326311Y459913D01*
X325401Y459497D01*
X324464Y459148D01*
X323505Y458866D01*
X322527Y458654D01*
X321538Y458511D01*
X320540Y458440D01*
X319540Y458440D01*
X318543Y458511D01*
X317553Y458654D01*
X316576Y458866D01*
X315616Y459148D01*
X314679Y459497D01*
X313769Y459913D01*
X312892Y460392D01*
X312050Y460933D01*
X311250Y461532D01*
X310494Y462187D01*
X309787Y462894D01*
X309132Y463650D01*
X308533Y464450D01*
X307992Y465292D01*
X307513Y466169D01*
X307097Y467079D01*
X306748Y468016D01*
X306466Y468976D01*
X306254Y469953D01*
X306111Y470943D01*
X306040Y471940D01*
X306040Y472940D01*
X306111Y473938D01*
X306254Y474927D01*
X306466Y475905D01*
X306748Y476864D01*
X307097Y477801D01*
X307513Y478711D01*
X307992Y479588D01*
X308533Y480430D01*
X309132Y481230D01*
X309787Y481986D01*
X310494Y482693D01*
X311250Y483348D01*
X312050Y483947D01*
X312892Y484488D01*
X313769Y484967D01*
X314679Y485383D01*
X315616Y485732D01*
X316576Y486014D01*
X317553Y486226D01*
X318543Y486369D01*
X319540Y486440D01*
X320540Y486440D01*
X321538Y486369D01*
X322527Y486226D01*
X323505Y486014D01*
X324464Y485732D01*
X325401Y485383D01*
X326311Y484967D01*
X327188Y484488D01*
X328030Y483947D01*
X328830Y483348D01*
X329586Y482693D01*
X330293Y481986D01*
X330948Y481230D01*
X331547Y480430D01*
X332088Y479588D01*
X332567Y478711D01*
X332983Y477801D01*
X333332Y476864D01*
X333614Y475905D01*
X333826Y474927D01*
X333969Y473938D01*
X334040Y472940D01*
X334040Y471940D01*
X382300Y474480D02*
X382229Y473483D01*
X382086Y472493D01*
X381874Y471516D01*
X381592Y470556D01*
X381243Y469619D01*
X380827Y468709D01*
X380348Y467832D01*
X379807Y466990D01*
X379208Y466190D01*
X378553Y465434D01*
X377846Y464727D01*
X377090Y464072D01*
X376290Y463473D01*
X375448Y462932D01*
X374571Y462453D01*
X373661Y462037D01*
X372724Y461688D01*
X371765Y461406D01*
X370787Y461194D01*
X369798Y461051D01*
X368800Y460980D01*
X367800Y460980D01*
X366803Y461051D01*
X365813Y461194D01*
X364836Y461406D01*
X363876Y461688D01*
X362939Y462037D01*
X362029Y462453D01*
X361152Y462932D01*
X360310Y463473D01*
X359510Y464072D01*
X358754Y464727D01*
X358047Y465434D01*
X357392Y466190D01*
X356793Y466990D01*
X356252Y467832D01*
X355773Y468709D01*
X355357Y469619D01*
X355008Y470556D01*
X354726Y471516D01*
X354514Y472493D01*
X354371Y473483D01*
X354300Y474480D01*
X354300Y475480D01*
X354371Y476478D01*
X354514Y477467D01*
X354726Y478445D01*
X355008Y479404D01*
X355357Y480341D01*
X355773Y481251D01*
X356252Y482128D01*
X356793Y482970D01*
X357392Y483770D01*
X358047Y484526D01*
X358754Y485233D01*
X359510Y485888D01*
X360310Y486487D01*
X361152Y487028D01*
X362029Y487507D01*
X362939Y487923D01*
X363876Y488272D01*
X364836Y488554D01*
X365813Y488766D01*
X366803Y488909D01*
X367800Y488980D01*
X368800Y488980D01*
X369798Y488909D01*
X370787Y488766D01*
X371765Y488554D01*
X372724Y488272D01*
X373661Y487923D01*
X374571Y487507D01*
X375448Y487028D01*
X376290Y486487D01*
X377090Y485888D01*
X377846Y485233D01*
X378553Y484526D01*
X379208Y483770D01*
X379807Y482970D01*
X380348Y482128D01*
X380827Y481251D01*
X381243Y480341D01*
X381592Y479404D01*
X381874Y478445D01*
X382086Y477467D01*
X382229Y476478D01*
X382300Y475480D01*
X382300Y474480D01*
X430560Y477020D02*
X430489Y476023D01*
X430346Y475033D01*
X430134Y474056D01*
X429852Y473096D01*
X429503Y472159D01*
X429087Y471249D01*
X428608Y470372D01*
X428067Y469530D01*
X427468Y468730D01*
X426813Y467974D01*
X426106Y467267D01*
X425350Y466612D01*
X424550Y466013D01*
X423708Y465472D01*
X422831Y464993D01*
X421921Y464577D01*
X420984Y464228D01*
X420025Y463946D01*
X419047Y463734D01*
X418058Y463591D01*
X417060Y463520D01*
X416060Y463520D01*
X415063Y463591D01*
X414073Y463734D01*
X413096Y463946D01*
X412136Y464228D01*
X411199Y464577D01*
X410289Y464993D01*
X409412Y465472D01*
X408570Y466013D01*
X407770Y466612D01*
X407014Y467267D01*
X406307Y467974D01*
X405652Y468730D01*
X405053Y469530D01*
X404512Y470372D01*
X404033Y471249D01*
X403617Y472159D01*
X403268Y473096D01*
X402986Y474056D01*
X402774Y475033D01*
X402631Y476023D01*
X402560Y477020D01*
X402560Y478020D01*
X402631Y479018D01*
X402774Y480007D01*
X402986Y480985D01*
X403268Y481944D01*
X403617Y482881D01*
X404033Y483791D01*
X404512Y484668D01*
X405053Y485510D01*
X405652Y486310D01*
X406307Y487066D01*
X407014Y487773D01*
X407770Y488428D01*
X408570Y489027D01*
X409412Y489568D01*
X410289Y490047D01*
X411199Y490463D01*
X412136Y490812D01*
X413096Y491094D01*
X414073Y491306D01*
X415063Y491449D01*
X416060Y491520D01*
X417060Y491520D01*
X418058Y491449D01*
X419047Y491306D01*
X420025Y491094D01*
X420984Y490812D01*
X421921Y490463D01*
X422831Y490047D01*
X423708Y489568D01*
X424550Y489027D01*
X425350Y488428D01*
X426106Y487773D01*
X426813Y487066D01*
X427468Y486310D01*
X428067Y485510D01*
X428608Y484668D01*
X429087Y483791D01*
X429503Y482881D01*
X429852Y481944D01*
X430134Y480985D01*
X430346Y480007D01*
X430489Y479018D01*
X430560Y478020D01*
X430560Y477020D01*
X476280Y477020D02*
X476209Y476023D01*
X476066Y475033D01*
X475854Y474056D01*
X475572Y473096D01*
X475223Y472159D01*
X474807Y471249D01*
X474328Y470372D01*
X473787Y469530D01*
X473188Y468730D01*
X472533Y467974D01*
X471826Y467267D01*
X471070Y466612D01*
X470270Y466013D01*
X469428Y465472D01*
X468551Y464993D01*
X467641Y464577D01*
X466704Y464228D01*
X465745Y463946D01*
X464767Y463734D01*
X463778Y463591D01*
X462780Y463520D01*
X461780Y463520D01*
X460783Y463591D01*
X459793Y463734D01*
X458816Y463946D01*
X457856Y464228D01*
X456919Y464577D01*
X456009Y464993D01*
X455132Y465472D01*
X454290Y466013D01*
X453490Y466612D01*
X452734Y467267D01*
X452027Y467974D01*
X451372Y468730D01*
X450773Y469530D01*
X450232Y470372D01*
X449753Y471249D01*
X449337Y472159D01*
X448988Y473096D01*
X448706Y474056D01*
X448494Y475033D01*
X448351Y476023D01*
X448280Y477020D01*
X448280Y478020D01*
X448351Y479018D01*
X448494Y480007D01*
X448706Y480985D01*
X448988Y481944D01*
X449337Y482881D01*
X449753Y483791D01*
X450232Y484668D01*
X450773Y485510D01*
X451372Y486310D01*
X452027Y487066D01*
X452734Y487773D01*
X453490Y488428D01*
X454290Y489027D01*
X455132Y489568D01*
X456009Y490047D01*
X456919Y490463D01*
X457856Y490812D01*
X458816Y491094D01*
X459793Y491306D01*
X460783Y491449D01*
X461780Y491520D01*
X462780Y491520D01*
X463778Y491449D01*
X464767Y491306D01*
X465745Y491094D01*
X466704Y490812D01*
X467641Y490463D01*
X468551Y490047D01*
X469428Y489568D01*
X470270Y489027D01*
X471070Y488428D01*
X471826Y487773D01*
X472533Y487066D01*
X473188Y486310D01*
X473787Y485510D01*
X474328Y484668D01*
X474807Y483791D01*
X475223Y482881D01*
X475572Y481944D01*
X475854Y480985D01*
X476066Y480007D01*
X476209Y479018D01*
X476280Y478020D01*
X476280Y477020D01*
X524540Y477020D02*
X524469Y476023D01*
X524326Y475033D01*
X524114Y474056D01*
X523832Y473096D01*
X523483Y472159D01*
X523067Y471249D01*
X522588Y470372D01*
X522047Y469530D01*
X521448Y468730D01*
X520793Y467974D01*
X520086Y467267D01*
X519330Y466612D01*
X518530Y466013D01*
X517688Y465472D01*
X516811Y464993D01*
X515901Y464577D01*
X514964Y464228D01*
X514005Y463946D01*
X513027Y463734D01*
X512038Y463591D01*
X511040Y463520D01*
X510040Y463520D01*
X509043Y463591D01*
X508053Y463734D01*
X507076Y463946D01*
X506116Y464228D01*
X505179Y464577D01*
X504269Y464993D01*
X503392Y465472D01*
X502550Y466013D01*
X501750Y466612D01*
X500994Y467267D01*
X500287Y467974D01*
X499632Y468730D01*
X499033Y469530D01*
X498492Y470372D01*
X498013Y471249D01*
X497597Y472159D01*
X497248Y473096D01*
X496966Y474056D01*
X496754Y475033D01*
X496611Y476023D01*
X496540Y477020D01*
X496540Y478020D01*
X496611Y479018D01*
X496754Y480007D01*
X496966Y480985D01*
X497248Y481944D01*
X497597Y482881D01*
X498013Y483791D01*
X498492Y484668D01*
X499033Y485510D01*
X499632Y486310D01*
X500287Y487066D01*
X500994Y487773D01*
X501750Y488428D01*
X502550Y489027D01*
X503392Y489568D01*
X504269Y490047D01*
X505179Y490463D01*
X506116Y490812D01*
X507076Y491094D01*
X508053Y491306D01*
X509043Y491449D01*
X510040Y491520D01*
X511040Y491520D01*
X512038Y491449D01*
X513027Y491306D01*
X514005Y491094D01*
X514964Y490812D01*
X515901Y490463D01*
X516811Y490047D01*
X517688Y489568D01*
X518530Y489027D01*
X519330Y488428D01*
X520086Y487773D01*
X520793Y487066D01*
X521448Y486310D01*
X522047Y485510D01*
X522588Y484668D01*
X523067Y483791D01*
X523483Y482881D01*
X523832Y481944D01*
X524114Y480985D01*
X524326Y480007D01*
X524469Y479018D01*
X524540Y478020D01*
X524540Y477020D01*
X570260Y477020D02*
X570189Y476023D01*
X570046Y475033D01*
X569834Y474056D01*
X569552Y473096D01*
X569203Y472159D01*
X568787Y471249D01*
X568308Y470372D01*
X567767Y469530D01*
X567168Y468730D01*
X566513Y467974D01*
X565806Y467267D01*
X565050Y466612D01*
X564250Y466013D01*
X563408Y465472D01*
X562531Y464993D01*
X561621Y464577D01*
X560684Y464228D01*
X559725Y463946D01*
X558747Y463734D01*
X557758Y463591D01*
X556760Y463520D01*
X555760Y463520D01*
X554763Y463591D01*
X553773Y463734D01*
X552796Y463946D01*
X551836Y464228D01*
X550899Y464577D01*
X549989Y464993D01*
X549112Y465472D01*
X548270Y466013D01*
X547470Y466612D01*
X546714Y467267D01*
X546007Y467974D01*
X545352Y468730D01*
X544753Y469530D01*
X544212Y470372D01*
X543733Y471249D01*
X543317Y472159D01*
X542968Y473096D01*
X542686Y474056D01*
X542474Y475033D01*
X542331Y476023D01*
X542260Y477020D01*
X542260Y478020D01*
X542331Y479018D01*
X542474Y480007D01*
X542686Y480985D01*
X542968Y481944D01*
X543317Y482881D01*
X543733Y483791D01*
X544212Y484668D01*
X544753Y485510D01*
X545352Y486310D01*
X546007Y487066D01*
X546714Y487773D01*
X547470Y488428D01*
X548270Y489027D01*
X549112Y489568D01*
X549989Y490047D01*
X550899Y490463D01*
X551836Y490812D01*
X552796Y491094D01*
X553773Y491306D01*
X554763Y491449D01*
X555760Y491520D01*
X556760Y491520D01*
X557758Y491449D01*
X558747Y491306D01*
X559725Y491094D01*
X560684Y490812D01*
X561621Y490463D01*
X562531Y490047D01*
X563408Y489568D01*
X564250Y489027D01*
X565050Y488428D01*
X565806Y487773D01*
X566513Y487066D01*
X567168Y486310D01*
X567767Y485510D01*
X568308Y484668D01*
X568787Y483791D01*
X569203Y482881D01*
X569552Y481944D01*
X569834Y480985D01*
X570046Y480007D01*
X570189Y479018D01*
X570260Y478020D01*
X570260Y477020D01*
X615980Y477020D02*
X615909Y476023D01*
X615766Y475033D01*
X615554Y474056D01*
X615272Y473096D01*
X614923Y472159D01*
X614507Y471249D01*
X614028Y470372D01*
X613487Y469530D01*
X612888Y468730D01*
X612233Y467974D01*
X611526Y467267D01*
X610770Y466612D01*
X609970Y466013D01*
X609128Y465472D01*
X608251Y464993D01*
X607341Y464577D01*
X606404Y464228D01*
X605445Y463946D01*
X604467Y463734D01*
X603478Y463591D01*
X602480Y463520D01*
X601480Y463520D01*
X600483Y463591D01*
X599493Y463734D01*
X598516Y463946D01*
X597556Y464228D01*
X596619Y464577D01*
X595709Y464993D01*
X594832Y465472D01*
X593990Y466013D01*
X593190Y466612D01*
X592434Y467267D01*
X591727Y467974D01*
X591072Y468730D01*
X590473Y469530D01*
X589932Y470372D01*
X589453Y471249D01*
X589037Y472159D01*
X588688Y473096D01*
X588406Y474056D01*
X588194Y475033D01*
X588051Y476023D01*
X587980Y477020D01*
X587980Y478020D01*
X588051Y479018D01*
X588194Y480007D01*
X588406Y480985D01*
X588688Y481944D01*
X589037Y482881D01*
X589453Y483791D01*
X589932Y484668D01*
X590473Y485510D01*
X591072Y486310D01*
X591727Y487066D01*
X592434Y487773D01*
X593190Y488428D01*
X593990Y489027D01*
X594832Y489568D01*
X595709Y490047D01*
X596619Y490463D01*
X597556Y490812D01*
X598516Y491094D01*
X599493Y491306D01*
X600483Y491449D01*
X601480Y491520D01*
X602480Y491520D01*
X603478Y491449D01*
X604467Y491306D01*
X605445Y491094D01*
X606404Y490812D01*
X607341Y490463D01*
X608251Y490047D01*
X609128Y489568D01*
X609970Y489027D01*
X610770Y488428D01*
X611526Y487773D01*
X612233Y487066D01*
X612888Y486310D01*
X613487Y485510D01*
X614028Y484668D01*
X614507Y483791D01*
X614923Y482881D01*
X615272Y481944D01*
X615554Y480985D01*
X615766Y480007D01*
X615909Y479018D01*
X615980Y478020D01*
X615980Y477020D01*
X659160Y477020D02*
X659089Y476023D01*
X658946Y475033D01*
X658734Y474056D01*
X658452Y473096D01*
X658103Y472159D01*
X657687Y471249D01*
X657208Y470372D01*
X656667Y469530D01*
X656068Y468730D01*
X655413Y467974D01*
X654706Y467267D01*
X653950Y466612D01*
X653150Y466013D01*
X652308Y465472D01*
X651431Y464993D01*
X650521Y464577D01*
X649584Y464228D01*
X648625Y463946D01*
X647647Y463734D01*
X646658Y463591D01*
X645660Y463520D01*
X644660Y463520D01*
X643663Y463591D01*
X642673Y463734D01*
X641696Y463946D01*
X640736Y464228D01*
X639799Y464577D01*
X638889Y464993D01*
X638012Y465472D01*
X637170Y466013D01*
X636370Y466612D01*
X635614Y467267D01*
X634907Y467974D01*
X634252Y468730D01*
X633653Y469530D01*
X633112Y470372D01*
X632633Y471249D01*
X632217Y472159D01*
X631868Y473096D01*
X631586Y474056D01*
X631374Y475033D01*
X631231Y476023D01*
X631160Y477020D01*
X631160Y478020D01*
X631231Y479018D01*
X631374Y480007D01*
X631586Y480985D01*
X631868Y481944D01*
X632217Y482881D01*
X632633Y483791D01*
X633112Y484668D01*
X633653Y485510D01*
X634252Y486310D01*
X634907Y487066D01*
X635614Y487773D01*
X636370Y488428D01*
X637170Y489027D01*
X638012Y489568D01*
X638889Y490047D01*
X639799Y490463D01*
X640736Y490812D01*
X641696Y491094D01*
X642673Y491306D01*
X643663Y491449D01*
X644660Y491520D01*
X645660Y491520D01*
X646658Y491449D01*
X647647Y491306D01*
X648625Y491094D01*
X649584Y490812D01*
X650521Y490463D01*
X651431Y490047D01*
X652308Y489568D01*
X653150Y489027D01*
X653950Y488428D01*
X654706Y487773D01*
X655413Y487066D01*
X656068Y486310D01*
X656667Y485510D01*
X657208Y484668D01*
X657687Y483791D01*
X658103Y482881D01*
X658452Y481944D01*
X658734Y480985D01*
X658946Y480007D01*
X659089Y479018D01*
X659160Y478020D01*
X659160Y477020D01*
X212120Y703080D02*
X212049Y702083D01*
X211906Y701093D01*
X211694Y700116D01*
X211412Y699156D01*
X211063Y698219D01*
X210647Y697309D01*
X210168Y696432D01*
X209627Y695590D01*
X209028Y694790D01*
X208373Y694034D01*
X207666Y693327D01*
X206910Y692672D01*
X206110Y692073D01*
X205268Y691532D01*
X204391Y691053D01*
X203481Y690637D01*
X202544Y690288D01*
X201585Y690006D01*
X200607Y689794D01*
X199618Y689651D01*
X198620Y689580D01*
X197620Y689580D01*
X196623Y689651D01*
X195633Y689794D01*
X194656Y690006D01*
X193696Y690288D01*
X192759Y690637D01*
X191849Y691053D01*
X190972Y691532D01*
X190130Y692073D01*
X189330Y692672D01*
X188574Y693327D01*
X187867Y694034D01*
X187212Y694790D01*
X186613Y695590D01*
X186072Y696432D01*
X185593Y697309D01*
X185177Y698219D01*
X184828Y699156D01*
X184546Y700116D01*
X184334Y701093D01*
X184191Y702083D01*
X184120Y703080D01*
X184120Y704080D01*
X184191Y705078D01*
X184334Y706067D01*
X184546Y707045D01*
X184828Y708004D01*
X185177Y708941D01*
X185593Y709851D01*
X186072Y710728D01*
X186613Y711570D01*
X187212Y712370D01*
X187867Y713126D01*
X188574Y713833D01*
X189330Y714488D01*
X190130Y715087D01*
X190972Y715628D01*
X191849Y716107D01*
X192759Y716523D01*
X193696Y716872D01*
X194656Y717154D01*
X195633Y717366D01*
X196623Y717509D01*
X197620Y717580D01*
X198620Y717580D01*
X199618Y717509D01*
X200607Y717366D01*
X201585Y717154D01*
X202544Y716872D01*
X203481Y716523D01*
X204391Y716107D01*
X205268Y715628D01*
X206110Y715087D01*
X206910Y714488D01*
X207666Y713833D01*
X208373Y713126D01*
X209028Y712370D01*
X209627Y711570D01*
X210168Y710728D01*
X210647Y709851D01*
X211063Y708941D01*
X211412Y708004D01*
X211694Y707045D01*
X211906Y706067D01*
X212049Y705078D01*
X212120Y704080D01*
X212120Y703080D01*
X212120Y654820D02*
X212049Y653823D01*
X211906Y652833D01*
X211694Y651856D01*
X211412Y650896D01*
X211063Y649959D01*
X210647Y649049D01*
X210168Y648172D01*
X209627Y647330D01*
X209028Y646530D01*
X208373Y645774D01*
X207666Y645067D01*
X206910Y644412D01*
X206110Y643813D01*
X205268Y643272D01*
X204391Y642793D01*
X203481Y642377D01*
X202544Y642028D01*
X201585Y641746D01*
X200607Y641534D01*
X199618Y641391D01*
X198620Y641320D01*
X197620Y641320D01*
X196623Y641391D01*
X195633Y641534D01*
X194656Y641746D01*
X193696Y642028D01*
X192759Y642377D01*
X191849Y642793D01*
X190972Y643272D01*
X190130Y643813D01*
X189330Y644412D01*
X188574Y645067D01*
X187867Y645774D01*
X187212Y646530D01*
X186613Y647330D01*
X186072Y648172D01*
X185593Y649049D01*
X185177Y649959D01*
X184828Y650896D01*
X184546Y651856D01*
X184334Y652833D01*
X184191Y653823D01*
X184120Y654820D01*
X184120Y655820D01*
X184191Y656818D01*
X184334Y657807D01*
X184546Y658785D01*
X184828Y659744D01*
X185177Y660681D01*
X185593Y661591D01*
X186072Y662468D01*
X186613Y663310D01*
X187212Y664110D01*
X187867Y664866D01*
X188574Y665573D01*
X189330Y666228D01*
X190130Y666827D01*
X190972Y667368D01*
X191849Y667847D01*
X192759Y668263D01*
X193696Y668612D01*
X194656Y668894D01*
X195633Y669106D01*
X196623Y669249D01*
X197620Y669320D01*
X198620Y669320D01*
X199618Y669249D01*
X200607Y669106D01*
X201585Y668894D01*
X202544Y668612D01*
X203481Y668263D01*
X204391Y667847D01*
X205268Y667368D01*
X206110Y666827D01*
X206910Y666228D01*
X207666Y665573D01*
X208373Y664866D01*
X209028Y664110D01*
X209627Y663310D01*
X210168Y662468D01*
X210647Y661591D01*
X211063Y660681D01*
X211412Y659744D01*
X211694Y658785D01*
X211906Y657807D01*
X212049Y656818D01*
X212120Y655820D01*
X212120Y654820D01*
X212120Y609100D02*
X212049Y608103D01*
X211906Y607113D01*
X211694Y606136D01*
X211412Y605176D01*
X211063Y604239D01*
X210647Y603329D01*
X210168Y602452D01*
X209627Y601610D01*
X209028Y600810D01*
X208373Y600054D01*
X207666Y599347D01*
X206910Y598692D01*
X206110Y598093D01*
X205268Y597552D01*
X204391Y597073D01*
X203481Y596657D01*
X202544Y596308D01*
X201585Y596026D01*
X200607Y595814D01*
X199618Y595671D01*
X198620Y595600D01*
X197620Y595600D01*
X196623Y595671D01*
X195633Y595814D01*
X194656Y596026D01*
X193696Y596308D01*
X192759Y596657D01*
X191849Y597073D01*
X190972Y597552D01*
X190130Y598093D01*
X189330Y598692D01*
X188574Y599347D01*
X187867Y600054D01*
X187212Y600810D01*
X186613Y601610D01*
X186072Y602452D01*
X185593Y603329D01*
X185177Y604239D01*
X184828Y605176D01*
X184546Y606136D01*
X184334Y607113D01*
X184191Y608103D01*
X184120Y609100D01*
X184120Y610100D01*
X184191Y611098D01*
X184334Y612087D01*
X184546Y613065D01*
X184828Y614024D01*
X185177Y614961D01*
X185593Y615871D01*
X186072Y616748D01*
X186613Y617590D01*
X187212Y618390D01*
X187867Y619146D01*
X188574Y619853D01*
X189330Y620508D01*
X190130Y621107D01*
X190972Y621648D01*
X191849Y622127D01*
X192759Y622543D01*
X193696Y622892D01*
X194656Y623174D01*
X195633Y623386D01*
X196623Y623529D01*
X197620Y623600D01*
X198620Y623600D01*
X199618Y623529D01*
X200607Y623386D01*
X201585Y623174D01*
X202544Y622892D01*
X203481Y622543D01*
X204391Y622127D01*
X205268Y621648D01*
X206110Y621107D01*
X206910Y620508D01*
X207666Y619853D01*
X208373Y619146D01*
X209028Y618390D01*
X209627Y617590D01*
X210168Y616748D01*
X210647Y615871D01*
X211063Y614961D01*
X211412Y614024D01*
X211694Y613065D01*
X211906Y612087D01*
X212049Y611098D01*
X212120Y610100D01*
X212120Y609100D01*
X212120Y565920D02*
X212049Y564923D01*
X211906Y563933D01*
X211694Y562956D01*
X211412Y561996D01*
X211063Y561059D01*
X210647Y560149D01*
X210168Y559272D01*
X209627Y558430D01*
X209028Y557630D01*
X208373Y556874D01*
X207666Y556167D01*
X206910Y555512D01*
X206110Y554913D01*
X205268Y554372D01*
X204391Y553893D01*
X203481Y553477D01*
X202544Y553128D01*
X201585Y552846D01*
X200607Y552634D01*
X199618Y552491D01*
X198620Y552420D01*
X197620Y552420D01*
X196623Y552491D01*
X195633Y552634D01*
X194656Y552846D01*
X193696Y553128D01*
X192759Y553477D01*
X191849Y553893D01*
X190972Y554372D01*
X190130Y554913D01*
X189330Y555512D01*
X188574Y556167D01*
X187867Y556874D01*
X187212Y557630D01*
X186613Y558430D01*
X186072Y559272D01*
X185593Y560149D01*
X185177Y561059D01*
X184828Y561996D01*
X184546Y562956D01*
X184334Y563933D01*
X184191Y564923D01*
X184120Y565920D01*
X184120Y566920D01*
X184191Y567918D01*
X184334Y568907D01*
X184546Y569885D01*
X184828Y570844D01*
X185177Y571781D01*
X185593Y572691D01*
X186072Y573568D01*
X186613Y574410D01*
X187212Y575210D01*
X187867Y575966D01*
X188574Y576673D01*
X189330Y577328D01*
X190130Y577927D01*
X190972Y578468D01*
X191849Y578947D01*
X192759Y579363D01*
X193696Y579712D01*
X194656Y579994D01*
X195633Y580206D01*
X196623Y580349D01*
X197620Y580420D01*
X198620Y580420D01*
X199618Y580349D01*
X200607Y580206D01*
X201585Y579994D01*
X202544Y579712D01*
X203481Y579363D01*
X204391Y578947D01*
X205268Y578468D01*
X206110Y577927D01*
X206910Y577328D01*
X207666Y576673D01*
X208373Y575966D01*
X209028Y575210D01*
X209627Y574410D01*
X210168Y573568D01*
X210647Y572691D01*
X211063Y571781D01*
X211412Y570844D01*
X211694Y569885D01*
X211906Y568907D01*
X212049Y567918D01*
X212120Y566920D01*
X212120Y565920D01*
X214660Y525280D02*
X214589Y524283D01*
X214446Y523293D01*
X214234Y522316D01*
X213952Y521356D01*
X213603Y520419D01*
X213187Y519509D01*
X212708Y518632D01*
X212167Y517790D01*
X211568Y516990D01*
X210913Y516234D01*
X210206Y515527D01*
X209450Y514872D01*
X208650Y514273D01*
X207808Y513732D01*
X206931Y513253D01*
X206021Y512837D01*
X205084Y512488D01*
X204125Y512206D01*
X203147Y511994D01*
X202158Y511851D01*
X201160Y511780D01*
X200160Y511780D01*
X199163Y511851D01*
X198173Y511994D01*
X197196Y512206D01*
X196236Y512488D01*
X195299Y512837D01*
X194389Y513253D01*
X193512Y513732D01*
X192670Y514273D01*
X191870Y514872D01*
X191114Y515527D01*
X190407Y516234D01*
X189752Y516990D01*
X189153Y517790D01*
X188612Y518632D01*
X188133Y519509D01*
X187717Y520419D01*
X187368Y521356D01*
X187086Y522316D01*
X186874Y523293D01*
X186731Y524283D01*
X186660Y525280D01*
X186660Y526280D01*
X186731Y527278D01*
X186874Y528267D01*
X187086Y529245D01*
X187368Y530204D01*
X187717Y531141D01*
X188133Y532051D01*
X188612Y532928D01*
X189153Y533770D01*
X189752Y534570D01*
X190407Y535326D01*
X191114Y536033D01*
X191870Y536688D01*
X192670Y537287D01*
X193512Y537828D01*
X194389Y538307D01*
X195299Y538723D01*
X196236Y539072D01*
X197196Y539354D01*
X198173Y539566D01*
X199163Y539709D01*
X200160Y539780D01*
X201160Y539780D01*
X202158Y539709D01*
X203147Y539566D01*
X204125Y539354D01*
X205084Y539072D01*
X206021Y538723D01*
X206931Y538307D01*
X207808Y537828D01*
X208650Y537287D01*
X209450Y536688D01*
X210206Y536033D01*
X210913Y535326D01*
X211568Y534570D01*
X212167Y533770D01*
X212708Y532928D01*
X213187Y532051D01*
X213603Y531141D01*
X213952Y530204D01*
X214234Y529245D01*
X214446Y528267D01*
X214589Y527278D01*
X214660Y526280D01*
X214660Y525280D01*
X422940Y708160D02*
X422869Y707163D01*
X422726Y706173D01*
X422514Y705196D01*
X422232Y704236D01*
X421883Y703299D01*
X421467Y702389D01*
X420988Y701512D01*
X420447Y700670D01*
X419848Y699870D01*
X419193Y699114D01*
X418486Y698407D01*
X417730Y697752D01*
X416930Y697153D01*
X416088Y696612D01*
X415211Y696133D01*
X414301Y695717D01*
X413364Y695368D01*
X412405Y695086D01*
X411427Y694874D01*
X410438Y694731D01*
X409440Y694660D01*
X408440Y694660D01*
X407443Y694731D01*
X406453Y694874D01*
X405476Y695086D01*
X404516Y695368D01*
X403579Y695717D01*
X402669Y696133D01*
X401792Y696612D01*
X400950Y697153D01*
X400150Y697752D01*
X399394Y698407D01*
X398687Y699114D01*
X398032Y699870D01*
X397433Y700670D01*
X396892Y701512D01*
X396413Y702389D01*
X395997Y703299D01*
X395648Y704236D01*
X395366Y705196D01*
X395154Y706173D01*
X395011Y707163D01*
X394940Y708160D01*
X394940Y709160D01*
X395011Y710158D01*
X395154Y711147D01*
X395366Y712125D01*
X395648Y713084D01*
X395997Y714021D01*
X396413Y714931D01*
X396892Y715808D01*
X397433Y716650D01*
X398032Y717450D01*
X398687Y718206D01*
X399394Y718913D01*
X400150Y719568D01*
X400950Y720167D01*
X401792Y720708D01*
X402669Y721187D01*
X403579Y721603D01*
X404516Y721952D01*
X405476Y722234D01*
X406453Y722446D01*
X407443Y722589D01*
X408440Y722660D01*
X409440Y722660D01*
X410438Y722589D01*
X411427Y722446D01*
X412405Y722234D01*
X413364Y721952D01*
X414301Y721603D01*
X415211Y721187D01*
X416088Y720708D01*
X416930Y720167D01*
X417730Y719568D01*
X418486Y718913D01*
X419193Y718206D01*
X419848Y717450D01*
X420447Y716650D01*
X420988Y715808D01*
X421467Y714931D01*
X421883Y714021D01*
X422232Y713084D01*
X422514Y712125D01*
X422726Y711147D01*
X422869Y710158D01*
X422940Y709160D01*
X422940Y708160D01*
X425480Y662440D02*
X425409Y661443D01*
X425266Y660453D01*
X425054Y659476D01*
X424772Y658516D01*
X424423Y657579D01*
X424007Y656669D01*
X423528Y655792D01*
X422987Y654950D01*
X422388Y654150D01*
X421733Y653394D01*
X421026Y652687D01*
X420270Y652032D01*
X419470Y651433D01*
X418628Y650892D01*
X417751Y650413D01*
X416841Y649997D01*
X415904Y649648D01*
X414945Y649366D01*
X413967Y649154D01*
X412978Y649011D01*
X411980Y648940D01*
X410980Y648940D01*
X409983Y649011D01*
X408993Y649154D01*
X408016Y649366D01*
X407056Y649648D01*
X406119Y649997D01*
X405209Y650413D01*
X404332Y650892D01*
X403490Y651433D01*
X402690Y652032D01*
X401934Y652687D01*
X401227Y653394D01*
X400572Y654150D01*
X399973Y654950D01*
X399432Y655792D01*
X398953Y656669D01*
X398537Y657579D01*
X398188Y658516D01*
X397906Y659476D01*
X397694Y660453D01*
X397551Y661443D01*
X397480Y662440D01*
X397480Y663440D01*
X397551Y664438D01*
X397694Y665427D01*
X397906Y666405D01*
X398188Y667364D01*
X398537Y668301D01*
X398953Y669211D01*
X399432Y670088D01*
X399973Y670930D01*
X400572Y671730D01*
X401227Y672486D01*
X401934Y673193D01*
X402690Y673848D01*
X403490Y674447D01*
X404332Y674988D01*
X405209Y675467D01*
X406119Y675883D01*
X407056Y676232D01*
X408016Y676514D01*
X408993Y676726D01*
X409983Y676869D01*
X410980Y676940D01*
X411980Y676940D01*
X412978Y676869D01*
X413967Y676726D01*
X414945Y676514D01*
X415904Y676232D01*
X416841Y675883D01*
X417751Y675467D01*
X418628Y674988D01*
X419470Y674447D01*
X420270Y673848D01*
X421026Y673193D01*
X421733Y672486D01*
X422388Y671730D01*
X422987Y670930D01*
X423528Y670088D01*
X424007Y669211D01*
X424423Y668301D01*
X424772Y667364D01*
X425054Y666405D01*
X425266Y665427D01*
X425409Y664438D01*
X425480Y663440D01*
X425480Y662440D01*
X425480Y616720D02*
X425409Y615723D01*
X425266Y614733D01*
X425054Y613756D01*
X424772Y612796D01*
X424423Y611859D01*
X424007Y610949D01*
X423528Y610072D01*
X422987Y609230D01*
X422388Y608430D01*
X421733Y607674D01*
X421026Y606967D01*
X420270Y606312D01*
X419470Y605713D01*
X418628Y605172D01*
X417751Y604693D01*
X416841Y604277D01*
X415904Y603928D01*
X414945Y603646D01*
X413967Y603434D01*
X412978Y603291D01*
X411980Y603220D01*
X410980Y603220D01*
X409983Y603291D01*
X408993Y603434D01*
X408016Y603646D01*
X407056Y603928D01*
X406119Y604277D01*
X405209Y604693D01*
X404332Y605172D01*
X403490Y605713D01*
X402690Y606312D01*
X401934Y606967D01*
X401227Y607674D01*
X400572Y608430D01*
X399973Y609230D01*
X399432Y610072D01*
X398953Y610949D01*
X398537Y611859D01*
X398188Y612796D01*
X397906Y613756D01*
X397694Y614733D01*
X397551Y615723D01*
X397480Y616720D01*
X397480Y617720D01*
X397551Y618718D01*
X397694Y619707D01*
X397906Y620685D01*
X398188Y621644D01*
X398537Y622581D01*
X398953Y623491D01*
X399432Y624368D01*
X399973Y625210D01*
X400572Y626010D01*
X401227Y626766D01*
X401934Y627473D01*
X402690Y628128D01*
X403490Y628727D01*
X404332Y629268D01*
X405209Y629747D01*
X406119Y630163D01*
X407056Y630512D01*
X408016Y630794D01*
X408993Y631006D01*
X409983Y631149D01*
X410980Y631220D01*
X411980Y631220D01*
X412978Y631149D01*
X413967Y631006D01*
X414945Y630794D01*
X415904Y630512D01*
X416841Y630163D01*
X417751Y629747D01*
X418628Y629268D01*
X419470Y628727D01*
X420270Y628128D01*
X421026Y627473D01*
X421733Y626766D01*
X422388Y626010D01*
X422987Y625210D01*
X423528Y624368D01*
X424007Y623491D01*
X424423Y622581D01*
X424772Y621644D01*
X425054Y620685D01*
X425266Y619707D01*
X425409Y618718D01*
X425480Y617720D01*
X425480Y616720D01*
X428020Y571000D02*
X427949Y570003D01*
X427806Y569013D01*
X427594Y568036D01*
X427312Y567076D01*
X426963Y566139D01*
X426547Y565229D01*
X426068Y564352D01*
X425527Y563510D01*
X424928Y562710D01*
X424273Y561954D01*
X423566Y561247D01*
X422810Y560592D01*
X422010Y559993D01*
X421168Y559452D01*
X420291Y558973D01*
X419381Y558557D01*
X418444Y558208D01*
X417485Y557926D01*
X416507Y557714D01*
X415518Y557571D01*
X414520Y557500D01*
X413520Y557500D01*
X412523Y557571D01*
X411533Y557714D01*
X410556Y557926D01*
X409596Y558208D01*
X408659Y558557D01*
X407749Y558973D01*
X406872Y559452D01*
X406030Y559993D01*
X405230Y560592D01*
X404474Y561247D01*
X403767Y561954D01*
X403112Y562710D01*
X402513Y563510D01*
X401972Y564352D01*
X401493Y565229D01*
X401077Y566139D01*
X400728Y567076D01*
X400446Y568036D01*
X400234Y569013D01*
X400091Y570003D01*
X400020Y571000D01*
X400020Y572000D01*
X400091Y572998D01*
X400234Y573987D01*
X400446Y574965D01*
X400728Y575924D01*
X401077Y576861D01*
X401493Y577771D01*
X401972Y578648D01*
X402513Y579490D01*
X403112Y580290D01*
X403767Y581046D01*
X404474Y581753D01*
X405230Y582408D01*
X406030Y583007D01*
X406872Y583548D01*
X407749Y584027D01*
X408659Y584443D01*
X409596Y584792D01*
X410556Y585074D01*
X411533Y585286D01*
X412523Y585429D01*
X413520Y585500D01*
X414520Y585500D01*
X415518Y585429D01*
X416507Y585286D01*
X417485Y585074D01*
X418444Y584792D01*
X419381Y584443D01*
X420291Y584027D01*
X421168Y583548D01*
X422010Y583007D01*
X422810Y582408D01*
X423566Y581753D01*
X424273Y581046D01*
X424928Y580290D01*
X425527Y579490D01*
X426068Y578648D01*
X426547Y577771D01*
X426963Y576861D01*
X427312Y575924D01*
X427594Y574965D01*
X427806Y573987D01*
X427949Y572998D01*
X428020Y572000D01*
X428020Y571000D01*
X428020Y525280D02*
X427949Y524283D01*
X427806Y523293D01*
X427594Y522316D01*
X427312Y521356D01*
X426963Y520419D01*
X426547Y519509D01*
X426068Y518632D01*
X425527Y517790D01*
X424928Y516990D01*
X424273Y516234D01*
X423566Y515527D01*
X422810Y514872D01*
X422010Y514273D01*
X421168Y513732D01*
X420291Y513253D01*
X419381Y512837D01*
X418444Y512488D01*
X417485Y512206D01*
X416507Y511994D01*
X415518Y511851D01*
X414520Y511780D01*
X413520Y511780D01*
X412523Y511851D01*
X411533Y511994D01*
X410556Y512206D01*
X409596Y512488D01*
X408659Y512837D01*
X407749Y513253D01*
X406872Y513732D01*
X406030Y514273D01*
X405230Y514872D01*
X404474Y515527D01*
X403767Y516234D01*
X403112Y516990D01*
X402513Y517790D01*
X401972Y518632D01*
X401493Y519509D01*
X401077Y520419D01*
X400728Y521356D01*
X400446Y522316D01*
X400234Y523293D01*
X400091Y524283D01*
X400020Y525280D01*
X400020Y526280D01*
X400091Y527278D01*
X400234Y528267D01*
X400446Y529245D01*
X400728Y530204D01*
X401077Y531141D01*
X401493Y532051D01*
X401972Y532928D01*
X402513Y533770D01*
X403112Y534570D01*
X403767Y535326D01*
X404474Y536033D01*
X405230Y536688D01*
X406030Y537287D01*
X406872Y537828D01*
X407749Y538307D01*
X408659Y538723D01*
X409596Y539072D01*
X410556Y539354D01*
X411533Y539566D01*
X412523Y539709D01*
X413520Y539780D01*
X414520Y539780D01*
X415518Y539709D01*
X416507Y539566D01*
X417485Y539354D01*
X418444Y539072D01*
X419381Y538723D01*
X420291Y538307D01*
X421168Y537828D01*
X422010Y537287D01*
X422810Y536688D01*
X423566Y536033D01*
X424273Y535326D01*
X424928Y534570D01*
X425527Y533770D01*
X426068Y532928D01*
X426547Y532051D01*
X426963Y531141D01*
X427312Y530204D01*
X427594Y529245D01*
X427806Y528267D01*
X427949Y527278D01*
X428020Y526280D01*
X428020Y525280D01*
M02*
