G04 EAGLE Gerber RS-274X export*
G75*
%MOMM*%
%FSLAX34Y34*%
%LPD*%
%INBottom Copper*%
%IPPOS*%
%AMOC8*
5,1,8,0,0,1.08239X$1,22.5*%
G01*
%ADD10C,1.879600*%
%ADD11C,1.879600*%
%ADD12C,6.197600*%
%ADD13C,1.500000*%
%ADD14C,1.700000*%
%ADD15C,1.524000*%
%ADD16C,0.304800*%
%ADD17C,0.254000*%
%ADD18C,1.066800*%


D10*
X279400Y393700D03*
X279400Y368300D03*
X279400Y342900D03*
X279400Y317500D03*
X279400Y292100D03*
X279400Y266700D03*
X279400Y241300D03*
X279400Y215900D03*
X279400Y190500D03*
X279400Y165100D03*
X279400Y139700D03*
X279400Y114300D03*
X279400Y88900D03*
X279400Y63500D03*
X279400Y38100D03*
X431800Y38100D03*
X431800Y63500D03*
X431800Y88900D03*
X431800Y114300D03*
X431800Y139700D03*
X431800Y165100D03*
X431800Y190500D03*
X431800Y215900D03*
X431800Y241300D03*
X431800Y266700D03*
X431800Y292100D03*
X431800Y317500D03*
X431800Y342900D03*
X431800Y368300D03*
X431800Y393700D03*
D11*
X498602Y63500D02*
X517398Y63500D01*
X517398Y88900D02*
X498602Y88900D01*
X498602Y114300D02*
X517398Y114300D01*
X517398Y139700D02*
X498602Y139700D01*
X498602Y203200D02*
X517398Y203200D01*
X517398Y228600D02*
X498602Y228600D01*
X498602Y254000D02*
X517398Y254000D01*
X517398Y279400D02*
X498602Y279400D01*
D12*
X76200Y50800D03*
X76200Y736600D03*
D10*
X584200Y38100D03*
X584200Y63500D03*
X584200Y88900D03*
X584200Y114300D03*
X584200Y139700D03*
X584200Y165100D03*
X584200Y190500D03*
X584200Y215900D03*
X584200Y241300D03*
X584200Y266700D03*
X584200Y292100D03*
X584200Y317500D03*
X584200Y342900D03*
X584200Y368300D03*
X584200Y393700D03*
X584200Y419100D03*
X584200Y444500D03*
X584200Y469900D03*
X584200Y495300D03*
X584200Y520700D03*
X584200Y546100D03*
X584200Y571500D03*
X508000Y419100D03*
X533400Y419100D03*
X508000Y342900D03*
X533400Y342900D03*
X203200Y551180D03*
X203200Y152400D03*
X25400Y551180D03*
X25400Y152400D03*
X139700Y685800D03*
X190500Y685800D03*
X304800Y685800D03*
X254000Y685800D03*
X482600Y546100D03*
X508000Y546100D03*
X533400Y546100D03*
X482600Y571500D03*
X508000Y571500D03*
X533400Y571500D03*
X482600Y596900D03*
X508000Y596900D03*
X533400Y596900D03*
X482600Y622300D03*
X508000Y622300D03*
X533400Y622300D03*
X482600Y647700D03*
X508000Y647700D03*
X533400Y647700D03*
X482600Y673100D03*
X508000Y673100D03*
X533400Y673100D03*
X482600Y698500D03*
X508000Y698500D03*
X533400Y698500D03*
X482600Y723900D03*
X508000Y723900D03*
X533400Y723900D03*
X635000Y292100D03*
X635000Y266700D03*
X635000Y241300D03*
X635000Y215900D03*
X635000Y190500D03*
X635000Y165100D03*
X635000Y139700D03*
X635000Y114300D03*
X635000Y88900D03*
X635000Y63500D03*
X635000Y38100D03*
D11*
X393700Y473202D02*
X393700Y491998D01*
X368300Y491998D02*
X368300Y473202D01*
X342900Y473202D02*
X342900Y491998D01*
X317500Y491998D02*
X317500Y473202D01*
D10*
X383540Y558800D03*
X317500Y558800D03*
D13*
X254000Y444500D03*
X254000Y546100D03*
X279400Y444500D03*
X279400Y546100D03*
X431800Y533400D03*
X431800Y431800D03*
D10*
X330200Y622300D03*
X304800Y622300D03*
X279400Y622300D03*
X254000Y622300D03*
X228600Y622300D03*
X203200Y622300D03*
X640080Y774700D03*
X640080Y558800D03*
X571500Y774700D03*
X711200Y774700D03*
D14*
X393700Y317500D03*
X317500Y317500D03*
D15*
X140208Y73406D02*
X124968Y73406D01*
X124968Y28194D02*
X140208Y28194D01*
X189992Y73406D02*
X205232Y73406D01*
X205232Y28194D02*
X189992Y28194D01*
D16*
X568325Y530225D02*
X584200Y546100D01*
X568325Y530225D02*
X498475Y530225D01*
X482600Y546100D01*
X301625Y574675D02*
X254000Y622300D01*
X301625Y574675D02*
X317500Y558800D01*
X254000Y685800D02*
X238125Y701675D01*
X155575Y701675D01*
X139700Y685800D01*
X479425Y574675D02*
X482600Y571500D01*
X479425Y574675D02*
X301625Y574675D01*
X190500Y34925D02*
X196850Y28575D01*
X190500Y34925D02*
X152400Y34925D01*
X136525Y50800D01*
X76200Y50800D01*
X196850Y28575D02*
X197612Y28194D01*
X279400Y317500D02*
X330200Y368300D01*
X431800Y368300D01*
X498475Y238125D02*
X508000Y228600D01*
X498475Y238125D02*
X495300Y238125D01*
X447675Y285750D01*
X447675Y368300D01*
X431800Y368300D01*
X190500Y317500D02*
X25400Y152400D01*
X241300Y317500D02*
X279400Y317500D01*
X241300Y317500D02*
X190500Y317500D01*
X241300Y482600D02*
X317500Y558800D01*
X241300Y482600D02*
X241300Y317500D01*
D17*
X200025Y73025D02*
X219075Y53975D01*
X244475Y53975D01*
X276225Y22225D01*
X282575Y22225D01*
X295275Y34925D01*
X295275Y266700D01*
X279400Y266700D01*
X200025Y73025D02*
X197612Y73406D01*
X279400Y215900D02*
X250825Y244475D01*
X184150Y244475D01*
X171450Y231775D01*
X171450Y136525D02*
X171450Y41275D01*
X171450Y136525D02*
X171450Y231775D01*
X171450Y41275D02*
X238125Y41275D01*
X269875Y9525D01*
X482600Y9525D01*
X533400Y60325D01*
X533400Y139700D01*
X508000Y139700D01*
X203200Y622300D02*
X9525Y428625D01*
X9525Y136525D01*
X171450Y136525D01*
X177800Y88900D02*
X254000Y165100D01*
X279400Y190500D01*
X177800Y88900D02*
X177800Y47625D01*
X241300Y47625D01*
X273050Y15875D01*
X428625Y15875D01*
X482600Y69850D01*
X482600Y114300D01*
X508000Y114300D01*
X254000Y165100D02*
X187325Y231775D01*
D18*
X187325Y231775D03*
D17*
X231775Y120650D02*
X238125Y114300D01*
X279400Y114300D01*
D18*
X231775Y120650D03*
D17*
X584200Y520700D02*
X622300Y558800D01*
X640080Y558800D01*
X584200Y520700D02*
X571500Y508000D01*
X390525Y508000D01*
X368300Y485775D01*
X368300Y482600D01*
X250825Y269875D02*
X279400Y241300D01*
D18*
X250825Y269875D03*
D17*
X279400Y393700D02*
X295275Y409575D01*
X441325Y409575D01*
X508000Y342900D01*
X279400Y368300D02*
X263525Y384175D01*
X263525Y419100D01*
X508000Y419100D01*
X517525Y263525D02*
X508000Y254000D01*
X517525Y263525D02*
X520700Y263525D01*
X549275Y292100D01*
X549275Y393700D01*
X533400Y393700D01*
X508000Y419100D01*
X533400Y546100D02*
X574675Y587375D01*
X631825Y587375D01*
X654050Y565150D01*
X654050Y539750D01*
X628650Y539750D01*
X584200Y495300D01*
X533400Y419100D02*
X568325Y384175D01*
X568325Y292100D01*
X584200Y292100D01*
X584200Y469900D02*
X647700Y533400D01*
X657225Y533400D01*
X660400Y536575D01*
X660400Y593725D01*
X555625Y593725D01*
X533400Y571500D01*
X584200Y444500D02*
X666750Y527050D01*
X666750Y600075D01*
X536575Y600075D01*
X533400Y596900D01*
X542925Y460375D02*
X584200Y419100D01*
D18*
X542925Y460375D03*
D17*
X568325Y612775D02*
X533400Y647700D01*
D18*
X568325Y612775D03*
D17*
X673100Y457200D02*
X584200Y368300D01*
X673100Y457200D02*
X673100Y673100D01*
X533400Y673100D01*
M02*
