G04 EAGLE Gerber RS-274X export*
G75*
%MOMM*%
%FSLAX34Y34*%
%LPD*%
%INTop Copper*%
%IPPOS*%
%AMOC8*
5,1,8,0,0,1.08239X$1,22.5*%
G01*
%ADD10C,1.879600*%
%ADD11C,1.879600*%
%ADD12C,6.197600*%
%ADD13C,1.500000*%
%ADD14C,0.304800*%
%ADD15C,0.254000*%
%ADD16C,1.066800*%


D10*
X279400Y393700D03*
X279400Y368300D03*
X279400Y342900D03*
X279400Y317500D03*
X279400Y292100D03*
X279400Y266700D03*
X279400Y241300D03*
X279400Y215900D03*
X279400Y190500D03*
X279400Y165100D03*
X279400Y139700D03*
X279400Y114300D03*
X279400Y88900D03*
X279400Y63500D03*
X279400Y38100D03*
X431800Y38100D03*
X431800Y63500D03*
X431800Y88900D03*
X431800Y114300D03*
X431800Y139700D03*
X431800Y165100D03*
X431800Y190500D03*
X431800Y215900D03*
X431800Y241300D03*
X431800Y266700D03*
X431800Y292100D03*
X431800Y317500D03*
X431800Y342900D03*
X431800Y368300D03*
X431800Y393700D03*
D11*
X498602Y63500D02*
X517398Y63500D01*
X517398Y88900D02*
X498602Y88900D01*
X498602Y114300D02*
X517398Y114300D01*
X517398Y139700D02*
X498602Y139700D01*
X498602Y203200D02*
X517398Y203200D01*
X517398Y228600D02*
X498602Y228600D01*
X498602Y254000D02*
X517398Y254000D01*
X517398Y279400D02*
X498602Y279400D01*
D10*
X355600Y736600D03*
X381000Y736600D03*
X406400Y736600D03*
X355600Y698500D03*
X381000Y698500D03*
D12*
X76200Y50800D03*
X76200Y736600D03*
D10*
X584200Y38100D03*
X584200Y63500D03*
X584200Y88900D03*
X584200Y114300D03*
X584200Y139700D03*
X584200Y165100D03*
X584200Y190500D03*
X584200Y215900D03*
X584200Y241300D03*
X584200Y266700D03*
X584200Y292100D03*
X584200Y317500D03*
X584200Y342900D03*
X584200Y368300D03*
X584200Y393700D03*
X584200Y419100D03*
X584200Y444500D03*
X584200Y469900D03*
X584200Y495300D03*
X584200Y520700D03*
X584200Y546100D03*
X584200Y571500D03*
X508000Y419100D03*
X533400Y419100D03*
X508000Y342900D03*
X533400Y342900D03*
X203200Y551180D03*
X203200Y152400D03*
X25400Y551180D03*
X25400Y152400D03*
X139700Y685800D03*
X190500Y685800D03*
X304800Y685800D03*
X254000Y685800D03*
X482600Y546100D03*
X508000Y546100D03*
X533400Y546100D03*
X482600Y571500D03*
X508000Y571500D03*
X533400Y571500D03*
X482600Y596900D03*
X508000Y596900D03*
X533400Y596900D03*
X482600Y622300D03*
X508000Y622300D03*
X533400Y622300D03*
X482600Y647700D03*
X508000Y647700D03*
X533400Y647700D03*
X482600Y673100D03*
X508000Y673100D03*
X533400Y673100D03*
X482600Y698500D03*
X508000Y698500D03*
X533400Y698500D03*
X482600Y723900D03*
X508000Y723900D03*
X533400Y723900D03*
X635000Y292100D03*
X635000Y266700D03*
X635000Y241300D03*
X635000Y215900D03*
X635000Y190500D03*
X635000Y165100D03*
X635000Y139700D03*
X635000Y114300D03*
X635000Y88900D03*
X635000Y63500D03*
X635000Y38100D03*
D11*
X393700Y473202D02*
X393700Y491998D01*
X368300Y491998D02*
X368300Y473202D01*
X342900Y473202D02*
X342900Y491998D01*
X317500Y491998D02*
X317500Y473202D01*
D10*
X355600Y584200D03*
X292100Y584200D03*
D13*
X254000Y444500D03*
X254000Y546100D03*
X279400Y444500D03*
X279400Y546100D03*
X431800Y533400D03*
X431800Y431800D03*
D10*
X330200Y635000D03*
X304800Y635000D03*
X279400Y635000D03*
X254000Y635000D03*
X228600Y635000D03*
X203200Y635000D03*
X652780Y774700D03*
X652780Y558800D03*
D14*
X508000Y228600D02*
X452438Y228600D01*
X452438Y347663D01*
X440531Y359569D02*
X431800Y368300D01*
X440531Y359569D02*
X452438Y347663D01*
X76200Y101600D02*
X25400Y152400D01*
X76200Y101600D02*
X76200Y50800D01*
X25400Y552450D02*
X139700Y666750D01*
X139700Y685800D01*
X25400Y552450D02*
X25400Y551180D01*
X254000Y635000D02*
X254000Y685800D01*
X355600Y698500D02*
X381000Y723900D01*
X381000Y736600D01*
X482600Y723900D02*
X482600Y698500D01*
X584200Y571500D02*
X584200Y546100D01*
X482600Y647700D02*
X482600Y673100D01*
X482600Y571500D02*
X482600Y546100D01*
X482600Y596900D02*
X482600Y622300D01*
X482600Y596900D02*
X482600Y571500D01*
X482600Y622300D02*
X482600Y647700D01*
X482600Y673100D02*
X482600Y698500D01*
X25400Y551180D02*
X25400Y152400D01*
X440531Y359569D02*
X482600Y401638D01*
X482600Y546100D01*
D15*
X417513Y368300D02*
X406400Y357188D01*
X417513Y368300D02*
X417513Y501650D01*
X444500Y528638D01*
X444500Y635000D01*
X381000Y698500D01*
D16*
X406400Y357188D03*
D15*
X217488Y271463D02*
X217488Y620713D01*
X203200Y635000D01*
X508000Y139700D02*
X531813Y139700D01*
X531813Y58738D01*
X490538Y17463D01*
X217488Y17463D01*
X217488Y271463D01*
D16*
X217488Y271463D03*
D15*
X228600Y241300D02*
X228600Y635000D01*
X446088Y114300D02*
X508000Y114300D01*
X446088Y114300D02*
X446088Y33338D01*
X436563Y23813D01*
X228600Y23813D01*
X228600Y241300D01*
D16*
X228600Y241300D03*
D15*
X265113Y430213D02*
X279400Y444500D01*
X265113Y430213D02*
X265113Y179388D01*
X279400Y165100D01*
X293688Y395288D02*
X328613Y430213D01*
X293688Y395288D02*
X293688Y153988D01*
X279400Y139700D01*
D16*
X328613Y430213D03*
D15*
X293688Y598488D02*
X330200Y635000D01*
X293688Y598488D02*
X241300Y598488D01*
X241300Y223838D01*
X258763Y206375D01*
X258763Y109538D01*
X279400Y88900D01*
X446088Y203200D02*
X508000Y203200D01*
X446088Y203200D02*
X446088Y303213D01*
X431800Y317500D01*
X379413Y471488D02*
X368300Y482600D01*
X379413Y471488D02*
X379413Y369888D01*
X431800Y317500D01*
X508000Y647700D02*
X508000Y673100D01*
X508000Y571500D02*
X508000Y546100D01*
X508000Y596900D02*
X508000Y622300D01*
X508000Y596900D02*
X508000Y571500D01*
X508000Y622300D02*
X508000Y647700D01*
X584200Y520700D02*
X652463Y520700D01*
X652463Y558800D01*
X508000Y698500D02*
X508000Y723900D01*
X573088Y638175D02*
X652463Y558800D01*
X573088Y638175D02*
X573088Y703263D01*
X538163Y738188D01*
X508000Y738188D01*
X508000Y723900D01*
X652463Y558800D02*
X652780Y558800D01*
X508000Y673100D02*
X508000Y698500D01*
X369888Y665163D02*
X369888Y482600D01*
X369888Y665163D02*
X341313Y693738D01*
X341313Y722313D01*
X355600Y736600D01*
X368300Y482600D02*
X369888Y482600D01*
X508000Y342900D02*
X508000Y279400D01*
X508000Y254000D02*
X484188Y254000D01*
X484188Y395288D01*
X508000Y419100D01*
X450850Y385763D02*
X450850Y692150D01*
X406400Y736600D01*
D16*
X450850Y385763D03*
D15*
X536575Y542925D02*
X533400Y546100D01*
X536575Y542925D02*
X536575Y520700D01*
D16*
X536575Y520700D03*
D15*
X584200Y292100D02*
X635000Y292100D01*
X560388Y392113D02*
X533400Y419100D01*
X560388Y392113D02*
X560388Y315913D01*
X584200Y292100D01*
X584200Y88900D02*
X635000Y88900D01*
X542925Y485775D02*
X547688Y490538D01*
X547688Y582613D01*
X533400Y596900D01*
D16*
X542925Y485775D03*
D15*
X554038Y458788D02*
X549275Y454025D01*
X554038Y458788D02*
X554038Y601663D01*
X533400Y622300D01*
D16*
X549275Y454025D03*
D15*
X560388Y427038D02*
X555625Y422275D01*
X560388Y427038D02*
X560388Y620713D01*
X533400Y647700D01*
D16*
X555625Y422275D03*
D15*
X566738Y334963D02*
X584200Y317500D01*
X566738Y334963D02*
X566738Y690563D01*
X533400Y723900D01*
X584200Y266700D02*
X635000Y266700D01*
X635000Y241300D02*
X584200Y241300D01*
X584200Y215900D02*
X635000Y215900D01*
X635000Y190500D02*
X584200Y190500D01*
X554038Y322263D02*
X533400Y342900D01*
X554038Y322263D02*
X554038Y220663D01*
X584200Y190500D01*
X584200Y165100D02*
X635000Y165100D01*
X635000Y139700D02*
X584200Y139700D01*
X584200Y114300D02*
X635000Y114300D01*
X635000Y63500D02*
X584200Y63500D01*
X584200Y38100D02*
X635000Y38100D01*
X279400Y635000D02*
X304800Y660400D01*
X304800Y685800D01*
X188913Y566738D02*
X203200Y552450D01*
X188913Y566738D02*
X188913Y684213D01*
X190500Y685800D01*
X203200Y552450D02*
X203200Y551180D01*
X254000Y546100D02*
X317500Y482600D01*
X319088Y506413D02*
X279400Y546100D01*
X319088Y506413D02*
X342900Y506413D01*
X342900Y482600D01*
X393700Y495300D02*
X431800Y533400D01*
X393700Y495300D02*
X393700Y482600D01*
X652780Y774700D02*
X76200Y774700D01*
X76200Y736600D01*
M02*
