G04 EAGLE Gerber RS-274X export*
G75*
%MOMM*%
%FSLAX34Y34*%
%LPD*%
%INSilkscreen Top*%
%IPPOS*%
%AMOC8*
5,1,8,0,0,1.08239X$1,22.5*%
G01*
%ADD10C,0.152400*%
%ADD11C,0.203200*%
%ADD12R,0.600000X0.555000*%
%ADD13R,0.508000X1.870000*%
%ADD14R,0.635000X0.850000*%
%ADD15C,0.050800*%


D10*
X330962Y42432D02*
X330962Y28874D01*
X333674Y26162D01*
X339097Y26162D01*
X341809Y28874D01*
X341809Y42432D01*
X355469Y42432D02*
X358180Y39720D01*
X355469Y42432D02*
X350045Y42432D01*
X347334Y39720D01*
X347334Y37009D01*
X350045Y34297D01*
X355469Y34297D01*
X358180Y31585D01*
X358180Y28874D01*
X355469Y26162D01*
X350045Y26162D01*
X347334Y28874D01*
X363705Y26162D02*
X363705Y42432D01*
X371840Y42432D01*
X374552Y39720D01*
X374552Y37009D01*
X371840Y34297D01*
X374552Y31585D01*
X374552Y28874D01*
X371840Y26162D01*
X363705Y26162D01*
X363705Y34297D02*
X371840Y34297D01*
D11*
X458196Y51816D02*
X481584Y51816D01*
X469890Y51816D02*
X469890Y67408D01*
X458196Y67408D02*
X481584Y67408D01*
X481584Y75204D02*
X458196Y75204D01*
X458196Y86898D01*
X462094Y90796D01*
X465992Y90796D01*
X469890Y86898D01*
X473788Y90796D01*
X477686Y90796D01*
X481584Y86898D01*
X481584Y75204D01*
X469890Y75204D02*
X469890Y86898D01*
X465992Y98592D02*
X481584Y98592D01*
X473788Y98592D02*
X465992Y106388D01*
X465992Y110286D01*
X458196Y133674D02*
X481584Y133674D01*
X481584Y121980D01*
X477686Y118082D01*
X469890Y118082D01*
X465992Y121980D01*
X465992Y133674D01*
X489380Y149266D02*
X489380Y153164D01*
X485482Y157062D01*
X465992Y157062D01*
X465992Y145368D01*
X469890Y141470D01*
X477686Y141470D01*
X481584Y145368D01*
X481584Y157062D01*
X469890Y209296D02*
X469890Y224888D01*
X462094Y217092D02*
X477686Y217092D01*
X469890Y232684D02*
X469890Y248276D01*
X481584Y279460D02*
X458196Y279460D01*
X458196Y291154D01*
X462094Y295052D01*
X469890Y295052D01*
X473788Y291154D01*
X473788Y279460D01*
X473788Y287256D02*
X481584Y295052D01*
X55714Y702584D02*
X51816Y698686D01*
X55714Y702584D02*
X63510Y702584D01*
X67408Y698686D01*
X67408Y694788D01*
X63510Y690890D01*
X59612Y690890D01*
X63510Y690890D02*
X67408Y686992D01*
X67408Y683094D01*
X63510Y679196D01*
X55714Y679196D01*
X51816Y683094D01*
X75204Y683094D02*
X75204Y679196D01*
X75204Y683094D02*
X79102Y683094D01*
X79102Y679196D01*
X75204Y679196D01*
X86898Y698686D02*
X90796Y702584D01*
X98592Y702584D01*
X102490Y698686D01*
X102490Y694788D01*
X98592Y690890D01*
X94694Y690890D01*
X98592Y690890D02*
X102490Y686992D01*
X102490Y683094D01*
X98592Y679196D01*
X90796Y679196D01*
X86898Y683094D01*
X47088Y38110D02*
X31496Y38110D01*
X31496Y736610D02*
X47088Y736610D01*
X39292Y744406D02*
X39292Y728814D01*
D10*
X353482Y677432D02*
X356194Y674720D01*
X353482Y677432D02*
X348059Y677432D01*
X345347Y674720D01*
X345347Y663874D01*
X348059Y661162D01*
X353482Y661162D01*
X356194Y663874D01*
X356194Y669297D01*
X350771Y669297D01*
X361719Y677432D02*
X361719Y661162D01*
X369854Y661162D01*
X372565Y663874D01*
X372565Y674720D01*
X369854Y677432D01*
X361719Y677432D01*
X378090Y674720D02*
X380802Y677432D01*
X386225Y677432D01*
X388937Y674720D01*
X388937Y672009D01*
X386225Y669297D01*
X383514Y669297D01*
X386225Y669297D02*
X388937Y666585D01*
X388937Y663874D01*
X386225Y661162D01*
X380802Y661162D01*
X378090Y663874D01*
D11*
X478712Y397784D02*
X478712Y374396D01*
X470916Y397784D02*
X486508Y397784D01*
X494304Y397784D02*
X509896Y374396D01*
X494304Y374396D02*
X509896Y397784D01*
X517692Y397784D02*
X517692Y374396D01*
X517692Y397784D02*
X529386Y397784D01*
X533284Y393886D01*
X533284Y386090D01*
X529386Y382192D01*
X517692Y382192D01*
X525488Y382192D02*
X533284Y374396D01*
X556672Y374396D02*
X541080Y397784D01*
X556672Y397784D02*
X541080Y374396D01*
X470916Y437896D02*
X470916Y461284D01*
X482610Y461284D01*
X486508Y457386D01*
X486508Y449590D01*
X482610Y445692D01*
X470916Y445692D01*
X478712Y445692D02*
X486508Y437896D01*
X509896Y437896D02*
X494304Y461284D01*
X509896Y461284D02*
X494304Y437896D01*
X525488Y437896D02*
X525488Y461284D01*
X517692Y461284D02*
X533284Y461284D01*
X541080Y461284D02*
X556672Y437896D01*
X541080Y437896D02*
X556672Y461284D01*
X181708Y524784D02*
X166116Y524784D01*
X181708Y524784D02*
X181708Y520886D01*
X166116Y505294D01*
X166116Y501396D01*
X189504Y501396D02*
X189504Y505294D01*
X193402Y505294D01*
X193402Y501396D01*
X189504Y501396D01*
X212892Y501396D02*
X212892Y524784D01*
X201198Y513090D01*
X216790Y513090D01*
X182714Y131084D02*
X178816Y127186D01*
X182714Y131084D02*
X190510Y131084D01*
X194408Y127186D01*
X194408Y123288D01*
X190510Y119390D01*
X186612Y119390D01*
X190510Y119390D02*
X194408Y115492D01*
X194408Y111594D01*
X190510Y107696D01*
X182714Y107696D01*
X178816Y111594D01*
X202204Y111594D02*
X202204Y107696D01*
X202204Y111594D02*
X206102Y111594D01*
X206102Y107696D01*
X202204Y107696D01*
X213898Y127186D02*
X217796Y131084D01*
X225592Y131084D01*
X229490Y127186D01*
X229490Y123288D01*
X225592Y119390D01*
X221694Y119390D01*
X225592Y119390D02*
X229490Y115492D01*
X229490Y111594D01*
X225592Y107696D01*
X217796Y107696D01*
X213898Y111594D01*
X34388Y609610D02*
X18796Y609610D01*
X18796Y127010D02*
X34388Y127010D01*
X133096Y749310D02*
X148688Y749310D01*
X247396Y749310D02*
X262988Y749310D01*
X280416Y753384D02*
X296008Y753384D01*
X296008Y749486D01*
X280416Y733894D01*
X280416Y729996D01*
X303804Y729996D02*
X303804Y733894D01*
X307702Y733894D01*
X307702Y729996D01*
X303804Y729996D01*
X327192Y729996D02*
X327192Y753384D01*
X315498Y741690D01*
X331090Y741690D01*
X128016Y768096D02*
X128016Y791484D01*
X139710Y791484D01*
X143608Y787586D01*
X143608Y783688D01*
X139710Y779790D01*
X143608Y775892D01*
X143608Y771994D01*
X139710Y768096D01*
X128016Y768096D01*
X128016Y779790D02*
X139710Y779790D01*
X151404Y783688D02*
X151404Y768096D01*
X151404Y783688D02*
X159200Y791484D01*
X166996Y783688D01*
X166996Y768096D01*
X166996Y779790D02*
X151404Y779790D01*
X182588Y768096D02*
X182588Y791484D01*
X174792Y791484D02*
X190384Y791484D01*
X205976Y791484D02*
X205976Y768096D01*
X198180Y791484D02*
X213772Y791484D01*
X221568Y791484D02*
X237160Y791484D01*
X221568Y791484D02*
X221568Y768096D01*
X237160Y768096D01*
X229364Y779790D02*
X221568Y779790D01*
X244956Y768096D02*
X244956Y791484D01*
X256650Y791484D01*
X260548Y787586D01*
X260548Y779790D01*
X256650Y775892D01*
X244956Y775892D01*
X252752Y775892D02*
X260548Y768096D01*
X268344Y787586D02*
X268344Y791484D01*
X268344Y787586D02*
X276140Y779790D01*
X283936Y787586D01*
X283936Y791484D01*
X276140Y779790D02*
X276140Y768096D01*
X237160Y753384D02*
X221568Y753384D01*
X237160Y753384D02*
X237160Y749486D01*
X221568Y733894D01*
X221568Y729996D01*
X244956Y729996D02*
X244956Y733894D01*
X248854Y733894D01*
X248854Y729996D01*
X244956Y729996D01*
X268344Y729996D02*
X268344Y753384D01*
X256650Y741690D01*
X272242Y741690D01*
X399796Y546110D02*
X415388Y546110D01*
X446572Y546110D02*
X462164Y546110D01*
X454368Y553906D02*
X454368Y538314D01*
X493348Y538314D02*
X493348Y553906D01*
X497246Y557804D01*
X505042Y557804D01*
X508940Y553906D01*
X508940Y538314D01*
X505042Y534416D01*
X497246Y534416D01*
X493348Y538314D01*
X508940Y553906D01*
X415388Y571510D02*
X399796Y571510D01*
X446572Y571510D02*
X462164Y571510D01*
X454368Y579306D02*
X454368Y563714D01*
X493348Y575408D02*
X501144Y583204D01*
X501144Y559816D01*
X493348Y559816D02*
X508940Y559816D01*
X415388Y596910D02*
X399796Y596910D01*
X446572Y596910D02*
X462164Y596910D01*
X454368Y604706D02*
X454368Y589114D01*
X493348Y585216D02*
X508940Y585216D01*
X493348Y585216D02*
X508940Y600808D01*
X508940Y604706D01*
X505042Y608604D01*
X497246Y608604D01*
X493348Y604706D01*
X415388Y622310D02*
X399796Y622310D01*
X446572Y622310D02*
X462164Y622310D01*
X454368Y630106D02*
X454368Y614514D01*
X493348Y630106D02*
X497246Y634004D01*
X505042Y634004D01*
X508940Y630106D01*
X508940Y626208D01*
X505042Y622310D01*
X501144Y622310D01*
X505042Y622310D02*
X508940Y618412D01*
X508940Y614514D01*
X505042Y610616D01*
X497246Y610616D01*
X493348Y614514D01*
X415388Y647710D02*
X399796Y647710D01*
X446572Y647710D02*
X462164Y647710D01*
X454368Y655506D02*
X454368Y639914D01*
X505042Y636016D02*
X505042Y659404D01*
X493348Y647710D01*
X508940Y647710D01*
X415388Y673110D02*
X399796Y673110D01*
X446572Y673110D02*
X462164Y673110D01*
X454368Y680906D02*
X454368Y665314D01*
X493348Y684804D02*
X508940Y684804D01*
X493348Y684804D02*
X493348Y673110D01*
X501144Y677008D01*
X505042Y677008D01*
X508940Y673110D01*
X508940Y665314D01*
X505042Y661416D01*
X497246Y661416D01*
X493348Y665314D01*
X372208Y525790D02*
X356616Y525790D01*
X364412Y533586D02*
X364412Y517994D01*
X313788Y584210D02*
X298196Y584210D01*
X348996Y585216D02*
X348996Y608604D01*
X348996Y585216D02*
X360690Y585216D01*
X364588Y589114D01*
X364588Y604706D01*
X360690Y608604D01*
X348996Y608604D01*
X372384Y585216D02*
X387976Y585216D01*
X372384Y585216D02*
X387976Y600808D01*
X387976Y604706D01*
X384078Y608604D01*
X376282Y608604D01*
X372384Y604706D01*
D10*
X594338Y681482D02*
X599762Y681482D01*
X602473Y684194D01*
X602473Y689617D01*
X599762Y692329D01*
X594338Y692329D01*
X591627Y689617D01*
X591627Y684194D01*
X594338Y681482D01*
X607998Y681482D02*
X607998Y692329D01*
X616133Y692329D01*
X618845Y689617D01*
X618845Y681482D01*
X624370Y681482D02*
X635217Y697752D01*
X643453Y681482D02*
X648876Y681482D01*
X651588Y684194D01*
X651588Y689617D01*
X648876Y692329D01*
X643453Y692329D01*
X640742Y689617D01*
X640742Y684194D01*
X643453Y681482D01*
X659825Y681482D02*
X659825Y695040D01*
X662536Y697752D01*
X662536Y689617D02*
X657113Y689617D01*
X670739Y695040D02*
X670739Y681482D01*
X670739Y695040D02*
X673451Y697752D01*
X673451Y689617D02*
X668027Y689617D01*
X599762Y654812D02*
X591627Y654812D01*
X599762Y654812D02*
X602473Y657524D01*
X599762Y660235D01*
X594338Y660235D01*
X591627Y662947D01*
X594338Y665659D01*
X602473Y665659D01*
X607998Y665659D02*
X607998Y657524D01*
X610710Y654812D01*
X613422Y657524D01*
X616133Y654812D01*
X618845Y657524D01*
X618845Y665659D01*
X624370Y665659D02*
X627082Y665659D01*
X627082Y654812D01*
X629793Y654812D02*
X624370Y654812D01*
X627082Y671082D02*
X627082Y673794D01*
X637996Y668370D02*
X637996Y657524D01*
X640708Y654812D01*
X640708Y665659D02*
X635284Y665659D01*
X648910Y665659D02*
X657045Y665659D01*
X648910Y665659D02*
X646199Y662947D01*
X646199Y657524D01*
X648910Y654812D01*
X657045Y654812D01*
X662570Y654812D02*
X662570Y671082D01*
X665282Y665659D02*
X662570Y662947D01*
X665282Y665659D02*
X670705Y665659D01*
X673417Y662947D01*
X673417Y654812D01*
D11*
X466188Y715284D02*
X458392Y711386D01*
X450596Y703590D01*
X450596Y695794D01*
X454494Y691896D01*
X462290Y691896D01*
X466188Y695794D01*
X466188Y699692D01*
X462290Y703590D01*
X450596Y703590D01*
X450596Y740684D02*
X466188Y740684D01*
X466188Y736786D01*
X450596Y721194D01*
X450596Y717296D01*
D10*
X545441Y745840D02*
X548153Y748552D01*
X553576Y748552D01*
X556288Y745840D01*
X556288Y743129D01*
X553576Y740417D01*
X550865Y740417D01*
X553576Y740417D02*
X556288Y737705D01*
X556288Y734994D01*
X553576Y732282D01*
X548153Y732282D01*
X545441Y734994D01*
X561813Y734994D02*
X561813Y732282D01*
X561813Y734994D02*
X564525Y734994D01*
X564525Y732282D01*
X561813Y732282D01*
X569999Y745840D02*
X572710Y748552D01*
X578134Y748552D01*
X580845Y745840D01*
X580845Y743129D01*
X578134Y740417D01*
X575422Y740417D01*
X578134Y740417D02*
X580845Y737705D01*
X580845Y734994D01*
X578134Y732282D01*
X572710Y732282D01*
X569999Y734994D01*
X586370Y737705D02*
X586370Y748552D01*
X586370Y737705D02*
X591794Y732282D01*
X597217Y737705D01*
X597217Y748552D01*
X672441Y748552D02*
X683288Y748552D01*
X683288Y745840D01*
X672441Y734994D01*
X672441Y732282D01*
X688813Y732282D02*
X688813Y734994D01*
X691525Y734994D01*
X691525Y732282D01*
X688813Y732282D01*
X705134Y732282D02*
X705134Y748552D01*
X696999Y740417D01*
X707845Y740417D01*
X713370Y737705D02*
X713370Y748552D01*
X713370Y737705D02*
X718794Y732282D01*
X724217Y737705D01*
X724217Y748552D01*
D11*
X292100Y247650D02*
X292100Y234950D01*
X285750Y228600D01*
X273050Y228600D02*
X266700Y234950D01*
X292100Y273050D02*
X285750Y279400D01*
X292100Y273050D02*
X292100Y260350D01*
X285750Y254000D01*
X273050Y254000D02*
X266700Y260350D01*
X266700Y273050D01*
X273050Y279400D01*
X285750Y254000D02*
X292100Y247650D01*
X273050Y254000D02*
X266700Y247650D01*
X266700Y234950D01*
X292100Y311150D02*
X292100Y323850D01*
X292100Y311150D02*
X285750Y304800D01*
X273050Y304800D02*
X266700Y311150D01*
X285750Y304800D02*
X292100Y298450D01*
X292100Y285750D01*
X285750Y279400D01*
X273050Y279400D02*
X266700Y285750D01*
X266700Y298450D01*
X273050Y304800D01*
X292100Y349250D02*
X285750Y355600D01*
X292100Y349250D02*
X292100Y336550D01*
X285750Y330200D01*
X273050Y330200D02*
X266700Y336550D01*
X266700Y349250D01*
X273050Y355600D01*
X285750Y330200D02*
X292100Y323850D01*
X273050Y330200D02*
X266700Y323850D01*
X266700Y311150D01*
X292100Y387350D02*
X292100Y400050D01*
X292100Y387350D02*
X285750Y381000D01*
X273050Y381000D02*
X266700Y387350D01*
X285750Y381000D02*
X292100Y374650D01*
X292100Y361950D01*
X285750Y355600D01*
X273050Y355600D02*
X266700Y361950D01*
X266700Y374650D01*
X273050Y381000D01*
X273050Y406400D02*
X285750Y406400D01*
X292100Y400050D01*
X273050Y406400D02*
X266700Y400050D01*
X266700Y387350D01*
X292100Y69850D02*
X292100Y57150D01*
X285750Y50800D01*
X273050Y50800D02*
X266700Y57150D01*
X292100Y95250D02*
X285750Y101600D01*
X292100Y95250D02*
X292100Y82550D01*
X285750Y76200D01*
X273050Y76200D02*
X266700Y82550D01*
X266700Y95250D01*
X273050Y101600D01*
X285750Y76200D02*
X292100Y69850D01*
X273050Y76200D02*
X266700Y69850D01*
X266700Y57150D01*
X292100Y133350D02*
X292100Y146050D01*
X292100Y133350D02*
X285750Y127000D01*
X273050Y127000D02*
X266700Y133350D01*
X285750Y127000D02*
X292100Y120650D01*
X292100Y107950D01*
X285750Y101600D01*
X273050Y101600D02*
X266700Y107950D01*
X266700Y120650D01*
X273050Y127000D01*
X292100Y171450D02*
X285750Y177800D01*
X292100Y171450D02*
X292100Y158750D01*
X285750Y152400D01*
X273050Y152400D02*
X266700Y158750D01*
X266700Y171450D01*
X273050Y177800D01*
X285750Y152400D02*
X292100Y146050D01*
X273050Y152400D02*
X266700Y146050D01*
X266700Y133350D01*
X292100Y209550D02*
X292100Y222250D01*
X292100Y209550D02*
X285750Y203200D01*
X273050Y203200D02*
X266700Y209550D01*
X285750Y203200D02*
X292100Y196850D01*
X292100Y184150D01*
X285750Y177800D01*
X273050Y177800D02*
X266700Y184150D01*
X266700Y196850D01*
X273050Y203200D01*
X292100Y222250D02*
X285750Y228600D01*
X273050Y228600D02*
X266700Y222250D01*
X266700Y209550D01*
X285750Y50800D02*
X292100Y44450D01*
X292100Y31750D01*
X285750Y25400D01*
X273050Y25400D01*
X266700Y31750D01*
X266700Y44450D01*
X273050Y50800D01*
X419100Y184150D02*
X419100Y196850D01*
X425450Y203200D01*
X438150Y203200D02*
X444500Y196850D01*
X419100Y158750D02*
X425450Y152400D01*
X419100Y158750D02*
X419100Y171450D01*
X425450Y177800D01*
X438150Y177800D02*
X444500Y171450D01*
X444500Y158750D01*
X438150Y152400D01*
X425450Y177800D02*
X419100Y184150D01*
X438150Y177800D02*
X444500Y184150D01*
X444500Y196850D01*
X419100Y120650D02*
X419100Y107950D01*
X419100Y120650D02*
X425450Y127000D01*
X438150Y127000D02*
X444500Y120650D01*
X425450Y127000D02*
X419100Y133350D01*
X419100Y146050D01*
X425450Y152400D01*
X438150Y152400D02*
X444500Y146050D01*
X444500Y133350D01*
X438150Y127000D01*
X419100Y82550D02*
X425450Y76200D01*
X419100Y82550D02*
X419100Y95250D01*
X425450Y101600D01*
X438150Y101600D02*
X444500Y95250D01*
X444500Y82550D01*
X438150Y76200D01*
X425450Y101600D02*
X419100Y107950D01*
X438150Y101600D02*
X444500Y107950D01*
X444500Y120650D01*
X419100Y44450D02*
X419100Y31750D01*
X419100Y44450D02*
X425450Y50800D01*
X438150Y50800D02*
X444500Y44450D01*
X425450Y50800D02*
X419100Y57150D01*
X419100Y69850D01*
X425450Y76200D01*
X438150Y76200D02*
X444500Y69850D01*
X444500Y57150D01*
X438150Y50800D01*
X438150Y25400D02*
X425450Y25400D01*
X419100Y31750D01*
X438150Y25400D02*
X444500Y31750D01*
X444500Y44450D01*
X419100Y361950D02*
X419100Y374650D01*
X425450Y381000D01*
X438150Y381000D02*
X444500Y374650D01*
X419100Y336550D02*
X425450Y330200D01*
X419100Y336550D02*
X419100Y349250D01*
X425450Y355600D01*
X438150Y355600D02*
X444500Y349250D01*
X444500Y336550D01*
X438150Y330200D01*
X425450Y355600D02*
X419100Y361950D01*
X438150Y355600D02*
X444500Y361950D01*
X444500Y374650D01*
X419100Y298450D02*
X419100Y285750D01*
X419100Y298450D02*
X425450Y304800D01*
X438150Y304800D02*
X444500Y298450D01*
X425450Y304800D02*
X419100Y311150D01*
X419100Y323850D01*
X425450Y330200D01*
X438150Y330200D02*
X444500Y323850D01*
X444500Y311150D01*
X438150Y304800D01*
X419100Y260350D02*
X425450Y254000D01*
X419100Y260350D02*
X419100Y273050D01*
X425450Y279400D01*
X438150Y279400D02*
X444500Y273050D01*
X444500Y260350D01*
X438150Y254000D01*
X425450Y279400D02*
X419100Y285750D01*
X438150Y279400D02*
X444500Y285750D01*
X444500Y298450D01*
X419100Y222250D02*
X419100Y209550D01*
X419100Y222250D02*
X425450Y228600D01*
X438150Y228600D02*
X444500Y222250D01*
X425450Y228600D02*
X419100Y234950D01*
X419100Y247650D01*
X425450Y254000D01*
X438150Y254000D02*
X444500Y247650D01*
X444500Y234950D01*
X438150Y228600D01*
X419100Y209550D02*
X425450Y203200D01*
X438150Y203200D02*
X444500Y209550D01*
X444500Y222250D01*
X425450Y381000D02*
X419100Y387350D01*
X419100Y400050D01*
X425450Y406400D01*
X438150Y406400D01*
X444500Y400050D01*
X444500Y387350D01*
X438150Y381000D01*
X501650Y50800D02*
X514350Y50800D01*
X514350Y152400D02*
X501650Y152400D01*
X501650Y190500D02*
X514350Y190500D01*
X514350Y292100D02*
X501650Y292100D01*
X571500Y196850D02*
X571500Y184150D01*
X571500Y196850D02*
X577850Y203200D01*
X590550Y203200D02*
X596900Y196850D01*
X571500Y158750D02*
X577850Y152400D01*
X571500Y158750D02*
X571500Y171450D01*
X577850Y177800D01*
X590550Y177800D02*
X596900Y171450D01*
X596900Y158750D01*
X590550Y152400D01*
X577850Y177800D02*
X571500Y184150D01*
X590550Y177800D02*
X596900Y184150D01*
X596900Y196850D01*
X571500Y120650D02*
X571500Y107950D01*
X571500Y120650D02*
X577850Y127000D01*
X590550Y127000D02*
X596900Y120650D01*
X577850Y127000D02*
X571500Y133350D01*
X571500Y146050D01*
X577850Y152400D01*
X590550Y152400D02*
X596900Y146050D01*
X596900Y133350D01*
X590550Y127000D01*
X571500Y82550D02*
X577850Y76200D01*
X571500Y82550D02*
X571500Y95250D01*
X577850Y101600D01*
X590550Y101600D02*
X596900Y95250D01*
X596900Y82550D01*
X590550Y76200D01*
X577850Y101600D02*
X571500Y107950D01*
X590550Y101600D02*
X596900Y107950D01*
X596900Y120650D01*
X571500Y44450D02*
X571500Y31750D01*
X571500Y44450D02*
X577850Y50800D01*
X590550Y50800D02*
X596900Y44450D01*
X577850Y50800D02*
X571500Y57150D01*
X571500Y69850D01*
X577850Y76200D01*
X590550Y76200D02*
X596900Y69850D01*
X596900Y57150D01*
X590550Y50800D01*
X590550Y25400D02*
X577850Y25400D01*
X571500Y31750D01*
X590550Y25400D02*
X596900Y31750D01*
X596900Y44450D01*
X571500Y361950D02*
X571500Y374650D01*
X577850Y381000D01*
X590550Y381000D02*
X596900Y374650D01*
X571500Y336550D02*
X577850Y330200D01*
X571500Y336550D02*
X571500Y349250D01*
X577850Y355600D01*
X590550Y355600D02*
X596900Y349250D01*
X596900Y336550D01*
X590550Y330200D01*
X577850Y355600D02*
X571500Y361950D01*
X590550Y355600D02*
X596900Y361950D01*
X596900Y374650D01*
X571500Y298450D02*
X571500Y285750D01*
X571500Y298450D02*
X577850Y304800D01*
X590550Y304800D02*
X596900Y298450D01*
X577850Y304800D02*
X571500Y311150D01*
X571500Y323850D01*
X577850Y330200D01*
X590550Y330200D02*
X596900Y323850D01*
X596900Y311150D01*
X590550Y304800D01*
X571500Y260350D02*
X577850Y254000D01*
X571500Y260350D02*
X571500Y273050D01*
X577850Y279400D01*
X590550Y279400D02*
X596900Y273050D01*
X596900Y260350D01*
X590550Y254000D01*
X577850Y279400D02*
X571500Y285750D01*
X590550Y279400D02*
X596900Y285750D01*
X596900Y298450D01*
X571500Y222250D02*
X571500Y209550D01*
X571500Y222250D02*
X577850Y228600D01*
X590550Y228600D02*
X596900Y222250D01*
X577850Y228600D02*
X571500Y234950D01*
X571500Y247650D01*
X577850Y254000D01*
X590550Y254000D02*
X596900Y247650D01*
X596900Y234950D01*
X590550Y228600D01*
X571500Y209550D02*
X577850Y203200D01*
X590550Y203200D02*
X596900Y209550D01*
X596900Y222250D01*
X577850Y381000D02*
X571500Y387350D01*
X571500Y400050D01*
X577850Y406400D01*
X590550Y406400D02*
X596900Y400050D01*
X596900Y387350D01*
X590550Y381000D01*
X577850Y406400D02*
X571500Y412750D01*
X571500Y425450D01*
X577850Y431800D01*
X590550Y431800D02*
X596900Y425450D01*
X596900Y412750D01*
X590550Y406400D01*
X577850Y431800D02*
X571500Y438150D01*
X571500Y450850D01*
X577850Y457200D01*
X590550Y457200D02*
X596900Y450850D01*
X596900Y438150D01*
X590550Y431800D01*
X577850Y457200D02*
X571500Y463550D01*
X571500Y476250D01*
X577850Y482600D01*
X590550Y482600D02*
X596900Y476250D01*
X596900Y463550D01*
X590550Y457200D01*
X577850Y482600D02*
X571500Y488950D01*
X571500Y501650D01*
X577850Y508000D01*
X590550Y508000D02*
X596900Y501650D01*
X596900Y488950D01*
X590550Y482600D01*
X577850Y508000D02*
X571500Y514350D01*
X571500Y527050D01*
X577850Y533400D01*
X590550Y533400D01*
X596900Y527050D01*
X596900Y514350D01*
X590550Y508000D01*
X571500Y539750D02*
X571500Y552450D01*
X577850Y558800D01*
X590550Y558800D02*
X596900Y552450D01*
X577850Y558800D02*
X571500Y565150D01*
X571500Y577850D01*
X577850Y584200D01*
X590550Y584200D02*
X596900Y577850D01*
X596900Y565150D01*
X590550Y558800D01*
X590550Y533400D02*
X577850Y533400D01*
X571500Y539750D01*
X590550Y533400D02*
X596900Y539750D01*
X596900Y552450D01*
X590550Y584200D02*
X577850Y584200D01*
X514350Y431800D02*
X501650Y431800D01*
X514350Y431800D02*
X520700Y425450D01*
X520700Y412750D02*
X514350Y406400D01*
X520700Y425450D02*
X527050Y431800D01*
X539750Y431800D01*
X546100Y425450D01*
X546100Y412750D02*
X539750Y406400D01*
X527050Y406400D01*
X520700Y412750D01*
X495300Y412750D02*
X495300Y425450D01*
X501650Y431800D01*
X495300Y412750D02*
X501650Y406400D01*
X514350Y406400D01*
X546100Y412750D02*
X546100Y425450D01*
X514350Y355600D02*
X501650Y355600D01*
X514350Y355600D02*
X520700Y349250D01*
X520700Y336550D02*
X514350Y330200D01*
X520700Y349250D02*
X527050Y355600D01*
X539750Y355600D01*
X546100Y349250D01*
X546100Y336550D02*
X539750Y330200D01*
X527050Y330200D01*
X520700Y336550D01*
X495300Y336550D02*
X495300Y349250D01*
X501650Y355600D01*
X495300Y336550D02*
X501650Y330200D01*
X514350Y330200D01*
X546100Y336550D02*
X546100Y349250D01*
X215900Y557530D02*
X209550Y563880D01*
X196850Y563880D01*
X190500Y557530D01*
X190500Y544830D01*
X196850Y538480D01*
X209550Y538480D01*
X215900Y544830D01*
X215900Y557530D01*
X209550Y165100D02*
X215900Y158750D01*
X209550Y165100D02*
X196850Y165100D01*
X190500Y158750D01*
X190500Y146050D01*
X196850Y139700D01*
X209550Y139700D01*
X215900Y146050D01*
X215900Y158750D01*
X38100Y557530D02*
X31750Y563880D01*
X19050Y563880D01*
X12700Y557530D01*
X12700Y544830D01*
X19050Y538480D01*
X31750Y538480D01*
X38100Y544830D01*
X38100Y557530D01*
X31750Y165100D02*
X38100Y158750D01*
X31750Y165100D02*
X19050Y165100D01*
X12700Y158750D01*
X12700Y146050D01*
X19050Y139700D01*
X31750Y139700D01*
X38100Y146050D01*
X38100Y158750D01*
X152400Y692150D02*
X146050Y698500D01*
X133350Y698500D01*
X127000Y692150D01*
X127000Y679450D01*
X133350Y673100D01*
X146050Y673100D01*
X152400Y679450D01*
X152400Y692150D01*
X196850Y698500D02*
X203200Y692150D01*
X196850Y698500D02*
X184150Y698500D01*
X177800Y692150D01*
X177800Y679450D01*
X184150Y673100D01*
X196850Y673100D01*
X203200Y679450D01*
X203200Y692150D01*
X311150Y698500D02*
X317500Y692150D01*
X311150Y698500D02*
X298450Y698500D01*
X292100Y692150D01*
X292100Y679450D01*
X298450Y673100D01*
X311150Y673100D01*
X317500Y679450D01*
X317500Y692150D01*
X266700Y692150D02*
X260350Y698500D01*
X247650Y698500D01*
X241300Y692150D01*
X241300Y679450D01*
X247650Y673100D01*
X260350Y673100D01*
X266700Y679450D01*
X266700Y692150D01*
X520700Y552450D02*
X527050Y558800D01*
X539750Y558800D01*
X546100Y552450D01*
X546100Y539750D02*
X539750Y533400D01*
X527050Y533400D01*
X520700Y539750D01*
X488950Y558800D02*
X476250Y558800D01*
X488950Y558800D02*
X495300Y552450D01*
X495300Y539750D02*
X488950Y533400D01*
X495300Y552450D02*
X501650Y558800D01*
X514350Y558800D01*
X520700Y552450D01*
X520700Y539750D02*
X514350Y533400D01*
X501650Y533400D01*
X495300Y539750D01*
X469900Y539750D02*
X469900Y552450D01*
X476250Y558800D01*
X469900Y539750D02*
X476250Y533400D01*
X488950Y533400D01*
X546100Y539750D02*
X546100Y552450D01*
X520700Y577850D02*
X527050Y584200D01*
X539750Y584200D01*
X546100Y577850D01*
X546100Y565150D02*
X539750Y558800D01*
X527050Y558800D01*
X520700Y565150D01*
X488950Y584200D02*
X476250Y584200D01*
X488950Y584200D02*
X495300Y577850D01*
X495300Y565150D02*
X488950Y558800D01*
X495300Y577850D02*
X501650Y584200D01*
X514350Y584200D01*
X520700Y577850D01*
X520700Y565150D02*
X514350Y558800D01*
X501650Y558800D01*
X495300Y565150D01*
X469900Y565150D02*
X469900Y577850D01*
X476250Y584200D01*
X469900Y565150D02*
X476250Y558800D01*
X488950Y558800D01*
X546100Y565150D02*
X546100Y577850D01*
X520700Y603250D02*
X527050Y609600D01*
X539750Y609600D01*
X546100Y603250D01*
X546100Y590550D02*
X539750Y584200D01*
X527050Y584200D01*
X520700Y590550D01*
X488950Y609600D02*
X476250Y609600D01*
X488950Y609600D02*
X495300Y603250D01*
X495300Y590550D02*
X488950Y584200D01*
X495300Y603250D02*
X501650Y609600D01*
X514350Y609600D01*
X520700Y603250D01*
X520700Y590550D02*
X514350Y584200D01*
X501650Y584200D01*
X495300Y590550D01*
X469900Y590550D02*
X469900Y603250D01*
X476250Y609600D01*
X469900Y590550D02*
X476250Y584200D01*
X488950Y584200D01*
X546100Y590550D02*
X546100Y603250D01*
X520700Y628650D02*
X527050Y635000D01*
X539750Y635000D01*
X546100Y628650D01*
X546100Y615950D02*
X539750Y609600D01*
X527050Y609600D01*
X520700Y615950D01*
X488950Y635000D02*
X476250Y635000D01*
X488950Y635000D02*
X495300Y628650D01*
X495300Y615950D02*
X488950Y609600D01*
X495300Y628650D02*
X501650Y635000D01*
X514350Y635000D01*
X520700Y628650D01*
X520700Y615950D02*
X514350Y609600D01*
X501650Y609600D01*
X495300Y615950D01*
X469900Y615950D02*
X469900Y628650D01*
X476250Y635000D01*
X469900Y615950D02*
X476250Y609600D01*
X488950Y609600D01*
X546100Y615950D02*
X546100Y628650D01*
X520700Y654050D02*
X527050Y660400D01*
X539750Y660400D01*
X546100Y654050D01*
X546100Y641350D02*
X539750Y635000D01*
X527050Y635000D01*
X520700Y641350D01*
X488950Y660400D02*
X476250Y660400D01*
X488950Y660400D02*
X495300Y654050D01*
X495300Y641350D02*
X488950Y635000D01*
X495300Y654050D02*
X501650Y660400D01*
X514350Y660400D01*
X520700Y654050D01*
X520700Y641350D02*
X514350Y635000D01*
X501650Y635000D01*
X495300Y641350D01*
X469900Y641350D02*
X469900Y654050D01*
X476250Y660400D01*
X469900Y641350D02*
X476250Y635000D01*
X488950Y635000D01*
X546100Y641350D02*
X546100Y654050D01*
X520700Y679450D02*
X527050Y685800D01*
X539750Y685800D01*
X546100Y679450D01*
X546100Y666750D02*
X539750Y660400D01*
X527050Y660400D01*
X520700Y666750D01*
X488950Y685800D02*
X476250Y685800D01*
X488950Y685800D02*
X495300Y679450D01*
X495300Y666750D02*
X488950Y660400D01*
X495300Y679450D02*
X501650Y685800D01*
X514350Y685800D01*
X520700Y679450D01*
X520700Y666750D02*
X514350Y660400D01*
X501650Y660400D01*
X495300Y666750D01*
X469900Y666750D02*
X469900Y679450D01*
X476250Y685800D01*
X469900Y666750D02*
X476250Y660400D01*
X488950Y660400D01*
X546100Y666750D02*
X546100Y679450D01*
X520700Y704850D02*
X527050Y711200D01*
X539750Y711200D01*
X546100Y704850D01*
X546100Y692150D02*
X539750Y685800D01*
X527050Y685800D01*
X520700Y692150D01*
X488950Y711200D02*
X476250Y711200D01*
X488950Y711200D02*
X495300Y704850D01*
X495300Y692150D02*
X488950Y685800D01*
X495300Y704850D02*
X501650Y711200D01*
X514350Y711200D01*
X520700Y704850D01*
X520700Y692150D02*
X514350Y685800D01*
X501650Y685800D01*
X495300Y692150D01*
X469900Y692150D02*
X469900Y704850D01*
X476250Y711200D01*
X469900Y692150D02*
X476250Y685800D01*
X488950Y685800D01*
X546100Y692150D02*
X546100Y704850D01*
X520700Y730250D02*
X527050Y736600D01*
X539750Y736600D01*
X546100Y730250D01*
X546100Y717550D02*
X539750Y711200D01*
X527050Y711200D01*
X520700Y717550D01*
X488950Y736600D02*
X476250Y736600D01*
X488950Y736600D02*
X495300Y730250D01*
X495300Y717550D02*
X488950Y711200D01*
X495300Y730250D02*
X501650Y736600D01*
X514350Y736600D01*
X520700Y730250D01*
X520700Y717550D02*
X514350Y711200D01*
X501650Y711200D01*
X495300Y717550D01*
X469900Y717550D02*
X469900Y730250D01*
X476250Y736600D01*
X469900Y717550D02*
X476250Y711200D01*
X488950Y711200D01*
X546100Y717550D02*
X546100Y730250D01*
X647700Y146050D02*
X647700Y133350D01*
X641350Y127000D01*
X628650Y127000D02*
X622300Y133350D01*
X647700Y171450D02*
X641350Y177800D01*
X647700Y171450D02*
X647700Y158750D01*
X641350Y152400D01*
X628650Y152400D02*
X622300Y158750D01*
X622300Y171450D01*
X628650Y177800D01*
X641350Y152400D02*
X647700Y146050D01*
X628650Y152400D02*
X622300Y146050D01*
X622300Y133350D01*
X647700Y209550D02*
X647700Y222250D01*
X647700Y209550D02*
X641350Y203200D01*
X628650Y203200D02*
X622300Y209550D01*
X641350Y203200D02*
X647700Y196850D01*
X647700Y184150D01*
X641350Y177800D01*
X628650Y177800D02*
X622300Y184150D01*
X622300Y196850D01*
X628650Y203200D01*
X647700Y247650D02*
X641350Y254000D01*
X647700Y247650D02*
X647700Y234950D01*
X641350Y228600D01*
X628650Y228600D02*
X622300Y234950D01*
X622300Y247650D01*
X628650Y254000D01*
X641350Y228600D02*
X647700Y222250D01*
X628650Y228600D02*
X622300Y222250D01*
X622300Y209550D01*
X647700Y285750D02*
X647700Y298450D01*
X647700Y285750D02*
X641350Y279400D01*
X628650Y279400D02*
X622300Y285750D01*
X641350Y279400D02*
X647700Y273050D01*
X647700Y260350D01*
X641350Y254000D01*
X628650Y254000D02*
X622300Y260350D01*
X622300Y273050D01*
X628650Y279400D01*
X628650Y304800D02*
X641350Y304800D01*
X647700Y298450D01*
X628650Y304800D02*
X622300Y298450D01*
X622300Y285750D01*
X647700Y120650D02*
X647700Y107950D01*
X641350Y101600D01*
X628650Y101600D02*
X622300Y107950D01*
X641350Y127000D02*
X647700Y120650D01*
X628650Y127000D02*
X622300Y120650D01*
X622300Y107950D01*
X647700Y95250D02*
X647700Y82550D01*
X641350Y76200D01*
X628650Y76200D02*
X622300Y82550D01*
X641350Y101600D02*
X647700Y95250D01*
X628650Y101600D02*
X622300Y95250D01*
X622300Y82550D01*
X647700Y69850D02*
X647700Y57150D01*
X641350Y50800D01*
X628650Y50800D02*
X622300Y57150D01*
X641350Y76200D02*
X647700Y69850D01*
X628650Y76200D02*
X622300Y69850D01*
X622300Y57150D01*
X647700Y44450D02*
X647700Y31750D01*
X641350Y25400D01*
X628650Y25400D01*
X622300Y31750D01*
X641350Y50800D02*
X647700Y44450D01*
X628650Y50800D02*
X622300Y44450D01*
X622300Y31750D01*
X406400Y476250D02*
X406400Y488950D01*
X304800Y488950D02*
X304800Y476250D01*
X396240Y565150D02*
X389890Y571500D01*
X377190Y571500D01*
X370840Y565150D01*
X370840Y552450D01*
X377190Y546100D01*
X389890Y546100D01*
X396240Y552450D01*
X396240Y565150D01*
X330200Y565150D02*
X323850Y571500D01*
X311150Y571500D01*
X304800Y565150D01*
X304800Y552450D01*
X311150Y546100D01*
X323850Y546100D01*
X330200Y552450D01*
X330200Y565150D01*
D10*
X265250Y527100D02*
X265250Y463500D01*
X242750Y463500D02*
X242750Y527100D01*
X242750Y463500D02*
X265250Y463500D01*
X265250Y527100D02*
X242750Y527100D01*
D12*
X254000Y459975D03*
X254000Y530625D03*
D10*
X290650Y527100D02*
X290650Y463500D01*
X268150Y463500D02*
X268150Y527100D01*
X268150Y463500D02*
X290650Y463500D01*
X290650Y527100D02*
X268150Y527100D01*
D12*
X279400Y459975D03*
X279400Y530625D03*
D10*
X420550Y514400D02*
X420550Y450800D01*
X443050Y450800D02*
X443050Y514400D01*
X420550Y514400D01*
X420550Y450800D02*
X443050Y450800D01*
D12*
X431800Y517925D03*
X431800Y447275D03*
D11*
X215900Y615950D02*
X209550Y609600D01*
X196850Y609600D01*
X190500Y615950D01*
X190500Y628650D02*
X196850Y635000D01*
X209550Y635000D01*
X215900Y628650D01*
X247650Y609600D02*
X260350Y609600D01*
X247650Y609600D02*
X241300Y615950D01*
X241300Y628650D02*
X247650Y635000D01*
X241300Y615950D02*
X234950Y609600D01*
X222250Y609600D01*
X215900Y615950D01*
X215900Y628650D02*
X222250Y635000D01*
X234950Y635000D01*
X241300Y628650D01*
X285750Y609600D02*
X292100Y615950D01*
X285750Y609600D02*
X273050Y609600D01*
X266700Y615950D01*
X266700Y628650D02*
X273050Y635000D01*
X285750Y635000D01*
X292100Y628650D01*
X266700Y615950D02*
X260350Y609600D01*
X266700Y628650D02*
X260350Y635000D01*
X247650Y635000D01*
X323850Y609600D02*
X336550Y609600D01*
X323850Y609600D02*
X317500Y615950D01*
X317500Y628650D02*
X323850Y635000D01*
X317500Y615950D02*
X311150Y609600D01*
X298450Y609600D01*
X292100Y615950D01*
X292100Y628650D02*
X298450Y635000D01*
X311150Y635000D01*
X317500Y628650D01*
X342900Y628650D02*
X342900Y615950D01*
X336550Y609600D01*
X342900Y628650D02*
X336550Y635000D01*
X323850Y635000D01*
X190500Y628650D02*
X190500Y615950D01*
X646430Y787400D02*
X652780Y781050D01*
X646430Y787400D02*
X633730Y787400D01*
X627380Y781050D01*
X627380Y768350D01*
X633730Y762000D01*
X646430Y762000D01*
X652780Y768350D01*
X652780Y781050D01*
X646430Y571500D02*
X652780Y565150D01*
X646430Y571500D02*
X633730Y571500D01*
X627380Y565150D01*
X627380Y552450D01*
X633730Y546100D01*
X646430Y546100D01*
X652780Y552450D01*
X652780Y565150D01*
X584200Y781050D02*
X577850Y787400D01*
X565150Y787400D01*
X558800Y781050D01*
X558800Y768350D01*
X565150Y762000D01*
X577850Y762000D01*
X584200Y768350D01*
X584200Y781050D01*
X717550Y787400D02*
X723900Y781050D01*
X717550Y787400D02*
X704850Y787400D01*
X698500Y781050D01*
X698500Y768350D01*
X704850Y762000D01*
X717550Y762000D01*
X723900Y768350D01*
X723900Y781050D01*
D10*
X376420Y326700D02*
X334780Y326700D01*
X334780Y308300D01*
X376420Y308300D01*
X376420Y326700D01*
X361950Y317500D02*
X355600Y317500D01*
X345440Y311150D02*
X345440Y323850D01*
X355600Y317500D01*
X340360Y317500D01*
X345440Y311150D02*
X355600Y317500D01*
X355600Y311150D01*
X355600Y317500D02*
X355600Y323850D01*
D13*
X369570Y317650D03*
D14*
X331605Y317500D03*
X379595Y317500D03*
D10*
X198120Y43180D02*
X195580Y43180D01*
X198120Y43180D02*
X198120Y58420D01*
X195580Y58420D01*
X134620Y58420D02*
X132080Y58420D01*
X132080Y43180D01*
X134620Y43180D01*
D15*
X152400Y78740D02*
X152400Y81280D01*
X152400Y78740D02*
X177800Y78740D01*
X177800Y81280D01*
X176530Y22860D02*
X152400Y22860D01*
X176530Y22860D02*
X176530Y20320D01*
X152400Y20320D02*
X152400Y22860D01*
D10*
X152400Y20320D02*
X143510Y20320D01*
X177800Y81280D02*
X186690Y81280D01*
X177800Y81280D02*
X152400Y81280D01*
X143510Y81280D01*
X152400Y20320D02*
X176530Y20320D01*
X186690Y20320D01*
X195580Y40640D02*
X195580Y43180D01*
X195580Y58420D02*
X195580Y60960D01*
X134620Y43180D02*
X134620Y40640D01*
X134620Y58420D02*
X134620Y60960D01*
X147320Y50800D02*
X147325Y51236D01*
X147341Y51672D01*
X147368Y52108D01*
X147406Y52543D01*
X147454Y52976D01*
X147512Y53409D01*
X147582Y53840D01*
X147662Y54269D01*
X147752Y54696D01*
X147853Y55120D01*
X147964Y55542D01*
X148086Y55961D01*
X148217Y56377D01*
X148359Y56790D01*
X148511Y57199D01*
X148673Y57604D01*
X148845Y58005D01*
X149027Y58402D01*
X149218Y58794D01*
X149419Y59181D01*
X149630Y59564D01*
X149850Y59941D01*
X150079Y60312D01*
X150316Y60678D01*
X150563Y61038D01*
X150819Y61392D01*
X151083Y61739D01*
X151356Y62080D01*
X151637Y62413D01*
X151926Y62740D01*
X152223Y63060D01*
X152528Y63372D01*
X152840Y63677D01*
X153160Y63974D01*
X153487Y64263D01*
X153820Y64544D01*
X154161Y64817D01*
X154508Y65081D01*
X154862Y65337D01*
X155222Y65584D01*
X155588Y65821D01*
X155959Y66050D01*
X156336Y66270D01*
X156719Y66481D01*
X157106Y66682D01*
X157498Y66873D01*
X157895Y67055D01*
X158296Y67227D01*
X158701Y67389D01*
X159110Y67541D01*
X159523Y67683D01*
X159939Y67814D01*
X160358Y67936D01*
X160780Y68047D01*
X161204Y68148D01*
X161631Y68238D01*
X162060Y68318D01*
X162491Y68388D01*
X162924Y68446D01*
X163357Y68494D01*
X163792Y68532D01*
X164228Y68559D01*
X164664Y68575D01*
X165100Y68580D01*
X165536Y68575D01*
X165972Y68559D01*
X166408Y68532D01*
X166843Y68494D01*
X167276Y68446D01*
X167709Y68388D01*
X168140Y68318D01*
X168569Y68238D01*
X168996Y68148D01*
X169420Y68047D01*
X169842Y67936D01*
X170261Y67814D01*
X170677Y67683D01*
X171090Y67541D01*
X171499Y67389D01*
X171904Y67227D01*
X172305Y67055D01*
X172702Y66873D01*
X173094Y66682D01*
X173481Y66481D01*
X173864Y66270D01*
X174241Y66050D01*
X174612Y65821D01*
X174978Y65584D01*
X175338Y65337D01*
X175692Y65081D01*
X176039Y64817D01*
X176380Y64544D01*
X176713Y64263D01*
X177040Y63974D01*
X177360Y63677D01*
X177672Y63372D01*
X177977Y63060D01*
X178274Y62740D01*
X178563Y62413D01*
X178844Y62080D01*
X179117Y61739D01*
X179381Y61392D01*
X179637Y61038D01*
X179884Y60678D01*
X180121Y60312D01*
X180350Y59941D01*
X180570Y59564D01*
X180781Y59181D01*
X180982Y58794D01*
X181173Y58402D01*
X181355Y58005D01*
X181527Y57604D01*
X181689Y57199D01*
X181841Y56790D01*
X181983Y56377D01*
X182114Y55961D01*
X182236Y55542D01*
X182347Y55120D01*
X182448Y54696D01*
X182538Y54269D01*
X182618Y53840D01*
X182688Y53409D01*
X182746Y52976D01*
X182794Y52543D01*
X182832Y52108D01*
X182859Y51672D01*
X182875Y51236D01*
X182880Y50800D01*
X182875Y50364D01*
X182859Y49928D01*
X182832Y49492D01*
X182794Y49057D01*
X182746Y48624D01*
X182688Y48191D01*
X182618Y47760D01*
X182538Y47331D01*
X182448Y46904D01*
X182347Y46480D01*
X182236Y46058D01*
X182114Y45639D01*
X181983Y45223D01*
X181841Y44810D01*
X181689Y44401D01*
X181527Y43996D01*
X181355Y43595D01*
X181173Y43198D01*
X180982Y42806D01*
X180781Y42419D01*
X180570Y42036D01*
X180350Y41659D01*
X180121Y41288D01*
X179884Y40922D01*
X179637Y40562D01*
X179381Y40208D01*
X179117Y39861D01*
X178844Y39520D01*
X178563Y39187D01*
X178274Y38860D01*
X177977Y38540D01*
X177672Y38228D01*
X177360Y37923D01*
X177040Y37626D01*
X176713Y37337D01*
X176380Y37056D01*
X176039Y36783D01*
X175692Y36519D01*
X175338Y36263D01*
X174978Y36016D01*
X174612Y35779D01*
X174241Y35550D01*
X173864Y35330D01*
X173481Y35119D01*
X173094Y34918D01*
X172702Y34727D01*
X172305Y34545D01*
X171904Y34373D01*
X171499Y34211D01*
X171090Y34059D01*
X170677Y33917D01*
X170261Y33786D01*
X169842Y33664D01*
X169420Y33553D01*
X168996Y33452D01*
X168569Y33362D01*
X168140Y33282D01*
X167709Y33212D01*
X167276Y33154D01*
X166843Y33106D01*
X166408Y33068D01*
X165972Y33041D01*
X165536Y33025D01*
X165100Y33020D01*
X164664Y33025D01*
X164228Y33041D01*
X163792Y33068D01*
X163357Y33106D01*
X162924Y33154D01*
X162491Y33212D01*
X162060Y33282D01*
X161631Y33362D01*
X161204Y33452D01*
X160780Y33553D01*
X160358Y33664D01*
X159939Y33786D01*
X159523Y33917D01*
X159110Y34059D01*
X158701Y34211D01*
X158296Y34373D01*
X157895Y34545D01*
X157498Y34727D01*
X157106Y34918D01*
X156719Y35119D01*
X156336Y35330D01*
X155959Y35550D01*
X155588Y35779D01*
X155222Y36016D01*
X154862Y36263D01*
X154508Y36519D01*
X154161Y36783D01*
X153820Y37056D01*
X153487Y37337D01*
X153160Y37626D01*
X152840Y37923D01*
X152528Y38228D01*
X152223Y38540D01*
X151926Y38860D01*
X151637Y39187D01*
X151356Y39520D01*
X151083Y39861D01*
X150819Y40208D01*
X150563Y40562D01*
X150316Y40922D01*
X150079Y41288D01*
X149850Y41659D01*
X149630Y42036D01*
X149419Y42419D01*
X149218Y42806D01*
X149027Y43198D01*
X148845Y43595D01*
X148673Y43996D01*
X148511Y44401D01*
X148359Y44810D01*
X148217Y45223D01*
X148086Y45639D01*
X147964Y46058D01*
X147853Y46480D01*
X147752Y46904D01*
X147662Y47331D01*
X147582Y47760D01*
X147512Y48191D01*
X147454Y48624D01*
X147406Y49057D01*
X147368Y49492D01*
X147341Y49928D01*
X147325Y50364D01*
X147320Y50800D01*
X162560Y50800D02*
X162562Y50900D01*
X162568Y51001D01*
X162578Y51100D01*
X162592Y51200D01*
X162609Y51299D01*
X162631Y51397D01*
X162657Y51494D01*
X162686Y51590D01*
X162719Y51684D01*
X162756Y51778D01*
X162796Y51870D01*
X162840Y51960D01*
X162888Y52048D01*
X162939Y52135D01*
X162993Y52219D01*
X163051Y52301D01*
X163112Y52381D01*
X163176Y52458D01*
X163243Y52533D01*
X163313Y52605D01*
X163386Y52674D01*
X163461Y52740D01*
X163539Y52804D01*
X163619Y52864D01*
X163702Y52921D01*
X163787Y52974D01*
X163874Y53024D01*
X163963Y53071D01*
X164053Y53114D01*
X164145Y53154D01*
X164239Y53190D01*
X164334Y53222D01*
X164430Y53250D01*
X164528Y53275D01*
X164626Y53295D01*
X164725Y53312D01*
X164825Y53325D01*
X164924Y53334D01*
X165025Y53339D01*
X165125Y53340D01*
X165225Y53337D01*
X165326Y53330D01*
X165425Y53319D01*
X165525Y53304D01*
X165623Y53286D01*
X165721Y53263D01*
X165818Y53236D01*
X165913Y53206D01*
X166008Y53172D01*
X166101Y53134D01*
X166192Y53093D01*
X166282Y53048D01*
X166370Y53000D01*
X166456Y52948D01*
X166540Y52893D01*
X166621Y52834D01*
X166700Y52772D01*
X166777Y52708D01*
X166851Y52640D01*
X166922Y52569D01*
X166991Y52496D01*
X167056Y52420D01*
X167119Y52341D01*
X167178Y52260D01*
X167234Y52177D01*
X167287Y52092D01*
X167336Y52004D01*
X167382Y51915D01*
X167424Y51824D01*
X167463Y51731D01*
X167498Y51637D01*
X167529Y51542D01*
X167557Y51445D01*
X167580Y51348D01*
X167600Y51249D01*
X167616Y51150D01*
X167628Y51051D01*
X167636Y50950D01*
X167640Y50850D01*
X167640Y50750D01*
X167636Y50650D01*
X167628Y50549D01*
X167616Y50450D01*
X167600Y50351D01*
X167580Y50252D01*
X167557Y50155D01*
X167529Y50058D01*
X167498Y49963D01*
X167463Y49869D01*
X167424Y49776D01*
X167382Y49685D01*
X167336Y49596D01*
X167287Y49508D01*
X167234Y49423D01*
X167178Y49340D01*
X167119Y49259D01*
X167056Y49180D01*
X166991Y49104D01*
X166922Y49031D01*
X166851Y48960D01*
X166777Y48892D01*
X166700Y48828D01*
X166621Y48766D01*
X166540Y48707D01*
X166456Y48652D01*
X166370Y48600D01*
X166282Y48552D01*
X166192Y48507D01*
X166101Y48466D01*
X166008Y48428D01*
X165913Y48394D01*
X165818Y48364D01*
X165721Y48337D01*
X165623Y48314D01*
X165525Y48296D01*
X165425Y48281D01*
X165326Y48270D01*
X165225Y48263D01*
X165125Y48260D01*
X165025Y48261D01*
X164924Y48266D01*
X164825Y48275D01*
X164725Y48288D01*
X164626Y48305D01*
X164528Y48325D01*
X164430Y48350D01*
X164334Y48378D01*
X164239Y48410D01*
X164145Y48446D01*
X164053Y48486D01*
X163963Y48529D01*
X163874Y48576D01*
X163787Y48626D01*
X163702Y48679D01*
X163619Y48736D01*
X163539Y48796D01*
X163461Y48860D01*
X163386Y48926D01*
X163313Y48995D01*
X163243Y49067D01*
X163176Y49142D01*
X163112Y49219D01*
X163051Y49299D01*
X162993Y49381D01*
X162939Y49465D01*
X162888Y49552D01*
X162840Y49640D01*
X162796Y49730D01*
X162756Y49822D01*
X162719Y49916D01*
X162686Y50010D01*
X162657Y50106D01*
X162631Y50203D01*
X162609Y50301D01*
X162592Y50400D01*
X162578Y50500D01*
X162568Y50599D01*
X162562Y50700D01*
X162560Y50800D01*
M02*
