G04 EAGLE Gerber RS-274X export*
G75*
%MOMM*%
%FSLAX34Y34*%
%LPD*%
%INSilkscreen Top*%
%IPPOS*%
%AMOC8*
5,1,8,0,0,1.08239X$1,22.5*%
G01*
%ADD10C,0.152400*%
%ADD11C,0.203200*%
%ADD12R,0.600000X0.555000*%


D10*
X330962Y42432D02*
X330962Y28874D01*
X333674Y26162D01*
X339097Y26162D01*
X341809Y28874D01*
X341809Y42432D01*
X355469Y42432D02*
X358180Y39720D01*
X355469Y42432D02*
X350045Y42432D01*
X347334Y39720D01*
X347334Y37009D01*
X350045Y34297D01*
X355469Y34297D01*
X358180Y31585D01*
X358180Y28874D01*
X355469Y26162D01*
X350045Y26162D01*
X347334Y28874D01*
X363705Y26162D02*
X363705Y42432D01*
X371840Y42432D01*
X374552Y39720D01*
X374552Y37009D01*
X371840Y34297D01*
X374552Y31585D01*
X374552Y28874D01*
X371840Y26162D01*
X363705Y26162D01*
X363705Y34297D02*
X371840Y34297D01*
D11*
X458196Y51816D02*
X481584Y51816D01*
X469890Y51816D02*
X469890Y67408D01*
X458196Y67408D02*
X481584Y67408D01*
X481584Y75204D02*
X458196Y75204D01*
X458196Y86898D01*
X462094Y90796D01*
X465992Y90796D01*
X469890Y86898D01*
X473788Y90796D01*
X477686Y90796D01*
X481584Y86898D01*
X481584Y75204D01*
X469890Y75204D02*
X469890Y86898D01*
X465992Y98592D02*
X481584Y98592D01*
X473788Y98592D02*
X465992Y106388D01*
X465992Y110286D01*
X458196Y133674D02*
X481584Y133674D01*
X481584Y121980D01*
X477686Y118082D01*
X469890Y118082D01*
X465992Y121980D01*
X465992Y133674D01*
X489380Y149266D02*
X489380Y153164D01*
X485482Y157062D01*
X465992Y157062D01*
X465992Y145368D01*
X469890Y141470D01*
X477686Y141470D01*
X481584Y145368D01*
X481584Y157062D01*
X469890Y209296D02*
X469890Y224888D01*
X462094Y217092D02*
X477686Y217092D01*
X469890Y232684D02*
X469890Y248276D01*
X481584Y279460D02*
X458196Y279460D01*
X458196Y291154D01*
X462094Y295052D01*
X469890Y295052D01*
X473788Y291154D01*
X473788Y279460D01*
X473788Y287256D02*
X481584Y295052D01*
X55714Y702584D02*
X51816Y698686D01*
X55714Y702584D02*
X63510Y702584D01*
X67408Y698686D01*
X67408Y694788D01*
X63510Y690890D01*
X59612Y690890D01*
X63510Y690890D02*
X67408Y686992D01*
X67408Y683094D01*
X63510Y679196D01*
X55714Y679196D01*
X51816Y683094D01*
X75204Y683094D02*
X75204Y679196D01*
X75204Y683094D02*
X79102Y683094D01*
X79102Y679196D01*
X75204Y679196D01*
X86898Y698686D02*
X90796Y702584D01*
X98592Y702584D01*
X102490Y698686D01*
X102490Y694788D01*
X98592Y690890D01*
X94694Y690890D01*
X98592Y690890D02*
X102490Y686992D01*
X102490Y683094D01*
X98592Y679196D01*
X90796Y679196D01*
X86898Y683094D01*
X47088Y38110D02*
X31496Y38110D01*
X31496Y736610D02*
X47088Y736610D01*
X39292Y744406D02*
X39292Y728814D01*
D10*
X338004Y768185D02*
X338004Y779032D01*
X338004Y768185D02*
X343427Y762762D01*
X348851Y768185D01*
X348851Y779032D01*
X362511Y779032D02*
X365222Y776320D01*
X362511Y779032D02*
X357087Y779032D01*
X354376Y776320D01*
X354376Y765474D01*
X357087Y762762D01*
X362511Y762762D01*
X365222Y765474D01*
X365222Y770897D01*
X359799Y770897D01*
X370747Y779032D02*
X370747Y762762D01*
X378882Y762762D01*
X381594Y765474D01*
X381594Y776320D01*
X378882Y779032D01*
X370747Y779032D01*
X387119Y773609D02*
X392542Y779032D01*
X392542Y762762D01*
X387119Y762762D02*
X397965Y762762D01*
X403490Y779032D02*
X414337Y779032D01*
X414337Y776320D01*
X403490Y765474D01*
X403490Y762762D01*
X353482Y677432D02*
X356194Y674720D01*
X353482Y677432D02*
X348059Y677432D01*
X345347Y674720D01*
X345347Y663874D01*
X348059Y661162D01*
X353482Y661162D01*
X356194Y663874D01*
X356194Y669297D01*
X350771Y669297D01*
X361719Y677432D02*
X361719Y661162D01*
X369854Y661162D01*
X372565Y663874D01*
X372565Y674720D01*
X369854Y677432D01*
X361719Y677432D01*
X378090Y674720D02*
X380802Y677432D01*
X386225Y677432D01*
X388937Y674720D01*
X388937Y672009D01*
X386225Y669297D01*
X383514Y669297D01*
X386225Y669297D02*
X388937Y666585D01*
X388937Y663874D01*
X386225Y661162D01*
X380802Y661162D01*
X378090Y663874D01*
D11*
X478712Y397784D02*
X478712Y374396D01*
X470916Y397784D02*
X486508Y397784D01*
X494304Y397784D02*
X509896Y374396D01*
X494304Y374396D02*
X509896Y397784D01*
X517692Y397784D02*
X517692Y374396D01*
X517692Y397784D02*
X529386Y397784D01*
X533284Y393886D01*
X533284Y386090D01*
X529386Y382192D01*
X517692Y382192D01*
X525488Y382192D02*
X533284Y374396D01*
X556672Y374396D02*
X541080Y397784D01*
X556672Y397784D02*
X541080Y374396D01*
X470916Y437896D02*
X470916Y461284D01*
X482610Y461284D01*
X486508Y457386D01*
X486508Y449590D01*
X482610Y445692D01*
X470916Y445692D01*
X478712Y445692D02*
X486508Y437896D01*
X509896Y437896D02*
X494304Y461284D01*
X509896Y461284D02*
X494304Y437896D01*
X525488Y437896D02*
X525488Y461284D01*
X517692Y461284D02*
X533284Y461284D01*
X541080Y461284D02*
X556672Y437896D01*
X541080Y437896D02*
X556672Y461284D01*
X194408Y613684D02*
X178816Y613684D01*
X194408Y613684D02*
X194408Y609786D01*
X178816Y594194D01*
X178816Y590296D01*
X202204Y590296D02*
X202204Y594194D01*
X206102Y594194D01*
X206102Y590296D01*
X202204Y590296D01*
X225592Y590296D02*
X225592Y613684D01*
X213898Y601990D01*
X229490Y601990D01*
X182714Y131084D02*
X178816Y127186D01*
X182714Y131084D02*
X190510Y131084D01*
X194408Y127186D01*
X194408Y123288D01*
X190510Y119390D01*
X186612Y119390D01*
X190510Y119390D02*
X194408Y115492D01*
X194408Y111594D01*
X190510Y107696D01*
X182714Y107696D01*
X178816Y111594D01*
X202204Y111594D02*
X202204Y107696D01*
X202204Y111594D02*
X206102Y111594D01*
X206102Y107696D01*
X202204Y107696D01*
X213898Y127186D02*
X217796Y131084D01*
X225592Y131084D01*
X229490Y127186D01*
X229490Y123288D01*
X225592Y119390D01*
X221694Y119390D01*
X225592Y119390D02*
X229490Y115492D01*
X229490Y111594D01*
X225592Y107696D01*
X217796Y107696D01*
X213898Y111594D01*
X34388Y609610D02*
X18796Y609610D01*
X18796Y127010D02*
X34388Y127010D01*
X133096Y749310D02*
X148688Y749310D01*
X247396Y749310D02*
X262988Y749310D01*
X280416Y753384D02*
X296008Y753384D01*
X296008Y749486D01*
X280416Y733894D01*
X280416Y729996D01*
X303804Y729996D02*
X303804Y733894D01*
X307702Y733894D01*
X307702Y729996D01*
X303804Y729996D01*
X327192Y729996D02*
X327192Y753384D01*
X315498Y741690D01*
X331090Y741690D01*
X181708Y753384D02*
X166116Y753384D01*
X181708Y753384D02*
X181708Y749486D01*
X166116Y733894D01*
X166116Y729996D01*
X189504Y729996D02*
X189504Y733894D01*
X193402Y733894D01*
X193402Y729996D01*
X189504Y729996D01*
X212892Y729996D02*
X212892Y753384D01*
X201198Y741690D01*
X216790Y741690D01*
X399796Y546110D02*
X415388Y546110D01*
X446572Y546110D02*
X462164Y546110D01*
X454368Y553906D02*
X454368Y538314D01*
X493348Y538314D02*
X493348Y553906D01*
X497246Y557804D01*
X505042Y557804D01*
X508940Y553906D01*
X508940Y538314D01*
X505042Y534416D01*
X497246Y534416D01*
X493348Y538314D01*
X508940Y553906D01*
X415388Y571510D02*
X399796Y571510D01*
X446572Y571510D02*
X462164Y571510D01*
X454368Y579306D02*
X454368Y563714D01*
X493348Y575408D02*
X501144Y583204D01*
X501144Y559816D01*
X493348Y559816D02*
X508940Y559816D01*
X415388Y596910D02*
X399796Y596910D01*
X446572Y596910D02*
X462164Y596910D01*
X454368Y604706D02*
X454368Y589114D01*
X493348Y585216D02*
X508940Y585216D01*
X493348Y585216D02*
X508940Y600808D01*
X508940Y604706D01*
X505042Y608604D01*
X497246Y608604D01*
X493348Y604706D01*
X415388Y622310D02*
X399796Y622310D01*
X446572Y622310D02*
X462164Y622310D01*
X454368Y630106D02*
X454368Y614514D01*
X493348Y630106D02*
X497246Y634004D01*
X505042Y634004D01*
X508940Y630106D01*
X508940Y626208D01*
X505042Y622310D01*
X501144Y622310D01*
X505042Y622310D02*
X508940Y618412D01*
X508940Y614514D01*
X505042Y610616D01*
X497246Y610616D01*
X493348Y614514D01*
X415388Y647710D02*
X399796Y647710D01*
X446572Y647710D02*
X462164Y647710D01*
X454368Y655506D02*
X454368Y639914D01*
X505042Y636016D02*
X505042Y659404D01*
X493348Y647710D01*
X508940Y647710D01*
X415388Y673110D02*
X399796Y673110D01*
X446572Y673110D02*
X462164Y673110D01*
X454368Y680906D02*
X454368Y665314D01*
X493348Y684804D02*
X508940Y684804D01*
X493348Y684804D02*
X493348Y673110D01*
X501144Y677008D01*
X505042Y677008D01*
X508940Y673110D01*
X508940Y665314D01*
X505042Y661416D01*
X497246Y661416D01*
X493348Y665314D01*
X384908Y525790D02*
X369316Y525790D01*
X377112Y533586D02*
X377112Y517994D01*
X301088Y622310D02*
X285496Y622310D01*
X348996Y634004D02*
X348996Y610616D01*
X360690Y610616D01*
X364588Y614514D01*
X364588Y630106D01*
X360690Y634004D01*
X348996Y634004D01*
X372384Y610616D02*
X387976Y610616D01*
X372384Y610616D02*
X387976Y626208D01*
X387976Y630106D01*
X384078Y634004D01*
X376282Y634004D01*
X372384Y630106D01*
D10*
X530838Y757682D02*
X536262Y757682D01*
X538973Y760394D01*
X538973Y765817D01*
X536262Y768529D01*
X530838Y768529D01*
X528127Y765817D01*
X528127Y760394D01*
X530838Y757682D01*
X544498Y757682D02*
X544498Y768529D01*
X552633Y768529D01*
X555345Y765817D01*
X555345Y757682D01*
X560870Y757682D02*
X571717Y773952D01*
X579953Y757682D02*
X585376Y757682D01*
X588088Y760394D01*
X588088Y765817D01*
X585376Y768529D01*
X579953Y768529D01*
X577242Y765817D01*
X577242Y760394D01*
X579953Y757682D01*
X596325Y757682D02*
X596325Y771240D01*
X599036Y773952D01*
X599036Y765817D02*
X593613Y765817D01*
X607239Y771240D02*
X607239Y757682D01*
X607239Y771240D02*
X609951Y773952D01*
X609951Y765817D02*
X604527Y765817D01*
D11*
X466188Y715284D02*
X458392Y711386D01*
X450596Y703590D01*
X450596Y695794D01*
X454494Y691896D01*
X462290Y691896D01*
X466188Y695794D01*
X466188Y699692D01*
X462290Y703590D01*
X450596Y703590D01*
X450596Y740684D02*
X466188Y740684D01*
X466188Y736786D01*
X450596Y721194D01*
X450596Y717296D01*
X292100Y247650D02*
X292100Y234950D01*
X285750Y228600D01*
X273050Y228600D02*
X266700Y234950D01*
X292100Y273050D02*
X285750Y279400D01*
X292100Y273050D02*
X292100Y260350D01*
X285750Y254000D01*
X273050Y254000D02*
X266700Y260350D01*
X266700Y273050D01*
X273050Y279400D01*
X285750Y254000D02*
X292100Y247650D01*
X273050Y254000D02*
X266700Y247650D01*
X266700Y234950D01*
X292100Y311150D02*
X292100Y323850D01*
X292100Y311150D02*
X285750Y304800D01*
X273050Y304800D02*
X266700Y311150D01*
X285750Y304800D02*
X292100Y298450D01*
X292100Y285750D01*
X285750Y279400D01*
X273050Y279400D02*
X266700Y285750D01*
X266700Y298450D01*
X273050Y304800D01*
X292100Y349250D02*
X285750Y355600D01*
X292100Y349250D02*
X292100Y336550D01*
X285750Y330200D01*
X273050Y330200D02*
X266700Y336550D01*
X266700Y349250D01*
X273050Y355600D01*
X285750Y330200D02*
X292100Y323850D01*
X273050Y330200D02*
X266700Y323850D01*
X266700Y311150D01*
X292100Y387350D02*
X292100Y400050D01*
X292100Y387350D02*
X285750Y381000D01*
X273050Y381000D02*
X266700Y387350D01*
X285750Y381000D02*
X292100Y374650D01*
X292100Y361950D01*
X285750Y355600D01*
X273050Y355600D02*
X266700Y361950D01*
X266700Y374650D01*
X273050Y381000D01*
X273050Y406400D02*
X285750Y406400D01*
X292100Y400050D01*
X273050Y406400D02*
X266700Y400050D01*
X266700Y387350D01*
X292100Y69850D02*
X292100Y57150D01*
X285750Y50800D01*
X273050Y50800D02*
X266700Y57150D01*
X292100Y95250D02*
X285750Y101600D01*
X292100Y95250D02*
X292100Y82550D01*
X285750Y76200D01*
X273050Y76200D02*
X266700Y82550D01*
X266700Y95250D01*
X273050Y101600D01*
X285750Y76200D02*
X292100Y69850D01*
X273050Y76200D02*
X266700Y69850D01*
X266700Y57150D01*
X292100Y133350D02*
X292100Y146050D01*
X292100Y133350D02*
X285750Y127000D01*
X273050Y127000D02*
X266700Y133350D01*
X285750Y127000D02*
X292100Y120650D01*
X292100Y107950D01*
X285750Y101600D01*
X273050Y101600D02*
X266700Y107950D01*
X266700Y120650D01*
X273050Y127000D01*
X292100Y171450D02*
X285750Y177800D01*
X292100Y171450D02*
X292100Y158750D01*
X285750Y152400D01*
X273050Y152400D02*
X266700Y158750D01*
X266700Y171450D01*
X273050Y177800D01*
X285750Y152400D02*
X292100Y146050D01*
X273050Y152400D02*
X266700Y146050D01*
X266700Y133350D01*
X292100Y209550D02*
X292100Y222250D01*
X292100Y209550D02*
X285750Y203200D01*
X273050Y203200D02*
X266700Y209550D01*
X285750Y203200D02*
X292100Y196850D01*
X292100Y184150D01*
X285750Y177800D01*
X273050Y177800D02*
X266700Y184150D01*
X266700Y196850D01*
X273050Y203200D01*
X292100Y222250D02*
X285750Y228600D01*
X273050Y228600D02*
X266700Y222250D01*
X266700Y209550D01*
X285750Y50800D02*
X292100Y44450D01*
X292100Y31750D01*
X285750Y25400D01*
X273050Y25400D01*
X266700Y31750D01*
X266700Y44450D01*
X273050Y50800D01*
X419100Y184150D02*
X419100Y196850D01*
X425450Y203200D01*
X438150Y203200D02*
X444500Y196850D01*
X419100Y158750D02*
X425450Y152400D01*
X419100Y158750D02*
X419100Y171450D01*
X425450Y177800D01*
X438150Y177800D02*
X444500Y171450D01*
X444500Y158750D01*
X438150Y152400D01*
X425450Y177800D02*
X419100Y184150D01*
X438150Y177800D02*
X444500Y184150D01*
X444500Y196850D01*
X419100Y120650D02*
X419100Y107950D01*
X419100Y120650D02*
X425450Y127000D01*
X438150Y127000D02*
X444500Y120650D01*
X425450Y127000D02*
X419100Y133350D01*
X419100Y146050D01*
X425450Y152400D01*
X438150Y152400D02*
X444500Y146050D01*
X444500Y133350D01*
X438150Y127000D01*
X419100Y82550D02*
X425450Y76200D01*
X419100Y82550D02*
X419100Y95250D01*
X425450Y101600D01*
X438150Y101600D02*
X444500Y95250D01*
X444500Y82550D01*
X438150Y76200D01*
X425450Y101600D02*
X419100Y107950D01*
X438150Y101600D02*
X444500Y107950D01*
X444500Y120650D01*
X419100Y44450D02*
X419100Y31750D01*
X419100Y44450D02*
X425450Y50800D01*
X438150Y50800D02*
X444500Y44450D01*
X425450Y50800D02*
X419100Y57150D01*
X419100Y69850D01*
X425450Y76200D01*
X438150Y76200D02*
X444500Y69850D01*
X444500Y57150D01*
X438150Y50800D01*
X438150Y25400D02*
X425450Y25400D01*
X419100Y31750D01*
X438150Y25400D02*
X444500Y31750D01*
X444500Y44450D01*
X419100Y361950D02*
X419100Y374650D01*
X425450Y381000D01*
X438150Y381000D02*
X444500Y374650D01*
X419100Y336550D02*
X425450Y330200D01*
X419100Y336550D02*
X419100Y349250D01*
X425450Y355600D01*
X438150Y355600D02*
X444500Y349250D01*
X444500Y336550D01*
X438150Y330200D01*
X425450Y355600D02*
X419100Y361950D01*
X438150Y355600D02*
X444500Y361950D01*
X444500Y374650D01*
X419100Y298450D02*
X419100Y285750D01*
X419100Y298450D02*
X425450Y304800D01*
X438150Y304800D02*
X444500Y298450D01*
X425450Y304800D02*
X419100Y311150D01*
X419100Y323850D01*
X425450Y330200D01*
X438150Y330200D02*
X444500Y323850D01*
X444500Y311150D01*
X438150Y304800D01*
X419100Y260350D02*
X425450Y254000D01*
X419100Y260350D02*
X419100Y273050D01*
X425450Y279400D01*
X438150Y279400D02*
X444500Y273050D01*
X444500Y260350D01*
X438150Y254000D01*
X425450Y279400D02*
X419100Y285750D01*
X438150Y279400D02*
X444500Y285750D01*
X444500Y298450D01*
X419100Y222250D02*
X419100Y209550D01*
X419100Y222250D02*
X425450Y228600D01*
X438150Y228600D02*
X444500Y222250D01*
X425450Y228600D02*
X419100Y234950D01*
X419100Y247650D01*
X425450Y254000D01*
X438150Y254000D02*
X444500Y247650D01*
X444500Y234950D01*
X438150Y228600D01*
X419100Y209550D02*
X425450Y203200D01*
X438150Y203200D02*
X444500Y209550D01*
X444500Y222250D01*
X425450Y381000D02*
X419100Y387350D01*
X419100Y400050D01*
X425450Y406400D01*
X438150Y406400D01*
X444500Y400050D01*
X444500Y387350D01*
X438150Y381000D01*
X501650Y50800D02*
X514350Y50800D01*
X514350Y152400D02*
X501650Y152400D01*
X501650Y190500D02*
X514350Y190500D01*
X514350Y292100D02*
X501650Y292100D01*
X393700Y742950D02*
X400050Y749300D01*
X412750Y749300D01*
X419100Y742950D01*
X419100Y730250D02*
X412750Y723900D01*
X400050Y723900D01*
X393700Y730250D01*
X361950Y749300D02*
X349250Y749300D01*
X361950Y749300D02*
X368300Y742950D01*
X368300Y730250D02*
X361950Y723900D01*
X368300Y742950D02*
X374650Y749300D01*
X387350Y749300D01*
X393700Y742950D01*
X393700Y730250D02*
X387350Y723900D01*
X374650Y723900D01*
X368300Y730250D01*
X342900Y730250D02*
X342900Y742950D01*
X349250Y749300D01*
X342900Y730250D02*
X349250Y723900D01*
X361950Y723900D01*
X419100Y730250D02*
X419100Y742950D01*
X361950Y711200D02*
X349250Y711200D01*
X361950Y711200D02*
X368300Y704850D01*
X368300Y692150D02*
X361950Y685800D01*
X368300Y704850D02*
X374650Y711200D01*
X387350Y711200D01*
X393700Y704850D01*
X393700Y692150D02*
X387350Y685800D01*
X374650Y685800D01*
X368300Y692150D01*
X342900Y692150D02*
X342900Y704850D01*
X349250Y711200D01*
X342900Y692150D02*
X349250Y685800D01*
X361950Y685800D01*
X393700Y692150D02*
X393700Y704850D01*
X571500Y196850D02*
X571500Y184150D01*
X571500Y196850D02*
X577850Y203200D01*
X590550Y203200D02*
X596900Y196850D01*
X571500Y158750D02*
X577850Y152400D01*
X571500Y158750D02*
X571500Y171450D01*
X577850Y177800D01*
X590550Y177800D02*
X596900Y171450D01*
X596900Y158750D01*
X590550Y152400D01*
X577850Y177800D02*
X571500Y184150D01*
X590550Y177800D02*
X596900Y184150D01*
X596900Y196850D01*
X571500Y120650D02*
X571500Y107950D01*
X571500Y120650D02*
X577850Y127000D01*
X590550Y127000D02*
X596900Y120650D01*
X577850Y127000D02*
X571500Y133350D01*
X571500Y146050D01*
X577850Y152400D01*
X590550Y152400D02*
X596900Y146050D01*
X596900Y133350D01*
X590550Y127000D01*
X571500Y82550D02*
X577850Y76200D01*
X571500Y82550D02*
X571500Y95250D01*
X577850Y101600D01*
X590550Y101600D02*
X596900Y95250D01*
X596900Y82550D01*
X590550Y76200D01*
X577850Y101600D02*
X571500Y107950D01*
X590550Y101600D02*
X596900Y107950D01*
X596900Y120650D01*
X571500Y44450D02*
X571500Y31750D01*
X571500Y44450D02*
X577850Y50800D01*
X590550Y50800D02*
X596900Y44450D01*
X577850Y50800D02*
X571500Y57150D01*
X571500Y69850D01*
X577850Y76200D01*
X590550Y76200D02*
X596900Y69850D01*
X596900Y57150D01*
X590550Y50800D01*
X590550Y25400D02*
X577850Y25400D01*
X571500Y31750D01*
X590550Y25400D02*
X596900Y31750D01*
X596900Y44450D01*
X571500Y361950D02*
X571500Y374650D01*
X577850Y381000D01*
X590550Y381000D02*
X596900Y374650D01*
X571500Y336550D02*
X577850Y330200D01*
X571500Y336550D02*
X571500Y349250D01*
X577850Y355600D01*
X590550Y355600D02*
X596900Y349250D01*
X596900Y336550D01*
X590550Y330200D01*
X577850Y355600D02*
X571500Y361950D01*
X590550Y355600D02*
X596900Y361950D01*
X596900Y374650D01*
X571500Y298450D02*
X571500Y285750D01*
X571500Y298450D02*
X577850Y304800D01*
X590550Y304800D02*
X596900Y298450D01*
X577850Y304800D02*
X571500Y311150D01*
X571500Y323850D01*
X577850Y330200D01*
X590550Y330200D02*
X596900Y323850D01*
X596900Y311150D01*
X590550Y304800D01*
X571500Y260350D02*
X577850Y254000D01*
X571500Y260350D02*
X571500Y273050D01*
X577850Y279400D01*
X590550Y279400D02*
X596900Y273050D01*
X596900Y260350D01*
X590550Y254000D01*
X577850Y279400D02*
X571500Y285750D01*
X590550Y279400D02*
X596900Y285750D01*
X596900Y298450D01*
X571500Y222250D02*
X571500Y209550D01*
X571500Y222250D02*
X577850Y228600D01*
X590550Y228600D02*
X596900Y222250D01*
X577850Y228600D02*
X571500Y234950D01*
X571500Y247650D01*
X577850Y254000D01*
X590550Y254000D02*
X596900Y247650D01*
X596900Y234950D01*
X590550Y228600D01*
X571500Y209550D02*
X577850Y203200D01*
X590550Y203200D02*
X596900Y209550D01*
X596900Y222250D01*
X577850Y381000D02*
X571500Y387350D01*
X571500Y400050D01*
X577850Y406400D01*
X590550Y406400D02*
X596900Y400050D01*
X596900Y387350D01*
X590550Y381000D01*
X577850Y406400D02*
X571500Y412750D01*
X571500Y425450D01*
X577850Y431800D01*
X590550Y431800D02*
X596900Y425450D01*
X596900Y412750D01*
X590550Y406400D01*
X577850Y431800D02*
X571500Y438150D01*
X571500Y450850D01*
X577850Y457200D01*
X590550Y457200D02*
X596900Y450850D01*
X596900Y438150D01*
X590550Y431800D01*
X577850Y457200D02*
X571500Y463550D01*
X571500Y476250D01*
X577850Y482600D01*
X590550Y482600D02*
X596900Y476250D01*
X596900Y463550D01*
X590550Y457200D01*
X577850Y482600D02*
X571500Y488950D01*
X571500Y501650D01*
X577850Y508000D01*
X590550Y508000D02*
X596900Y501650D01*
X596900Y488950D01*
X590550Y482600D01*
X577850Y508000D02*
X571500Y514350D01*
X571500Y527050D01*
X577850Y533400D01*
X590550Y533400D01*
X596900Y527050D01*
X596900Y514350D01*
X590550Y508000D01*
X571500Y539750D02*
X571500Y552450D01*
X577850Y558800D01*
X590550Y558800D02*
X596900Y552450D01*
X577850Y558800D02*
X571500Y565150D01*
X571500Y577850D01*
X577850Y584200D01*
X590550Y584200D02*
X596900Y577850D01*
X596900Y565150D01*
X590550Y558800D01*
X590550Y533400D02*
X577850Y533400D01*
X571500Y539750D01*
X590550Y533400D02*
X596900Y539750D01*
X596900Y552450D01*
X590550Y584200D02*
X577850Y584200D01*
X514350Y431800D02*
X501650Y431800D01*
X514350Y431800D02*
X520700Y425450D01*
X520700Y412750D02*
X514350Y406400D01*
X520700Y425450D02*
X527050Y431800D01*
X539750Y431800D01*
X546100Y425450D01*
X546100Y412750D02*
X539750Y406400D01*
X527050Y406400D01*
X520700Y412750D01*
X495300Y412750D02*
X495300Y425450D01*
X501650Y431800D01*
X495300Y412750D02*
X501650Y406400D01*
X514350Y406400D01*
X546100Y412750D02*
X546100Y425450D01*
X514350Y355600D02*
X501650Y355600D01*
X514350Y355600D02*
X520700Y349250D01*
X520700Y336550D02*
X514350Y330200D01*
X520700Y349250D02*
X527050Y355600D01*
X539750Y355600D01*
X546100Y349250D01*
X546100Y336550D02*
X539750Y330200D01*
X527050Y330200D01*
X520700Y336550D01*
X495300Y336550D02*
X495300Y349250D01*
X501650Y355600D01*
X495300Y336550D02*
X501650Y330200D01*
X514350Y330200D01*
X546100Y336550D02*
X546100Y349250D01*
X215900Y557530D02*
X209550Y563880D01*
X196850Y563880D01*
X190500Y557530D01*
X190500Y544830D01*
X196850Y538480D01*
X209550Y538480D01*
X215900Y544830D01*
X215900Y557530D01*
X209550Y165100D02*
X215900Y158750D01*
X209550Y165100D02*
X196850Y165100D01*
X190500Y158750D01*
X190500Y146050D01*
X196850Y139700D01*
X209550Y139700D01*
X215900Y146050D01*
X215900Y158750D01*
X38100Y557530D02*
X31750Y563880D01*
X19050Y563880D01*
X12700Y557530D01*
X12700Y544830D01*
X19050Y538480D01*
X31750Y538480D01*
X38100Y544830D01*
X38100Y557530D01*
X31750Y165100D02*
X38100Y158750D01*
X31750Y165100D02*
X19050Y165100D01*
X12700Y158750D01*
X12700Y146050D01*
X19050Y139700D01*
X31750Y139700D01*
X38100Y146050D01*
X38100Y158750D01*
X152400Y692150D02*
X146050Y698500D01*
X133350Y698500D01*
X127000Y692150D01*
X127000Y679450D01*
X133350Y673100D01*
X146050Y673100D01*
X152400Y679450D01*
X152400Y692150D01*
X196850Y698500D02*
X203200Y692150D01*
X196850Y698500D02*
X184150Y698500D01*
X177800Y692150D01*
X177800Y679450D01*
X184150Y673100D01*
X196850Y673100D01*
X203200Y679450D01*
X203200Y692150D01*
X311150Y698500D02*
X317500Y692150D01*
X311150Y698500D02*
X298450Y698500D01*
X292100Y692150D01*
X292100Y679450D01*
X298450Y673100D01*
X311150Y673100D01*
X317500Y679450D01*
X317500Y692150D01*
X266700Y692150D02*
X260350Y698500D01*
X247650Y698500D01*
X241300Y692150D01*
X241300Y679450D01*
X247650Y673100D01*
X260350Y673100D01*
X266700Y679450D01*
X266700Y692150D01*
X520700Y552450D02*
X527050Y558800D01*
X539750Y558800D01*
X546100Y552450D01*
X546100Y539750D02*
X539750Y533400D01*
X527050Y533400D01*
X520700Y539750D01*
X488950Y558800D02*
X476250Y558800D01*
X488950Y558800D02*
X495300Y552450D01*
X495300Y539750D02*
X488950Y533400D01*
X495300Y552450D02*
X501650Y558800D01*
X514350Y558800D01*
X520700Y552450D01*
X520700Y539750D02*
X514350Y533400D01*
X501650Y533400D01*
X495300Y539750D01*
X469900Y539750D02*
X469900Y552450D01*
X476250Y558800D01*
X469900Y539750D02*
X476250Y533400D01*
X488950Y533400D01*
X546100Y539750D02*
X546100Y552450D01*
X520700Y577850D02*
X527050Y584200D01*
X539750Y584200D01*
X546100Y577850D01*
X546100Y565150D02*
X539750Y558800D01*
X527050Y558800D01*
X520700Y565150D01*
X488950Y584200D02*
X476250Y584200D01*
X488950Y584200D02*
X495300Y577850D01*
X495300Y565150D02*
X488950Y558800D01*
X495300Y577850D02*
X501650Y584200D01*
X514350Y584200D01*
X520700Y577850D01*
X520700Y565150D02*
X514350Y558800D01*
X501650Y558800D01*
X495300Y565150D01*
X469900Y565150D02*
X469900Y577850D01*
X476250Y584200D01*
X469900Y565150D02*
X476250Y558800D01*
X488950Y558800D01*
X546100Y565150D02*
X546100Y577850D01*
X520700Y603250D02*
X527050Y609600D01*
X539750Y609600D01*
X546100Y603250D01*
X546100Y590550D02*
X539750Y584200D01*
X527050Y584200D01*
X520700Y590550D01*
X488950Y609600D02*
X476250Y609600D01*
X488950Y609600D02*
X495300Y603250D01*
X495300Y590550D02*
X488950Y584200D01*
X495300Y603250D02*
X501650Y609600D01*
X514350Y609600D01*
X520700Y603250D01*
X520700Y590550D02*
X514350Y584200D01*
X501650Y584200D01*
X495300Y590550D01*
X469900Y590550D02*
X469900Y603250D01*
X476250Y609600D01*
X469900Y590550D02*
X476250Y584200D01*
X488950Y584200D01*
X546100Y590550D02*
X546100Y603250D01*
X520700Y628650D02*
X527050Y635000D01*
X539750Y635000D01*
X546100Y628650D01*
X546100Y615950D02*
X539750Y609600D01*
X527050Y609600D01*
X520700Y615950D01*
X488950Y635000D02*
X476250Y635000D01*
X488950Y635000D02*
X495300Y628650D01*
X495300Y615950D02*
X488950Y609600D01*
X495300Y628650D02*
X501650Y635000D01*
X514350Y635000D01*
X520700Y628650D01*
X520700Y615950D02*
X514350Y609600D01*
X501650Y609600D01*
X495300Y615950D01*
X469900Y615950D02*
X469900Y628650D01*
X476250Y635000D01*
X469900Y615950D02*
X476250Y609600D01*
X488950Y609600D01*
X546100Y615950D02*
X546100Y628650D01*
X520700Y654050D02*
X527050Y660400D01*
X539750Y660400D01*
X546100Y654050D01*
X546100Y641350D02*
X539750Y635000D01*
X527050Y635000D01*
X520700Y641350D01*
X488950Y660400D02*
X476250Y660400D01*
X488950Y660400D02*
X495300Y654050D01*
X495300Y641350D02*
X488950Y635000D01*
X495300Y654050D02*
X501650Y660400D01*
X514350Y660400D01*
X520700Y654050D01*
X520700Y641350D02*
X514350Y635000D01*
X501650Y635000D01*
X495300Y641350D01*
X469900Y641350D02*
X469900Y654050D01*
X476250Y660400D01*
X469900Y641350D02*
X476250Y635000D01*
X488950Y635000D01*
X546100Y641350D02*
X546100Y654050D01*
X520700Y679450D02*
X527050Y685800D01*
X539750Y685800D01*
X546100Y679450D01*
X546100Y666750D02*
X539750Y660400D01*
X527050Y660400D01*
X520700Y666750D01*
X488950Y685800D02*
X476250Y685800D01*
X488950Y685800D02*
X495300Y679450D01*
X495300Y666750D02*
X488950Y660400D01*
X495300Y679450D02*
X501650Y685800D01*
X514350Y685800D01*
X520700Y679450D01*
X520700Y666750D02*
X514350Y660400D01*
X501650Y660400D01*
X495300Y666750D01*
X469900Y666750D02*
X469900Y679450D01*
X476250Y685800D01*
X469900Y666750D02*
X476250Y660400D01*
X488950Y660400D01*
X546100Y666750D02*
X546100Y679450D01*
X520700Y704850D02*
X527050Y711200D01*
X539750Y711200D01*
X546100Y704850D01*
X546100Y692150D02*
X539750Y685800D01*
X527050Y685800D01*
X520700Y692150D01*
X488950Y711200D02*
X476250Y711200D01*
X488950Y711200D02*
X495300Y704850D01*
X495300Y692150D02*
X488950Y685800D01*
X495300Y704850D02*
X501650Y711200D01*
X514350Y711200D01*
X520700Y704850D01*
X520700Y692150D02*
X514350Y685800D01*
X501650Y685800D01*
X495300Y692150D01*
X469900Y692150D02*
X469900Y704850D01*
X476250Y711200D01*
X469900Y692150D02*
X476250Y685800D01*
X488950Y685800D01*
X546100Y692150D02*
X546100Y704850D01*
X520700Y730250D02*
X527050Y736600D01*
X539750Y736600D01*
X546100Y730250D01*
X546100Y717550D02*
X539750Y711200D01*
X527050Y711200D01*
X520700Y717550D01*
X488950Y736600D02*
X476250Y736600D01*
X488950Y736600D02*
X495300Y730250D01*
X495300Y717550D02*
X488950Y711200D01*
X495300Y730250D02*
X501650Y736600D01*
X514350Y736600D01*
X520700Y730250D01*
X520700Y717550D02*
X514350Y711200D01*
X501650Y711200D01*
X495300Y717550D01*
X469900Y717550D02*
X469900Y730250D01*
X476250Y736600D01*
X469900Y717550D02*
X476250Y711200D01*
X488950Y711200D01*
X546100Y717550D02*
X546100Y730250D01*
X647700Y146050D02*
X647700Y133350D01*
X641350Y127000D01*
X628650Y127000D02*
X622300Y133350D01*
X647700Y171450D02*
X641350Y177800D01*
X647700Y171450D02*
X647700Y158750D01*
X641350Y152400D01*
X628650Y152400D02*
X622300Y158750D01*
X622300Y171450D01*
X628650Y177800D01*
X641350Y152400D02*
X647700Y146050D01*
X628650Y152400D02*
X622300Y146050D01*
X622300Y133350D01*
X647700Y209550D02*
X647700Y222250D01*
X647700Y209550D02*
X641350Y203200D01*
X628650Y203200D02*
X622300Y209550D01*
X641350Y203200D02*
X647700Y196850D01*
X647700Y184150D01*
X641350Y177800D01*
X628650Y177800D02*
X622300Y184150D01*
X622300Y196850D01*
X628650Y203200D01*
X647700Y247650D02*
X641350Y254000D01*
X647700Y247650D02*
X647700Y234950D01*
X641350Y228600D01*
X628650Y228600D02*
X622300Y234950D01*
X622300Y247650D01*
X628650Y254000D01*
X641350Y228600D02*
X647700Y222250D01*
X628650Y228600D02*
X622300Y222250D01*
X622300Y209550D01*
X647700Y285750D02*
X647700Y298450D01*
X647700Y285750D02*
X641350Y279400D01*
X628650Y279400D02*
X622300Y285750D01*
X641350Y279400D02*
X647700Y273050D01*
X647700Y260350D01*
X641350Y254000D01*
X628650Y254000D02*
X622300Y260350D01*
X622300Y273050D01*
X628650Y279400D01*
X628650Y304800D02*
X641350Y304800D01*
X647700Y298450D01*
X628650Y304800D02*
X622300Y298450D01*
X622300Y285750D01*
X647700Y120650D02*
X647700Y107950D01*
X641350Y101600D01*
X628650Y101600D02*
X622300Y107950D01*
X641350Y127000D02*
X647700Y120650D01*
X628650Y127000D02*
X622300Y120650D01*
X622300Y107950D01*
X647700Y95250D02*
X647700Y82550D01*
X641350Y76200D01*
X628650Y76200D02*
X622300Y82550D01*
X641350Y101600D02*
X647700Y95250D01*
X628650Y101600D02*
X622300Y95250D01*
X622300Y82550D01*
X647700Y69850D02*
X647700Y57150D01*
X641350Y50800D01*
X628650Y50800D02*
X622300Y57150D01*
X641350Y76200D02*
X647700Y69850D01*
X628650Y76200D02*
X622300Y69850D01*
X622300Y57150D01*
X647700Y44450D02*
X647700Y31750D01*
X641350Y25400D01*
X628650Y25400D01*
X622300Y31750D01*
X641350Y50800D02*
X647700Y44450D01*
X628650Y50800D02*
X622300Y44450D01*
X622300Y31750D01*
X406400Y476250D02*
X406400Y488950D01*
X304800Y488950D02*
X304800Y476250D01*
X368300Y590550D02*
X361950Y596900D01*
X349250Y596900D01*
X342900Y590550D01*
X342900Y577850D01*
X349250Y571500D01*
X361950Y571500D01*
X368300Y577850D01*
X368300Y590550D01*
X304800Y590550D02*
X298450Y596900D01*
X285750Y596900D01*
X279400Y590550D01*
X279400Y577850D01*
X285750Y571500D01*
X298450Y571500D01*
X304800Y577850D01*
X304800Y590550D01*
D10*
X265250Y527100D02*
X265250Y463500D01*
X242750Y463500D02*
X242750Y527100D01*
X242750Y463500D02*
X265250Y463500D01*
X265250Y527100D02*
X242750Y527100D01*
D12*
X254000Y459975D03*
X254000Y530625D03*
D10*
X290650Y527100D02*
X290650Y463500D01*
X268150Y463500D02*
X268150Y527100D01*
X268150Y463500D02*
X290650Y463500D01*
X290650Y527100D02*
X268150Y527100D01*
D12*
X279400Y459975D03*
X279400Y530625D03*
D10*
X420550Y514400D02*
X420550Y450800D01*
X443050Y450800D02*
X443050Y514400D01*
X420550Y514400D01*
X420550Y450800D02*
X443050Y450800D01*
D12*
X431800Y517925D03*
X431800Y447275D03*
D11*
X215900Y628650D02*
X209550Y622300D01*
X196850Y622300D01*
X190500Y628650D01*
X190500Y641350D02*
X196850Y647700D01*
X209550Y647700D01*
X215900Y641350D01*
X247650Y622300D02*
X260350Y622300D01*
X247650Y622300D02*
X241300Y628650D01*
X241300Y641350D02*
X247650Y647700D01*
X241300Y628650D02*
X234950Y622300D01*
X222250Y622300D01*
X215900Y628650D01*
X215900Y641350D02*
X222250Y647700D01*
X234950Y647700D01*
X241300Y641350D01*
X285750Y622300D02*
X292100Y628650D01*
X285750Y622300D02*
X273050Y622300D01*
X266700Y628650D01*
X266700Y641350D02*
X273050Y647700D01*
X285750Y647700D01*
X292100Y641350D01*
X266700Y628650D02*
X260350Y622300D01*
X266700Y641350D02*
X260350Y647700D01*
X247650Y647700D01*
X323850Y622300D02*
X336550Y622300D01*
X323850Y622300D02*
X317500Y628650D01*
X317500Y641350D02*
X323850Y647700D01*
X317500Y628650D02*
X311150Y622300D01*
X298450Y622300D01*
X292100Y628650D01*
X292100Y641350D02*
X298450Y647700D01*
X311150Y647700D01*
X317500Y641350D01*
X342900Y641350D02*
X342900Y628650D01*
X336550Y622300D01*
X342900Y641350D02*
X336550Y647700D01*
X323850Y647700D01*
X190500Y641350D02*
X190500Y628650D01*
X659130Y787400D02*
X665480Y781050D01*
X659130Y787400D02*
X646430Y787400D01*
X640080Y781050D01*
X640080Y768350D01*
X646430Y762000D01*
X659130Y762000D01*
X665480Y768350D01*
X665480Y781050D01*
X659130Y571500D02*
X665480Y565150D01*
X659130Y571500D02*
X646430Y571500D01*
X640080Y565150D01*
X640080Y552450D01*
X646430Y546100D01*
X659130Y546100D01*
X665480Y552450D01*
X665480Y565150D01*
M02*
