G04 EAGLE Gerber RS-274X export*
G75*
%MOMM*%
%FSLAX34Y34*%
%LPD*%
%INSoldermask Bottom*%
%IPPOS*%
%AMOC8*
5,1,8,0,0,1.08239X$1,22.5*%
G01*
%ADD10C,2.082800*%
%ADD11C,2.082800*%
%ADD12C,6.400800*%
%ADD13C,1.270000*%


D10*
X279400Y393700D03*
X279400Y368300D03*
X279400Y342900D03*
X279400Y317500D03*
X279400Y292100D03*
X279400Y266700D03*
X279400Y241300D03*
X279400Y215900D03*
X279400Y190500D03*
X279400Y165100D03*
X279400Y139700D03*
X279400Y114300D03*
X279400Y88900D03*
X279400Y63500D03*
X279400Y38100D03*
X431800Y38100D03*
X431800Y63500D03*
X431800Y88900D03*
X431800Y114300D03*
X431800Y139700D03*
X431800Y165100D03*
X431800Y190500D03*
X431800Y215900D03*
X431800Y241300D03*
X431800Y266700D03*
X431800Y292100D03*
X431800Y317500D03*
X431800Y342900D03*
X431800Y368300D03*
X431800Y393700D03*
D11*
X498602Y63500D02*
X517398Y63500D01*
X517398Y88900D02*
X498602Y88900D01*
X498602Y114300D02*
X517398Y114300D01*
X517398Y139700D02*
X498602Y139700D01*
X498602Y203200D02*
X517398Y203200D01*
X517398Y228600D02*
X498602Y228600D01*
X498602Y254000D02*
X517398Y254000D01*
X517398Y279400D02*
X498602Y279400D01*
D10*
X355600Y736600D03*
X381000Y736600D03*
X406400Y736600D03*
X520700Y736600D03*
X546100Y736600D03*
D12*
X76200Y50800D03*
X76200Y736600D03*
D10*
X584200Y38100D03*
X584200Y63500D03*
X584200Y88900D03*
X584200Y114300D03*
X584200Y139700D03*
X584200Y165100D03*
X584200Y190500D03*
X584200Y215900D03*
X584200Y241300D03*
X584200Y266700D03*
X584200Y292100D03*
X584200Y317500D03*
X584200Y342900D03*
X584200Y368300D03*
X584200Y393700D03*
X584200Y419100D03*
X584200Y444500D03*
X584200Y469900D03*
X584200Y495300D03*
X584200Y520700D03*
X584200Y546100D03*
X584200Y571500D03*
X495300Y533400D03*
X520700Y533400D03*
X495300Y444500D03*
X520700Y444500D03*
D13*
X469900Y457200D03*
X374650Y247650D03*
M02*
