G04 EAGLE Gerber RS-274X export*
G75*
%MOMM*%
%FSLAX34Y34*%
%LPD*%
%INSolderpaste Top*%
%IPPOS*%
%AMOC8*
5,1,8,0,0,1.08239X$1,22.5*%
G01*
%ADD10C,1.016000*%


D10*
X66040Y73660D02*
X65484Y73404D01*
X64934Y73135D01*
X64390Y72853D01*
X63854Y72557D01*
X63325Y72249D01*
X62804Y71927D01*
X62291Y71593D01*
X61786Y71246D01*
X61290Y70887D01*
X60803Y70516D01*
X60325Y70133D01*
X59857Y69739D01*
X59398Y69333D01*
X58949Y68917D01*
X58511Y68489D01*
X58083Y68051D01*
X57667Y67602D01*
X57261Y67143D01*
X56867Y66675D01*
X56484Y66197D01*
X56113Y65710D01*
X55754Y65214D01*
X55407Y64709D01*
X55073Y64196D01*
X54751Y63675D01*
X54443Y63146D01*
X54147Y62610D01*
X53865Y62066D01*
X53596Y61516D01*
X53340Y60960D01*
X86360Y73660D02*
X86916Y73404D01*
X87466Y73135D01*
X88010Y72853D01*
X88546Y72557D01*
X89075Y72249D01*
X89596Y71927D01*
X90109Y71593D01*
X90614Y71246D01*
X91110Y70887D01*
X91597Y70516D01*
X92075Y70133D01*
X92543Y69739D01*
X93002Y69333D01*
X93451Y68917D01*
X93889Y68489D01*
X94317Y68051D01*
X94733Y67602D01*
X95139Y67143D01*
X95533Y66675D01*
X95916Y66197D01*
X96287Y65710D01*
X96646Y65214D01*
X96993Y64709D01*
X97327Y64196D01*
X97649Y63675D01*
X97957Y63146D01*
X98253Y62610D01*
X98535Y62066D01*
X98804Y61516D01*
X99060Y60960D01*
X99060Y40640D02*
X98804Y40084D01*
X98535Y39534D01*
X98253Y38990D01*
X97957Y38454D01*
X97649Y37925D01*
X97327Y37404D01*
X96993Y36891D01*
X96646Y36386D01*
X96287Y35890D01*
X95916Y35403D01*
X95533Y34925D01*
X95139Y34457D01*
X94733Y33998D01*
X94317Y33549D01*
X93889Y33111D01*
X93451Y32683D01*
X93002Y32267D01*
X92543Y31861D01*
X92075Y31467D01*
X91597Y31084D01*
X91110Y30713D01*
X90614Y30354D01*
X90109Y30007D01*
X89596Y29673D01*
X89075Y29351D01*
X88546Y29043D01*
X88010Y28747D01*
X87466Y28465D01*
X86916Y28196D01*
X86360Y27940D01*
X66040Y27940D02*
X65484Y28196D01*
X64934Y28465D01*
X64390Y28747D01*
X63854Y29043D01*
X63325Y29351D01*
X62804Y29673D01*
X62291Y30007D01*
X61786Y30354D01*
X61290Y30713D01*
X60803Y31084D01*
X60325Y31467D01*
X59857Y31861D01*
X59398Y32267D01*
X58949Y32683D01*
X58511Y33111D01*
X58083Y33549D01*
X57667Y33998D01*
X57261Y34457D01*
X56867Y34925D01*
X56484Y35403D01*
X56113Y35890D01*
X55754Y36386D01*
X55407Y36891D01*
X55073Y37404D01*
X54751Y37925D01*
X54443Y38454D01*
X54147Y38990D01*
X53865Y39534D01*
X53596Y40084D01*
X53340Y40640D01*
X53340Y746760D02*
X53596Y747316D01*
X53865Y747866D01*
X54147Y748410D01*
X54443Y748946D01*
X54751Y749475D01*
X55073Y749996D01*
X55407Y750509D01*
X55754Y751014D01*
X56113Y751510D01*
X56484Y751997D01*
X56867Y752475D01*
X57261Y752943D01*
X57667Y753402D01*
X58083Y753851D01*
X58511Y754289D01*
X58949Y754717D01*
X59398Y755133D01*
X59857Y755539D01*
X60325Y755933D01*
X60803Y756316D01*
X61290Y756687D01*
X61786Y757046D01*
X62291Y757393D01*
X62804Y757727D01*
X63325Y758049D01*
X63854Y758357D01*
X64390Y758653D01*
X64934Y758935D01*
X65484Y759204D01*
X66040Y759460D01*
X86360Y759460D02*
X86916Y759204D01*
X87466Y758935D01*
X88010Y758653D01*
X88546Y758357D01*
X89075Y758049D01*
X89596Y757727D01*
X90109Y757393D01*
X90614Y757046D01*
X91110Y756687D01*
X91597Y756316D01*
X92075Y755933D01*
X92543Y755539D01*
X93002Y755133D01*
X93451Y754717D01*
X93889Y754289D01*
X94317Y753851D01*
X94733Y753402D01*
X95139Y752943D01*
X95533Y752475D01*
X95916Y751997D01*
X96287Y751510D01*
X96646Y751014D01*
X96993Y750509D01*
X97327Y749996D01*
X97649Y749475D01*
X97957Y748946D01*
X98253Y748410D01*
X98535Y747866D01*
X98804Y747316D01*
X99060Y746760D01*
X99060Y726440D02*
X98804Y725884D01*
X98535Y725334D01*
X98253Y724790D01*
X97957Y724254D01*
X97649Y723725D01*
X97327Y723204D01*
X96993Y722691D01*
X96646Y722186D01*
X96287Y721690D01*
X95916Y721203D01*
X95533Y720725D01*
X95139Y720257D01*
X94733Y719798D01*
X94317Y719349D01*
X93889Y718911D01*
X93451Y718483D01*
X93002Y718067D01*
X92543Y717661D01*
X92075Y717267D01*
X91597Y716884D01*
X91110Y716513D01*
X90614Y716154D01*
X90109Y715807D01*
X89596Y715473D01*
X89075Y715151D01*
X88546Y714843D01*
X88010Y714547D01*
X87466Y714265D01*
X86916Y713996D01*
X86360Y713740D01*
X66040Y713740D02*
X65484Y713996D01*
X64934Y714265D01*
X64390Y714547D01*
X63854Y714843D01*
X63325Y715151D01*
X62804Y715473D01*
X62291Y715807D01*
X61786Y716154D01*
X61290Y716513D01*
X60803Y716884D01*
X60325Y717267D01*
X59857Y717661D01*
X59398Y718067D01*
X58949Y718483D01*
X58511Y718911D01*
X58083Y719349D01*
X57667Y719798D01*
X57261Y720257D01*
X56867Y720725D01*
X56484Y721203D01*
X56113Y721690D01*
X55754Y722186D01*
X55407Y722691D01*
X55073Y723204D01*
X54751Y723725D01*
X54443Y724254D01*
X54147Y724790D01*
X53865Y725334D01*
X53596Y725884D01*
X53340Y726440D01*
M02*
