G04 EAGLE Gerber RS-274X export*
G75*
%MOMM*%
%FSLAX34Y34*%
%LPD*%
%INBottom Copper*%
%IPPOS*%
%AMOC8*
5,1,8,0,0,1.08239X$1,22.5*%
G01*
%ADD10C,1.879600*%
%ADD11C,2.000000*%
%ADD12C,1.320800*%
%ADD13C,0.254000*%


D10*
X101600Y177800D03*
X127000Y177800D03*
X152400Y177800D03*
X177800Y177800D03*
X203200Y177800D03*
X228600Y177800D03*
X254000Y177800D03*
X279400Y177800D03*
X304800Y177800D03*
X330200Y177800D03*
X355600Y177800D03*
X381000Y177800D03*
X381000Y25400D03*
X355600Y25400D03*
X330200Y25400D03*
X304800Y25400D03*
X279400Y25400D03*
X254000Y25400D03*
X228600Y25400D03*
X203200Y25400D03*
X177800Y25400D03*
X152400Y25400D03*
X127000Y25400D03*
X101600Y25400D03*
X406400Y38100D03*
X406400Y63500D03*
X406400Y88900D03*
X406400Y114300D03*
X406400Y139700D03*
X406400Y165100D03*
X187960Y220980D03*
X162560Y220980D03*
X137160Y220980D03*
X266700Y50800D03*
X292100Y50800D03*
X335280Y218440D03*
X309880Y218440D03*
X30480Y129540D03*
X30480Y104140D03*
X30480Y78740D03*
D11*
X406400Y276860D03*
X254000Y276860D03*
D12*
X460756Y289560D02*
X473964Y289560D01*
X473964Y238760D02*
X460756Y238760D01*
X460756Y264160D02*
X473964Y264160D01*
D11*
X63500Y276860D03*
X215900Y276860D03*
D10*
X571500Y167640D03*
X571500Y142240D03*
X571500Y116840D03*
X571500Y91440D03*
D11*
X447040Y38100D03*
X447040Y190500D03*
X490220Y190500D03*
X490220Y38100D03*
X530860Y190500D03*
X530860Y38100D03*
D13*
X334963Y219075D02*
X319088Y234950D01*
X176213Y234950D01*
X163513Y222250D01*
X334963Y219075D02*
X335280Y218440D01*
X163513Y222250D02*
X162560Y220980D01*
X343694Y64294D02*
X368300Y88900D01*
X343694Y64294D02*
X304800Y25400D01*
X368300Y88900D02*
X406400Y88900D01*
X458788Y141288D01*
X571500Y141288D01*
X571500Y142240D01*
X69850Y65088D02*
X31750Y103188D01*
X69850Y65088D02*
X342900Y65088D01*
X31750Y103188D02*
X30480Y104140D01*
X342900Y65088D02*
X343694Y64294D01*
X65088Y163513D02*
X31750Y130175D01*
X65088Y163513D02*
X163513Y163513D01*
X177800Y177800D01*
X31750Y130175D02*
X30480Y129540D01*
X101600Y177800D02*
X128588Y204788D01*
X474663Y204788D01*
X488950Y190500D01*
X490220Y190500D01*
X466725Y239713D02*
X430213Y276225D01*
X406400Y276225D01*
X466725Y239713D02*
X467360Y238760D01*
X406400Y276225D02*
X406400Y276860D01*
X439738Y292100D02*
X466725Y265113D01*
X439738Y292100D02*
X230188Y292100D01*
X215900Y277813D01*
X466725Y265113D02*
X467360Y264160D01*
X215900Y276860D02*
X215900Y277813D01*
X563563Y176213D02*
X571500Y168275D01*
X563563Y176213D02*
X461963Y176213D01*
X447675Y190500D01*
X571500Y168275D02*
X571500Y167640D01*
X447675Y190500D02*
X447040Y190500D01*
X571500Y115888D02*
X493713Y38100D01*
X490220Y38100D01*
X571500Y115888D02*
X571500Y116840D01*
M02*
