G04 EAGLE Gerber RS-274X export*
G75*
%MOMM*%
%FSLAX34Y34*%
%LPD*%
%INTop Copper*%
%IPPOS*%
%AMOC8*
5,1,8,0,0,1.08239X$1,22.5*%
G01*
%ADD10C,1.879600*%
%ADD11C,2.000000*%
%ADD12C,1.320800*%
%ADD13C,0.254000*%


D10*
X101600Y177800D03*
X127000Y177800D03*
X152400Y177800D03*
X177800Y177800D03*
X203200Y177800D03*
X228600Y177800D03*
X254000Y177800D03*
X279400Y177800D03*
X304800Y177800D03*
X330200Y177800D03*
X355600Y177800D03*
X381000Y177800D03*
X381000Y25400D03*
X355600Y25400D03*
X330200Y25400D03*
X304800Y25400D03*
X279400Y25400D03*
X254000Y25400D03*
X228600Y25400D03*
X203200Y25400D03*
X177800Y25400D03*
X152400Y25400D03*
X127000Y25400D03*
X101600Y25400D03*
X406400Y38100D03*
X406400Y63500D03*
X406400Y88900D03*
X406400Y114300D03*
X406400Y139700D03*
X406400Y165100D03*
X187960Y220980D03*
X162560Y220980D03*
X137160Y220980D03*
X266700Y50800D03*
X292100Y50800D03*
X335280Y218440D03*
X309880Y218440D03*
X30480Y129540D03*
X30480Y104140D03*
X30480Y78740D03*
D11*
X406400Y276860D03*
X254000Y276860D03*
D12*
X460756Y289560D02*
X473964Y289560D01*
X473964Y238760D02*
X460756Y238760D01*
X460756Y264160D02*
X473964Y264160D01*
D11*
X63500Y276860D03*
X215900Y276860D03*
D10*
X571500Y167640D03*
X571500Y142240D03*
X571500Y116840D03*
X571500Y91440D03*
D11*
X447040Y38100D03*
X447040Y190500D03*
X490220Y190500D03*
X490220Y38100D03*
X530860Y190500D03*
X530860Y38100D03*
D13*
X334963Y207963D02*
X304800Y177800D01*
X334963Y207963D02*
X334963Y217488D01*
X335280Y218440D01*
X306388Y163513D02*
X406400Y63500D01*
X306388Y163513D02*
X306388Y177800D01*
X304800Y177800D01*
X30163Y79375D02*
X15875Y93663D01*
X15875Y134938D01*
X115888Y234950D01*
X161925Y234950D01*
X161925Y222250D01*
X30163Y79375D02*
X30480Y78740D01*
X162560Y220980D02*
X161925Y222250D01*
X80963Y153988D02*
X31750Y104775D01*
X80963Y153988D02*
X80963Y184150D01*
X117475Y220663D01*
X136525Y220663D01*
X31750Y104775D02*
X30480Y104140D01*
X136525Y220663D02*
X137160Y220980D01*
X468313Y288925D02*
X557213Y200025D01*
X557213Y157163D01*
X571500Y142875D01*
X468313Y288925D02*
X467360Y289560D01*
X571500Y142875D02*
X571500Y142240D01*
X406400Y114300D02*
X355600Y165100D01*
X355600Y177800D01*
X381000Y165100D02*
X406400Y139700D01*
X381000Y165100D02*
X381000Y177800D01*
X254000Y177800D02*
X155575Y276225D01*
X63500Y276225D01*
X63500Y276860D01*
X203200Y177800D02*
X341313Y39688D01*
X392113Y39688D01*
X392113Y33338D01*
X401638Y23813D01*
X446088Y23813D01*
X446088Y38100D01*
X447040Y38100D01*
X279400Y25400D02*
X268288Y36513D01*
X261938Y36513D01*
X134938Y163513D01*
X87313Y163513D01*
X87313Y182563D01*
X111125Y206375D01*
X187325Y206375D01*
X187325Y220663D01*
X187960Y220980D01*
X101600Y25400D02*
X115888Y11113D01*
X515938Y11113D01*
X515938Y176213D01*
X530225Y190500D01*
X530860Y190500D01*
X309563Y219075D02*
X254000Y274638D01*
X254000Y276860D01*
X309563Y219075D02*
X309880Y218440D01*
X531813Y50800D02*
X571500Y90488D01*
X531813Y50800D02*
X531813Y38100D01*
X571500Y90488D02*
X571500Y91440D01*
X531813Y38100D02*
X530860Y38100D01*
M02*
