G04 EAGLE Gerber RS-274X export*
G75*
%MOMM*%
%FSLAX34Y34*%
%LPD*%
%INSoldermask Bottom*%
%IPPOS*%
%AMOC8*
5,1,8,0,0,1.08239X$1,22.5*%
G01*
%ADD10C,2.082800*%
%ADD11C,2.203200*%
%ADD12C,1.524000*%


D10*
X101600Y177800D03*
X127000Y177800D03*
X152400Y177800D03*
X177800Y177800D03*
X203200Y177800D03*
X228600Y177800D03*
X254000Y177800D03*
X279400Y177800D03*
X304800Y177800D03*
X330200Y177800D03*
X355600Y177800D03*
X381000Y177800D03*
X381000Y25400D03*
X355600Y25400D03*
X330200Y25400D03*
X304800Y25400D03*
X279400Y25400D03*
X254000Y25400D03*
X228600Y25400D03*
X203200Y25400D03*
X177800Y25400D03*
X152400Y25400D03*
X127000Y25400D03*
X101600Y25400D03*
X406400Y38100D03*
X406400Y63500D03*
X406400Y88900D03*
X406400Y114300D03*
X406400Y139700D03*
X406400Y165100D03*
X187960Y220980D03*
X162560Y220980D03*
X137160Y220980D03*
X266700Y50800D03*
X292100Y50800D03*
X335280Y218440D03*
X309880Y218440D03*
X30480Y129540D03*
X30480Y104140D03*
X30480Y78740D03*
D11*
X406400Y276860D03*
X254000Y276860D03*
D12*
X460756Y289560D02*
X473964Y289560D01*
X473964Y238760D02*
X460756Y238760D01*
X460756Y264160D02*
X473964Y264160D01*
D11*
X63500Y276860D03*
X215900Y276860D03*
D10*
X571500Y167640D03*
X571500Y142240D03*
X571500Y116840D03*
X571500Y91440D03*
D11*
X447040Y38100D03*
X447040Y190500D03*
X490220Y190500D03*
X490220Y38100D03*
X530860Y190500D03*
X530860Y38100D03*
M02*
