M48
;GenerationSoftware,Autodesk,EAGLE,9.6.1*%
;CreationDate,2020-12-23T16:10:34Z*%
FMAT,2
ICI,OFF
METRIC,TZ,000.000
T4C0.559
T3C1.016
T2C1.118
T1C4.191
%
G90
M71
T1
X7620Y5080
X7620Y73660
T2
X50800Y13970
X50800Y25400
X50800Y20320
X50800Y6350
X50800Y22860
X50800Y8890
X50800Y11430
X50800Y27940
T3
X27940Y36830
X27940Y34290
X27940Y31750
X27940Y29210
X27940Y26670
X27940Y24130
X27940Y19050
X27940Y16510
X27940Y13970
X27940Y11430
X27940Y8890
X27940Y6350
X27940Y3810
X43180Y3810
X43180Y8890
X43180Y11430
X43180Y13970
X43180Y16510
X43180Y19050
X43180Y21590
X43180Y24130
X43180Y26670
X43180Y31750
X43180Y34290
X43180Y36830
X43180Y39370
X43180Y6350
X27940Y21590
X35560Y73660
X38100Y73660
X40640Y73660
X52070Y73660
X54610Y73660
X43180Y29210
X27940Y39370
X58420Y3810
X58420Y6350
X58420Y8890
X58420Y11430
X58420Y13970
X58420Y16510
X58420Y19050
X58420Y21590
X58420Y24130
X58420Y26670
X58420Y29210
X58420Y31750
X58420Y34290
X58420Y36830
X58420Y39370
X58420Y41910
X58420Y44450
X58420Y46990
X58420Y49530
X58420Y52070
X58420Y54610
X58420Y57150
X49530Y53340
X52070Y53340
X49530Y44450
X52070Y44450
T4
X46990Y45720
X37465Y24765
M30