M48
;GenerationSoftware,Autodesk,EAGLE,9.6.1*%
;CreationDate,2021-01-06T21:13:51Z*%
FMAT,2
ICI,OFF
METRIC,TZ,000.000
T5C0.559
T4C0.900
T3C1.016
T2C1.118
T1C4.191
%
G90
M71
T1
X7620Y73660
X7620Y5080
T2
X50800Y27940
X50800Y6350
X50800Y8890
X50800Y11430
X31750Y48260
X36830Y48260
X39370Y48260
X50800Y13970
X50800Y20320
X50800Y22860
X34290Y48260
X50800Y25400
T3
X27940Y19050
X25400Y63500
X22860Y63500
X20320Y63500
X65278Y77470
X65278Y55880
X27940Y39370
X27940Y36830
X27940Y34290
X27940Y31750
X27940Y29210
X27940Y26670
X27940Y24130
X27940Y21590
X43180Y29210
X27940Y16510
X27940Y13970
X27940Y11430
X27940Y8890
X27940Y6350
X27940Y3810
X43180Y3810
X43180Y6350
X43180Y8890
X43180Y11430
X43180Y13970
X43180Y16510
X43180Y19050
X43180Y21590
X43180Y24130
X43180Y26670
X43180Y31750
X43180Y34290
X43180Y36830
X43180Y39370
X35560Y73660
X38100Y73660
X40640Y73660
X35560Y69850
X38100Y69850
X58420Y3810
X58420Y6350
X58420Y8890
X58420Y11430
X58420Y13970
X58420Y16510
X58420Y19050
X58420Y21590
X58420Y24130
X58420Y26670
X58420Y29210
X58420Y31750
X58420Y34290
X58420Y36830
X58420Y39370
X58420Y41910
X58420Y44450
X58420Y46990
X58420Y49530
X58420Y52070
X58420Y54610
X58420Y57150
X50800Y41910
X53340Y41910
X50800Y34290
X53340Y34290
X20320Y55118
X20320Y15240
X2540Y55118
X2540Y15240
X13970Y68580
X19050Y68580
X30480Y68580
X25400Y68580
X48260Y54610
X50800Y54610
X53340Y54610
X48260Y57150
X50800Y57150
X53340Y57150
X48260Y59690
X50800Y59690
X53340Y59690
X48260Y62230
X50800Y62230
X53340Y62230
X48260Y64770
X50800Y64770
X53340Y64770
X48260Y67310
X50800Y67310
X53340Y67310
X48260Y69850
X50800Y69850
X48260Y72390
X50800Y72390
X53340Y72390
X63500Y29210
X63500Y26670
X63500Y24130
X63500Y21590
X63500Y19050
X63500Y16510
X63500Y13970
X63500Y11430
X63500Y8890
X63500Y6350
X63500Y3810
X53340Y69850
X35560Y58420
X29210Y58420
X33020Y63500
X30480Y63500
X27940Y63500
T4
X43180Y53340
X43180Y43180
X25400Y44450
X25400Y54610
X27940Y44450
X27940Y54610
T5
X21749Y27146
X22860Y24130
X32861Y43021
X45085Y38576
X53657Y52070
X40640Y35719
X54292Y48577
X55562Y42228
X54927Y45402
M30