M48
;GenerationSoftware,Autodesk,EAGLE,9.6.1*%
;CreationDate,2021-01-15T04:22:03Z*%
FMAT,2
ICI,OFF
METRIC,TZ,000.000
T3C1.016
T2C1.100
T1C2.800
%
G90
M71
T1
X3810Y47244
X8636Y47498
X13208Y47498
X18034Y47244
X22606Y47244
X27432Y47244
X32004Y47244
X36830Y47498
X41656Y47752
X46228Y47752
X51054Y47752
X55626Y47752
X60198Y47752
X64516Y47752
X19812Y70358
X19812Y65532
X19812Y60960
X19812Y56642
X20066Y52578
X40894Y70866
X41148Y66294
X41148Y61722
X41402Y57150
X41402Y52578
T2
X49022Y3810
X49022Y19050
X44704Y3810
X44704Y19050
X53086Y19050
X53086Y3810
T3
X15240Y17780
X17780Y17780
X20320Y17780
X22860Y17780
X25400Y17780
X27940Y17780
X30480Y17780
X33020Y17780
X35560Y17780
X38100Y17780
X38100Y2540
X35560Y2540
X33020Y2540
X30480Y2540
X27940Y2540
X25400Y2540
X22860Y2540
X20320Y2540
X15240Y2540
X12700Y2540
X10160Y2540
X3048Y12954
X3048Y10414
X3048Y7874
X57150Y16764
X57150Y14224
X57150Y11684
X57150Y9144
X17780Y2540
X10160Y17780
X12700Y17780
X25400Y42164
X40386Y30988
X37846Y30988
X35306Y30988
X32766Y30988
X30226Y30988
X27686Y30988
X5080Y24130
X5080Y19050
X20320Y42164
X43180Y41656
X48768Y41910
X11430Y29718
X8890Y29718
X6350Y29718
X3810Y29718
X64516Y28702
X61976Y28702
X59436Y28702
X56896Y28702
X5334Y37084
X7874Y37084
X10414Y37084
X6604Y39624
X9144Y39624
X11684Y39624
X58674Y37084
X61214Y37084
X63754Y37084
X59690Y39624
X62230Y39624
X64770Y39624
X8128Y68072
X10668Y68072
X13208Y68072
X6858Y65532
X9398Y65532
X11938Y65532
X6858Y55626
X11938Y55626
X26924Y66040
X29464Y66040
X32004Y66040
X26924Y54864
X28194Y68580
X30734Y68580
X33274Y68580
X32004Y54864
X51562Y65024
X54102Y65024
X56642Y65024
X51562Y55880
X52832Y67564
X55372Y67564
X57912Y67564
X56642Y55880
M30