M48
;GenerationSoftware,Autodesk,EAGLE,9.6.1*%
;CreationDate,2021-01-05T20:14:22Z*%
FMAT,2
ICI,OFF
METRIC,TZ,000.000
T4C0.800
T3C1.016
T2C1.100
T1C3.250
%
G90
M71
T1
X13208Y42418
X3048Y42418
X65532Y42926
X55372Y42926
T2
X44704Y3810
X44704Y19050
X49022Y19050
X49022Y3810
X53086Y19050
X53086Y3810
T3
X20320Y17780
X22860Y17780
X25400Y17780
X27940Y17780
X30480Y17780
X33020Y17780
X35560Y17780
X38100Y17780
X38100Y2540
X35560Y2540
X33020Y2540
X30480Y2540
X27940Y2540
X25400Y2540
X22860Y2540
X20320Y2540
X17780Y2540
X15240Y2540
X12700Y2540
X3048Y12954
X3048Y10414
X3048Y7874
X57150Y16764
X57150Y14224
X57150Y11684
X57150Y9144
X10160Y2540
X10160Y17780
X12700Y17780
X15240Y17780
X17780Y17780
X19050Y40640
X40386Y30988
X37846Y30988
X35306Y30988
X32766Y30988
X30226Y30988
X27686Y30988
X5080Y25400
X5080Y20320
X24130Y40640
X49530Y40640
X44450Y40640
X10922Y29210
X8382Y29210
X5842Y29210
X3302Y29210
X61468Y29972
X58928Y29972
X56388Y29972
X53848Y29972
T4
X63627Y34036
X57277Y36576
X11303Y33528
X4953Y36068
X10033Y36068
X7493Y36068
X6223Y33528
X8763Y33528
X62357Y36576
X59817Y36576
X58547Y34036
X61087Y34036
M30