M48
;GenerationSoftware,Autodesk,EAGLE,9.6.1*%
;CreationDate,2020-12-29T21:08:07Z*%
FMAT,2
ICI,OFF
METRIC,TZ,000.000
T3C0.813
T2C1.016
T1C1.100
%
G90
M71
T1
X40640Y27686
X25400Y27686
X53086Y3810
X6350Y27686
X21590Y27686
X44704Y3810
X44704Y19050
X49022Y19050
X49022Y3810
X53086Y19050
T2
X35560Y17780
X38100Y17780
X38100Y2540
X35560Y2540
X33020Y2540
X30480Y2540
X27940Y2540
X25400Y2540
X22860Y2540
X20320Y2540
X17780Y2540
X15240Y2540
X12700Y2540
X10160Y2540
X40640Y3810
X40640Y6350
X40640Y8890
X40640Y11430
X40640Y13970
X40640Y16510
X18796Y22098
X16256Y22098
X13716Y22098
X26670Y5080
X29210Y5080
X33528Y21844
X30988Y21844
X3048Y12954
X3048Y10414
X3048Y7874
X10160Y17780
X12700Y17780
X15240Y17780
X17780Y17780
X20320Y17780
X57150Y16764
X57150Y14224
X57150Y11684
X57150Y9144
X22860Y17780
X25400Y17780
X27940Y17780
X30480Y17780
X33020Y17780
T3
X46736Y26416
X46736Y23876
X46736Y28956
M30