G04 EAGLE Gerber RS-274X export*
G75*
%MOMM*%
%FSLAX34Y34*%
%LPD*%
%IN*%
%IPPOS*%
%AMOC8*
5,1,8,0,0,1.08239X$1,22.5*%
G01*
%ADD10C,0.254000*%


D10*
X0Y0D02*
X683260Y2540D01*
X683260Y459740D01*
X0Y457200D01*
X0Y0D01*
X132612Y440430D02*
X133674Y440360D01*
X134728Y440222D01*
X135772Y440014D01*
X136800Y439739D01*
X137807Y439397D01*
X138790Y438989D01*
X139744Y438519D01*
X140666Y437987D01*
X141550Y437396D01*
X142394Y436748D01*
X143194Y436047D01*
X143947Y435294D01*
X144648Y434494D01*
X145296Y433650D01*
X145887Y432766D01*
X146419Y431844D01*
X146889Y430890D01*
X147297Y429907D01*
X147639Y428900D01*
X147914Y427872D01*
X148122Y426828D01*
X148260Y425774D01*
X148330Y424712D01*
X148330Y423648D01*
X148260Y422586D01*
X148122Y421532D01*
X147914Y420488D01*
X147639Y419460D01*
X147297Y418453D01*
X146889Y417470D01*
X146419Y416516D01*
X145887Y415594D01*
X145296Y414710D01*
X144648Y413866D01*
X143947Y413066D01*
X143194Y412313D01*
X142394Y411612D01*
X141550Y410964D01*
X140666Y410373D01*
X139744Y409841D01*
X138790Y409371D01*
X137807Y408963D01*
X136800Y408621D01*
X135772Y408346D01*
X134728Y408138D01*
X133674Y408000D01*
X132612Y407930D01*
X131548Y407930D01*
X130486Y408000D01*
X129432Y408138D01*
X128388Y408346D01*
X127360Y408621D01*
X126353Y408963D01*
X125370Y409371D01*
X124416Y409841D01*
X123494Y410373D01*
X122610Y410964D01*
X121766Y411612D01*
X120966Y412313D01*
X120213Y413066D01*
X119512Y413866D01*
X118864Y414710D01*
X118273Y415594D01*
X117741Y416516D01*
X117271Y417470D01*
X116863Y418453D01*
X116521Y419460D01*
X116246Y420488D01*
X116038Y421532D01*
X115900Y422586D01*
X115830Y423648D01*
X115830Y424712D01*
X115900Y425774D01*
X116038Y426828D01*
X116246Y427872D01*
X116521Y428900D01*
X116863Y429907D01*
X117271Y430890D01*
X117741Y431844D01*
X118273Y432766D01*
X118864Y433650D01*
X119512Y434494D01*
X120213Y435294D01*
X120966Y436047D01*
X121766Y436748D01*
X122610Y437396D01*
X123494Y437987D01*
X124416Y438519D01*
X125370Y438989D01*
X126353Y439397D01*
X127360Y439739D01*
X128388Y440014D01*
X129432Y440222D01*
X130486Y440360D01*
X131548Y440430D01*
X132612Y440430D01*
X31012Y440430D02*
X32074Y440360D01*
X33128Y440222D01*
X34172Y440014D01*
X35200Y439739D01*
X36207Y439397D01*
X37190Y438989D01*
X38144Y438519D01*
X39066Y437987D01*
X39950Y437396D01*
X40794Y436748D01*
X41594Y436047D01*
X42347Y435294D01*
X43048Y434494D01*
X43696Y433650D01*
X44287Y432766D01*
X44819Y431844D01*
X45289Y430890D01*
X45697Y429907D01*
X46039Y428900D01*
X46314Y427872D01*
X46522Y426828D01*
X46660Y425774D01*
X46730Y424712D01*
X46730Y423648D01*
X46660Y422586D01*
X46522Y421532D01*
X46314Y420488D01*
X46039Y419460D01*
X45697Y418453D01*
X45289Y417470D01*
X44819Y416516D01*
X44287Y415594D01*
X43696Y414710D01*
X43048Y413866D01*
X42347Y413066D01*
X41594Y412313D01*
X40794Y411612D01*
X39950Y410964D01*
X39066Y410373D01*
X38144Y409841D01*
X37190Y409371D01*
X36207Y408963D01*
X35200Y408621D01*
X34172Y408346D01*
X33128Y408138D01*
X32074Y408000D01*
X31012Y407930D01*
X29948Y407930D01*
X28886Y408000D01*
X27832Y408138D01*
X26788Y408346D01*
X25760Y408621D01*
X24753Y408963D01*
X23770Y409371D01*
X22816Y409841D01*
X21894Y410373D01*
X21010Y410964D01*
X20166Y411612D01*
X19366Y412313D01*
X18613Y413066D01*
X17912Y413866D01*
X17264Y414710D01*
X16673Y415594D01*
X16141Y416516D01*
X15671Y417470D01*
X15263Y418453D01*
X14921Y419460D01*
X14646Y420488D01*
X14438Y421532D01*
X14300Y422586D01*
X14230Y423648D01*
X14230Y424712D01*
X14300Y425774D01*
X14438Y426828D01*
X14646Y427872D01*
X14921Y428900D01*
X15263Y429907D01*
X15671Y430890D01*
X16141Y431844D01*
X16673Y432766D01*
X17264Y433650D01*
X17912Y434494D01*
X18613Y435294D01*
X19366Y436047D01*
X20166Y436748D01*
X21010Y437396D01*
X21894Y437987D01*
X22816Y438519D01*
X23770Y438989D01*
X24753Y439397D01*
X25760Y439739D01*
X26788Y440014D01*
X27832Y440222D01*
X28886Y440360D01*
X29948Y440430D01*
X31012Y440430D01*
X655852Y445510D02*
X656914Y445440D01*
X657968Y445302D01*
X659012Y445094D01*
X660040Y444819D01*
X661047Y444477D01*
X662030Y444069D01*
X662984Y443599D01*
X663906Y443067D01*
X664790Y442476D01*
X665634Y441828D01*
X666434Y441127D01*
X667187Y440374D01*
X667888Y439574D01*
X668536Y438730D01*
X669127Y437846D01*
X669659Y436924D01*
X670129Y435970D01*
X670537Y434987D01*
X670879Y433980D01*
X671154Y432952D01*
X671362Y431908D01*
X671500Y430854D01*
X671570Y429792D01*
X671570Y428728D01*
X671500Y427666D01*
X671362Y426612D01*
X671154Y425568D01*
X670879Y424540D01*
X670537Y423533D01*
X670129Y422550D01*
X669659Y421596D01*
X669127Y420674D01*
X668536Y419790D01*
X667888Y418946D01*
X667187Y418146D01*
X666434Y417393D01*
X665634Y416692D01*
X664790Y416044D01*
X663906Y415453D01*
X662984Y414921D01*
X662030Y414451D01*
X661047Y414043D01*
X660040Y413701D01*
X659012Y413426D01*
X657968Y413218D01*
X656914Y413080D01*
X655852Y413010D01*
X654788Y413010D01*
X653726Y413080D01*
X652672Y413218D01*
X651628Y413426D01*
X650600Y413701D01*
X649593Y414043D01*
X648610Y414451D01*
X647656Y414921D01*
X646734Y415453D01*
X645850Y416044D01*
X645006Y416692D01*
X644206Y417393D01*
X643453Y418146D01*
X642752Y418946D01*
X642104Y419790D01*
X641513Y420674D01*
X640981Y421596D01*
X640511Y422550D01*
X640103Y423533D01*
X639761Y424540D01*
X639486Y425568D01*
X639278Y426612D01*
X639140Y427666D01*
X639070Y428728D01*
X639070Y429792D01*
X639140Y430854D01*
X639278Y431908D01*
X639486Y432952D01*
X639761Y433980D01*
X640103Y434987D01*
X640511Y435970D01*
X640981Y436924D01*
X641513Y437846D01*
X642104Y438730D01*
X642752Y439574D01*
X643453Y440374D01*
X644206Y441127D01*
X645006Y441828D01*
X645850Y442476D01*
X646734Y443067D01*
X647656Y443599D01*
X648610Y444069D01*
X649593Y444477D01*
X650600Y444819D01*
X651628Y445094D01*
X652672Y445302D01*
X653726Y445440D01*
X654788Y445510D01*
X655852Y445510D01*
X554252Y445510D02*
X555314Y445440D01*
X556368Y445302D01*
X557412Y445094D01*
X558440Y444819D01*
X559447Y444477D01*
X560430Y444069D01*
X561384Y443599D01*
X562306Y443067D01*
X563190Y442476D01*
X564034Y441828D01*
X564834Y441127D01*
X565587Y440374D01*
X566288Y439574D01*
X566936Y438730D01*
X567527Y437846D01*
X568059Y436924D01*
X568529Y435970D01*
X568937Y434987D01*
X569279Y433980D01*
X569554Y432952D01*
X569762Y431908D01*
X569900Y430854D01*
X569970Y429792D01*
X569970Y428728D01*
X569900Y427666D01*
X569762Y426612D01*
X569554Y425568D01*
X569279Y424540D01*
X568937Y423533D01*
X568529Y422550D01*
X568059Y421596D01*
X567527Y420674D01*
X566936Y419790D01*
X566288Y418946D01*
X565587Y418146D01*
X564834Y417393D01*
X564034Y416692D01*
X563190Y416044D01*
X562306Y415453D01*
X561384Y414921D01*
X560430Y414451D01*
X559447Y414043D01*
X558440Y413701D01*
X557412Y413426D01*
X556368Y413218D01*
X555314Y413080D01*
X554252Y413010D01*
X553188Y413010D01*
X552126Y413080D01*
X551072Y413218D01*
X550028Y413426D01*
X549000Y413701D01*
X547993Y414043D01*
X547010Y414451D01*
X546056Y414921D01*
X545134Y415453D01*
X544250Y416044D01*
X543406Y416692D01*
X542606Y417393D01*
X541853Y418146D01*
X541152Y418946D01*
X540504Y419790D01*
X539913Y420674D01*
X539381Y421596D01*
X538911Y422550D01*
X538503Y423533D01*
X538161Y424540D01*
X537886Y425568D01*
X537678Y426612D01*
X537540Y427666D01*
X537470Y428728D01*
X537470Y429792D01*
X537540Y430854D01*
X537678Y431908D01*
X537886Y432952D01*
X538161Y433980D01*
X538503Y434987D01*
X538911Y435970D01*
X539381Y436924D01*
X539913Y437846D01*
X540504Y438730D01*
X541152Y439574D01*
X541853Y440374D01*
X542606Y441127D01*
X543406Y441828D01*
X544250Y442476D01*
X545134Y443067D01*
X546056Y443599D01*
X547010Y444069D01*
X547993Y444477D01*
X549000Y444819D01*
X550028Y445094D01*
X551072Y445302D01*
X552126Y445440D01*
X553188Y445510D01*
X554252Y445510D01*
M02*
