G04 EAGLE Gerber RS-274X export*
G75*
%MOMM*%
%FSLAX34Y34*%
%LPD*%
%INSilkscreen Top*%
%IPPOS*%
%AMOC8*
5,1,8,0,0,1.08239X$1,22.5*%
G01*
%ADD10C,0.152400*%
%ADD11C,0.203200*%
%ADD12R,0.812800X0.850000*%
%ADD13C,0.127000*%


D10*
X399953Y46526D02*
X396987Y43560D01*
X396987Y37629D01*
X399953Y34663D01*
X411816Y34663D01*
X414782Y37629D01*
X414782Y43560D01*
X411816Y46526D01*
X414782Y55404D02*
X414782Y61335D01*
X411816Y64301D01*
X405884Y64301D01*
X402919Y61335D01*
X402919Y55404D01*
X405884Y52438D01*
X411816Y52438D01*
X414782Y55404D01*
X414782Y70213D02*
X402919Y70213D01*
X402919Y79110D01*
X405884Y82076D01*
X414782Y82076D01*
X414782Y87987D02*
X402919Y87987D01*
X402919Y96885D01*
X405884Y99851D01*
X414782Y99851D01*
X414782Y108728D02*
X414782Y114660D01*
X414782Y108728D02*
X411816Y105762D01*
X405884Y105762D01*
X402919Y108728D01*
X402919Y114660D01*
X405884Y117626D01*
X408850Y117626D01*
X408850Y105762D01*
X402919Y126503D02*
X402919Y135401D01*
X402919Y126503D02*
X405884Y123537D01*
X411816Y123537D01*
X414782Y126503D01*
X414782Y135401D01*
X411816Y144278D02*
X399953Y144278D01*
X411816Y144278D02*
X414782Y147244D01*
X402919Y147244D02*
X402919Y141312D01*
X56642Y142509D02*
X56642Y124714D01*
X65540Y124714D01*
X68505Y127680D01*
X68505Y139543D01*
X65540Y142509D01*
X56642Y142509D01*
X80349Y139543D02*
X86280Y142509D01*
X80349Y139543D02*
X74417Y133612D01*
X74417Y127680D01*
X77383Y124714D01*
X83314Y124714D01*
X86280Y127680D01*
X86280Y130646D01*
X83314Y133612D01*
X74417Y133612D01*
X56642Y113553D02*
X56642Y101690D01*
X62574Y95758D01*
X68505Y101690D01*
X68505Y113553D01*
X83314Y113553D02*
X86280Y110587D01*
X83314Y113553D02*
X77383Y113553D01*
X74417Y110587D01*
X74417Y98724D01*
X77383Y95758D01*
X83314Y95758D01*
X86280Y98724D01*
X101089Y113553D02*
X104055Y110587D01*
X101089Y113553D02*
X95158Y113553D01*
X92192Y110587D01*
X92192Y98724D01*
X95158Y95758D01*
X101089Y95758D01*
X104055Y98724D01*
X68505Y81631D02*
X65540Y84597D01*
X59608Y84597D01*
X56642Y81631D01*
X56642Y69768D01*
X59608Y66802D01*
X65540Y66802D01*
X68505Y69768D01*
X68505Y75700D01*
X62574Y75700D01*
X74417Y84597D02*
X74417Y66802D01*
X86280Y66802D02*
X74417Y84597D01*
X86280Y84597D02*
X86280Y66802D01*
X92192Y66802D02*
X92192Y84597D01*
X92192Y66802D02*
X101089Y66802D01*
X104055Y69768D01*
X104055Y81631D01*
X101089Y84597D01*
X92192Y84597D01*
X83745Y264937D02*
X71882Y264937D01*
X83745Y264937D02*
X83745Y261971D01*
X71882Y250108D01*
X71882Y247142D01*
X89657Y247142D02*
X89657Y250108D01*
X92623Y250108D01*
X92623Y247142D01*
X89657Y247142D01*
X107442Y247142D02*
X107442Y264937D01*
X98544Y256040D01*
X110408Y256040D01*
X116319Y253074D02*
X116319Y264937D01*
X116319Y253074D02*
X122251Y247142D01*
X128183Y253074D01*
X128183Y264937D01*
X597662Y146820D02*
X609525Y146820D01*
X603594Y152751D02*
X603594Y140888D01*
X538405Y134874D02*
X526542Y134874D01*
X538405Y146737D01*
X538405Y149703D01*
X535440Y152669D01*
X529508Y152669D01*
X526542Y149703D01*
X526542Y120747D02*
X526542Y108884D01*
X526542Y120747D02*
X529508Y123713D01*
X535440Y123713D01*
X538405Y120747D01*
X538405Y108884D01*
X535440Y105918D01*
X529508Y105918D01*
X526542Y108884D01*
X538405Y120747D01*
X526542Y91791D02*
X526542Y79928D01*
X526542Y91791D02*
X529508Y94757D01*
X535440Y94757D01*
X538405Y91791D01*
X538405Y79928D01*
X535440Y76962D01*
X529508Y76962D01*
X526542Y79928D01*
X538405Y91791D01*
X495225Y137414D02*
X483362Y137414D01*
X495225Y149277D01*
X495225Y152243D01*
X492260Y155209D01*
X486328Y155209D01*
X483362Y152243D01*
X483362Y123287D02*
X483362Y111424D01*
X483362Y123287D02*
X486328Y126253D01*
X492260Y126253D01*
X495225Y123287D01*
X495225Y111424D01*
X492260Y108458D01*
X486328Y108458D01*
X483362Y111424D01*
X495225Y123287D01*
X483362Y94331D02*
X483362Y82468D01*
X483362Y94331D02*
X486328Y97297D01*
X492260Y97297D01*
X495225Y94331D01*
X495225Y82468D01*
X492260Y79502D01*
X486328Y79502D01*
X483362Y82468D01*
X495225Y94331D01*
X454585Y137414D02*
X442722Y137414D01*
X454585Y149277D01*
X454585Y152243D01*
X451620Y155209D01*
X445688Y155209D01*
X442722Y152243D01*
X442722Y123287D02*
X442722Y111424D01*
X442722Y123287D02*
X445688Y126253D01*
X451620Y126253D01*
X454585Y123287D01*
X454585Y111424D01*
X451620Y108458D01*
X445688Y108458D01*
X442722Y111424D01*
X454585Y123287D01*
X442722Y94331D02*
X442722Y82468D01*
X442722Y94331D02*
X445688Y97297D01*
X451620Y97297D01*
X454585Y94331D01*
X454585Y82468D01*
X451620Y79502D01*
X445688Y79502D01*
X442722Y82468D01*
X454585Y94331D01*
X93905Y233180D02*
X82042Y233180D01*
D11*
X247650Y190500D02*
X260350Y190500D01*
X266700Y184150D01*
X266700Y171450D02*
X260350Y165100D01*
X222250Y190500D02*
X215900Y184150D01*
X222250Y190500D02*
X234950Y190500D01*
X241300Y184150D01*
X241300Y171450D02*
X234950Y165100D01*
X222250Y165100D01*
X215900Y171450D01*
X241300Y184150D02*
X247650Y190500D01*
X241300Y171450D02*
X247650Y165100D01*
X260350Y165100D01*
X184150Y190500D02*
X171450Y190500D01*
X184150Y190500D02*
X190500Y184150D01*
X190500Y171450D02*
X184150Y165100D01*
X190500Y184150D02*
X196850Y190500D01*
X209550Y190500D01*
X215900Y184150D01*
X215900Y171450D02*
X209550Y165100D01*
X196850Y165100D01*
X190500Y171450D01*
X146050Y190500D02*
X139700Y184150D01*
X146050Y190500D02*
X158750Y190500D01*
X165100Y184150D01*
X165100Y171450D02*
X158750Y165100D01*
X146050Y165100D01*
X139700Y171450D01*
X165100Y184150D02*
X171450Y190500D01*
X165100Y171450D02*
X171450Y165100D01*
X184150Y165100D01*
X107950Y190500D02*
X95250Y190500D01*
X107950Y190500D02*
X114300Y184150D01*
X114300Y171450D02*
X107950Y165100D01*
X114300Y184150D02*
X120650Y190500D01*
X133350Y190500D01*
X139700Y184150D01*
X139700Y171450D02*
X133350Y165100D01*
X120650Y165100D01*
X114300Y171450D01*
X88900Y171450D02*
X88900Y184150D01*
X95250Y190500D01*
X88900Y171450D02*
X95250Y165100D01*
X107950Y165100D01*
X273050Y190500D02*
X285750Y190500D01*
X292100Y184150D01*
X292100Y171450D02*
X285750Y165100D01*
X266700Y184150D02*
X273050Y190500D01*
X266700Y171450D02*
X273050Y165100D01*
X285750Y165100D01*
X298450Y190500D02*
X311150Y190500D01*
X317500Y184150D01*
X317500Y171450D02*
X311150Y165100D01*
X292100Y184150D02*
X298450Y190500D01*
X292100Y171450D02*
X298450Y165100D01*
X311150Y165100D01*
X323850Y190500D02*
X336550Y190500D01*
X342900Y184150D01*
X342900Y171450D02*
X336550Y165100D01*
X317500Y184150D02*
X323850Y190500D01*
X317500Y171450D02*
X323850Y165100D01*
X336550Y165100D01*
X349250Y190500D02*
X361950Y190500D01*
X368300Y184150D01*
X368300Y171450D02*
X361950Y165100D01*
X342900Y184150D02*
X349250Y190500D01*
X342900Y171450D02*
X349250Y165100D01*
X361950Y165100D01*
X374650Y190500D02*
X387350Y190500D01*
X393700Y184150D01*
X393700Y171450D01*
X387350Y165100D01*
X368300Y184150D02*
X374650Y190500D01*
X368300Y171450D02*
X374650Y165100D01*
X387350Y165100D01*
X234950Y12700D02*
X222250Y12700D01*
X215900Y19050D01*
X215900Y31750D02*
X222250Y38100D01*
X260350Y12700D02*
X266700Y19050D01*
X260350Y12700D02*
X247650Y12700D01*
X241300Y19050D01*
X241300Y31750D02*
X247650Y38100D01*
X260350Y38100D01*
X266700Y31750D01*
X241300Y19050D02*
X234950Y12700D01*
X241300Y31750D02*
X234950Y38100D01*
X222250Y38100D01*
X298450Y12700D02*
X311150Y12700D01*
X298450Y12700D02*
X292100Y19050D01*
X292100Y31750D02*
X298450Y38100D01*
X292100Y19050D02*
X285750Y12700D01*
X273050Y12700D01*
X266700Y19050D01*
X266700Y31750D02*
X273050Y38100D01*
X285750Y38100D01*
X292100Y31750D01*
X336550Y12700D02*
X342900Y19050D01*
X336550Y12700D02*
X323850Y12700D01*
X317500Y19050D01*
X317500Y31750D02*
X323850Y38100D01*
X336550Y38100D01*
X342900Y31750D01*
X317500Y19050D02*
X311150Y12700D01*
X317500Y31750D02*
X311150Y38100D01*
X298450Y38100D01*
X374650Y12700D02*
X387350Y12700D01*
X374650Y12700D02*
X368300Y19050D01*
X368300Y31750D02*
X374650Y38100D01*
X368300Y19050D02*
X361950Y12700D01*
X349250Y12700D01*
X342900Y19050D01*
X342900Y31750D02*
X349250Y38100D01*
X361950Y38100D01*
X368300Y31750D01*
X393700Y31750D02*
X393700Y19050D01*
X387350Y12700D01*
X393700Y31750D02*
X387350Y38100D01*
X374650Y38100D01*
X209550Y12700D02*
X196850Y12700D01*
X190500Y19050D01*
X190500Y31750D02*
X196850Y38100D01*
X215900Y19050D02*
X209550Y12700D01*
X215900Y31750D02*
X209550Y38100D01*
X196850Y38100D01*
X184150Y12700D02*
X171450Y12700D01*
X165100Y19050D01*
X165100Y31750D02*
X171450Y38100D01*
X190500Y19050D02*
X184150Y12700D01*
X190500Y31750D02*
X184150Y38100D01*
X171450Y38100D01*
X158750Y12700D02*
X146050Y12700D01*
X139700Y19050D01*
X139700Y31750D02*
X146050Y38100D01*
X165100Y19050D02*
X158750Y12700D01*
X165100Y31750D02*
X158750Y38100D01*
X146050Y38100D01*
X133350Y12700D02*
X120650Y12700D01*
X114300Y19050D01*
X114300Y31750D02*
X120650Y38100D01*
X139700Y19050D02*
X133350Y12700D01*
X139700Y31750D02*
X133350Y38100D01*
X120650Y38100D01*
X107950Y12700D02*
X95250Y12700D01*
X88900Y19050D01*
X88900Y31750D01*
X95250Y38100D01*
X114300Y19050D02*
X107950Y12700D01*
X114300Y31750D02*
X107950Y38100D01*
X95250Y38100D01*
X43180Y85090D02*
X36830Y91440D01*
X43180Y85090D02*
X43180Y72390D01*
X36830Y66040D01*
X24130Y66040D02*
X17780Y72390D01*
X17780Y85090D01*
X24130Y91440D01*
X43180Y123190D02*
X43180Y135890D01*
X43180Y123190D02*
X36830Y116840D01*
X24130Y116840D02*
X17780Y123190D01*
X36830Y116840D02*
X43180Y110490D01*
X43180Y97790D01*
X36830Y91440D01*
X24130Y91440D02*
X17780Y97790D01*
X17780Y110490D01*
X24130Y116840D01*
X24130Y142240D02*
X36830Y142240D01*
X43180Y135890D01*
X24130Y142240D02*
X17780Y135890D01*
X17780Y123190D01*
X24130Y66040D02*
X36830Y66040D01*
X584200Y85090D02*
X584200Y97790D01*
X584200Y85090D02*
X577850Y78740D01*
X565150Y78740D02*
X558800Y85090D01*
X584200Y123190D02*
X577850Y129540D01*
X584200Y123190D02*
X584200Y110490D01*
X577850Y104140D01*
X565150Y104140D02*
X558800Y110490D01*
X558800Y123190D01*
X565150Y129540D01*
X577850Y104140D02*
X584200Y97790D01*
X565150Y104140D02*
X558800Y97790D01*
X558800Y85090D01*
X584200Y161290D02*
X584200Y173990D01*
X584200Y161290D02*
X577850Y154940D01*
X565150Y154940D02*
X558800Y161290D01*
X577850Y154940D02*
X584200Y148590D01*
X584200Y135890D01*
X577850Y129540D01*
X565150Y129540D02*
X558800Y135890D01*
X558800Y148590D01*
X565150Y154940D01*
X565150Y180340D02*
X577850Y180340D01*
X584200Y173990D01*
X565150Y180340D02*
X558800Y173990D01*
X558800Y161290D01*
X565150Y78740D02*
X577850Y78740D01*
D10*
X467790Y64250D02*
X467790Y164350D01*
X426290Y164350D02*
X426290Y64250D01*
X467790Y64250D01*
X467790Y164350D02*
X426290Y164350D01*
D12*
X447040Y59250D03*
X447040Y169350D03*
D10*
X469470Y164350D02*
X469470Y64250D01*
X510970Y64250D02*
X510970Y164350D01*
X469470Y164350D01*
X469470Y64250D02*
X510970Y64250D01*
D12*
X490220Y169350D03*
X490220Y59250D03*
D10*
X510110Y64250D02*
X510110Y164350D01*
X551610Y164350D02*
X551610Y64250D01*
X551610Y164350D02*
X510110Y164350D01*
X510110Y64250D02*
X551610Y64250D01*
D12*
X530860Y169350D03*
X530860Y59250D03*
D13*
X151130Y506730D02*
X11430Y506730D01*
X151130Y506730D02*
X151130Y500380D01*
X151130Y316230D01*
X11430Y316230D01*
X11430Y500380D01*
X11430Y506730D01*
X62230Y455930D02*
X62230Y347980D01*
X74930Y373380D02*
X74930Y455930D01*
X87630Y455930D02*
X87630Y347980D01*
X100330Y373380D02*
X100330Y455930D01*
X151130Y500380D02*
X11430Y500380D01*
D11*
X196850Y419100D02*
X203200Y412750D01*
X196850Y419100D02*
X184150Y419100D01*
X177800Y412750D01*
X177800Y400050D01*
X184150Y393700D01*
X196850Y393700D01*
X203200Y400050D01*
X203200Y412750D01*
X289560Y303530D02*
X283210Y297180D01*
X270510Y297180D01*
X264160Y303530D01*
X264160Y316230D02*
X270510Y322580D01*
X283210Y322580D01*
X289560Y316230D01*
X321310Y297180D02*
X334010Y297180D01*
X321310Y297180D02*
X314960Y303530D01*
X314960Y316230D02*
X321310Y322580D01*
X314960Y303530D02*
X308610Y297180D01*
X295910Y297180D01*
X289560Y303530D01*
X289560Y316230D02*
X295910Y322580D01*
X308610Y322580D01*
X314960Y316230D01*
X359410Y297180D02*
X365760Y303530D01*
X359410Y297180D02*
X346710Y297180D01*
X340360Y303530D01*
X340360Y316230D02*
X346710Y322580D01*
X359410Y322580D01*
X365760Y316230D01*
X340360Y303530D02*
X334010Y297180D01*
X340360Y316230D02*
X334010Y322580D01*
X321310Y322580D01*
X397510Y297180D02*
X410210Y297180D01*
X397510Y297180D02*
X391160Y303530D01*
X391160Y316230D02*
X397510Y322580D01*
X391160Y303530D02*
X384810Y297180D01*
X372110Y297180D01*
X365760Y303530D01*
X365760Y316230D02*
X372110Y322580D01*
X384810Y322580D01*
X391160Y316230D01*
X416560Y316230D02*
X416560Y303530D01*
X410210Y297180D01*
X416560Y316230D02*
X410210Y322580D01*
X397510Y322580D01*
X264160Y316230D02*
X264160Y303530D01*
X63500Y260350D02*
X57150Y266700D01*
X44450Y266700D01*
X38100Y260350D01*
X38100Y247650D01*
X44450Y241300D01*
X57150Y241300D01*
X63500Y247650D01*
X63500Y260350D01*
X57150Y215900D02*
X63500Y209550D01*
X57150Y215900D02*
X44450Y215900D01*
X38100Y209550D01*
X38100Y196850D01*
X44450Y190500D01*
X57150Y190500D01*
X63500Y196850D01*
X63500Y209550D01*
X254000Y412750D02*
X247650Y419100D01*
X234950Y419100D01*
X228600Y412750D01*
X228600Y400050D01*
X234950Y393700D01*
X247650Y393700D01*
X254000Y400050D01*
X254000Y412750D01*
D13*
X534670Y511810D02*
X674370Y511810D01*
X674370Y505460D01*
X674370Y321310D01*
X534670Y321310D01*
X534670Y505460D01*
X534670Y511810D01*
X585470Y461010D02*
X585470Y353060D01*
X598170Y378460D02*
X598170Y461010D01*
X610870Y461010D02*
X610870Y353060D01*
X623570Y378460D02*
X623570Y461010D01*
X674370Y505460D02*
X534670Y505460D01*
D11*
X501650Y419100D02*
X508000Y412750D01*
X501650Y419100D02*
X488950Y419100D01*
X482600Y412750D01*
X482600Y400050D01*
X488950Y393700D01*
X501650Y393700D01*
X508000Y400050D01*
X508000Y412750D01*
X457200Y412750D02*
X450850Y419100D01*
X438150Y419100D01*
X431800Y412750D01*
X431800Y400050D01*
X438150Y393700D01*
X450850Y393700D01*
X457200Y400050D01*
X457200Y412750D01*
X39370Y279400D02*
X26670Y279400D01*
X20320Y285750D01*
X20320Y298450D02*
X26670Y304800D01*
X64770Y279400D02*
X71120Y285750D01*
X64770Y279400D02*
X52070Y279400D01*
X45720Y285750D01*
X45720Y298450D02*
X52070Y304800D01*
X64770Y304800D01*
X71120Y298450D01*
X45720Y285750D02*
X39370Y279400D01*
X45720Y298450D02*
X39370Y304800D01*
X26670Y304800D01*
X102870Y279400D02*
X115570Y279400D01*
X102870Y279400D02*
X96520Y285750D01*
X96520Y298450D02*
X102870Y304800D01*
X96520Y285750D02*
X90170Y279400D01*
X77470Y279400D01*
X71120Y285750D01*
X71120Y298450D02*
X77470Y304800D01*
X90170Y304800D01*
X96520Y298450D01*
X121920Y298450D02*
X121920Y285750D01*
X115570Y279400D01*
X121920Y298450D02*
X115570Y304800D01*
X102870Y304800D01*
X20320Y298450D02*
X20320Y285750D01*
X532130Y287020D02*
X544830Y287020D01*
X532130Y287020D02*
X525780Y293370D01*
X525780Y306070D02*
X532130Y312420D01*
X570230Y287020D02*
X576580Y293370D01*
X570230Y287020D02*
X557530Y287020D01*
X551180Y293370D01*
X551180Y306070D02*
X557530Y312420D01*
X570230Y312420D01*
X576580Y306070D01*
X551180Y293370D02*
X544830Y287020D01*
X551180Y306070D02*
X544830Y312420D01*
X532130Y312420D01*
X608330Y287020D02*
X621030Y287020D01*
X608330Y287020D02*
X601980Y293370D01*
X601980Y306070D02*
X608330Y312420D01*
X601980Y293370D02*
X595630Y287020D01*
X582930Y287020D01*
X576580Y293370D01*
X576580Y306070D02*
X582930Y312420D01*
X595630Y312420D01*
X601980Y306070D01*
X627380Y306070D02*
X627380Y293370D01*
X621030Y287020D01*
X627380Y306070D02*
X621030Y312420D01*
X608330Y312420D01*
X525780Y306070D02*
X525780Y293370D01*
M02*
